<?xml version="1.0" encoding="UTF-8" standalone="no"?><!DOCTYPE svg PUBLIC "-//W3C//DTD SVG 1.1//EN" "http://www.w3.org/Graphics/SVG/1.1/DTD/svg11.dtd"><svg width="100%" height="100%" viewBox="0 0 11592 10450" version="1.1" xmlns="http://www.w3.org/2000/svg" xmlns:xlink="http://www.w3.org/1999/xlink" xml:space="preserve" xmlns:serif="http://www.serif.com/" style="fill-rule:evenodd;clip-rule:evenodd;stroke-miterlimit:10;"><g><path d="M9242.977,10450l-2222.375,0l56.396,-722.8l18.075,-230.631l69.785,-893.85l218.087,-2792.419l2.493,-32.816l319.353,10.508l170.737,5.421l2.18,0l705.68,23.259l189.429,6.054l2.18,0l79.447,2.552l220.58,7.326c0,0 0.317,12.105 1.246,35.047c4.043,125.509 19.313,575.63 39.25,1156.976c3.426,95.566 6.853,194.955 10.592,296.892c23.985,690.614 52.969,1505.156 78.514,2175.076c14.348,381.279 27.75,715.449 38.342,953.406l0.008,0Z" style="fill:#8860fc;fill-rule:nonzero;"/><g><g><path d="M5802.221,390.03c18.708,-123.075 -36.263,-145.852 -120.738,-164.492c-84.488,-18.64 -130.3,52.939 -156.233,119.757c-67.208,173.188 -116.654,349.164 -180.379,522.427c-3.354,-0.849 -8.108,0.097 -11.271,-2.279c38.171,-230.613 86.971,-480.144 116.046,-706.665c11.987,-93.36 -30.137,-142.699 -110.946,-153.047c1.479,-8.649 1.121,-6.568 0,0c-80.808,-10.361 -137.442,26.267 -156.258,118.698c-46.15,226.656 -79.829,480.997 -122.363,713.788c-10.554,0.505 -21.721,-0.715 -31.95,-3.091c14.996,-189.082 45.075,-395.967 54.983,-580.525c5.004,-93.111 -40.654,-137.241 -121.429,-142.501c-80.775,-5.26 -134.754,32.671 -148.117,125.043c-26.054,180.088 -33.683,385.901 -61.062,570.694c-5.804,0.702 -12.358,0.147 -17.887,-2.081c-1.133,-137.88 11.046,-296.116 3.713,-429.253c-4.992,-90.685 -51.558,-134.579 -133.942,-131.464c-82.396,3.116 -126.708,41.628 -138.504,138.473c-7.15,58.729 0.583,99.89 -5.408,190.806c-5.996,90.921 -15.15,241.415 -19.354,363.897c-4.204,122.482 -23.688,293.971 -44.013,424.127c-19.629,125.745 -32.371,255.522 -48.296,379.863c-21.863,170.678 -32.513,350.728 -20.846,518.597c10.017,144.213 30.029,271.955 37.729,413.523c48.512,-6.097 100.629,-13.514 146.825,-7.787c101.883,-113.564 131.196,-162.794 248.425,-284.46c306.488,-318.082 526.088,-638.097 791.908,-994.22c30.15,-132.25 25.421,-116.234 59.725,-283.573c34.304,-167.364 159.996,-519.236 189.642,-714.255Z" style="fill:#da8b63;fill-rule:nonzero;"/><g><path d="M5294.804,2753.725c-6.521,-277.017 42.771,-535.731 79.304,-813.085c46.375,-97.955 256.733,-256.347 296.375,-320.949c127.983,-208.559 57.408,-357.317 191.663,-540.928c43.354,-59.296 210.038,-96.66 232.637,-189.465c15.571,-63.951 -10.625,-81.544 -60.321,-102.892c-49.696,-21.348 -103.017,-24.073 -155.4,-4.819c-259.838,95.538 -430.017,253.933 -564.188,498.872c-18.579,33.929 -29.192,69.703 -51.521,92.359c-22.329,22.643 -38.95,9.339 -61.442,12.48c-239.35,33.437 -401.517,-4.423 -581.142,193.455c-143.971,158.601 -143.971,282.244 -157.321,519.345c-9.446,167.768 35.987,479.16 58.983,668.969c258.788,-7.985 514.146,-14.351 772.375,-13.342l-0.004,0Z" style="fill:#ffb686;fill-rule:nonzero;"/></g></g><path d="M7686.408,10502.85c-717.233,-78.243 -1429.108,-59.246 -2146.771,-70.22c37.613,-408.187 45.812,-530.816 89.8,-1014.412c43.988,-483.608 114.683,-1240.774 138.729,-1776.946c-49.6,-169.446 81.154,151.642 -27.821,-84.761c-108.975,-236.39 -343.204,-599.447 -474.625,-815.461c-131.425,-216.001 -144.771,-229.28 -249.629,-438.924c-104.858,-209.631 -82.542,-105.125 -219.6,-425.679c-137.058,-320.558 -396.562,-841.026 -499.521,-1254.607c-102.958,-413.594 -97.754,-892.102 -132.329,-1315.615c-34.579,-423.513 13.721,-830.665 2.829,-1250.306c60.692,2.229 91.067,4.646 155.771,12.997c64.704,8.363 63.342,8.317 163.483,14.662c100.142,6.345 373.183,24.947 488.275,44.193c115.088,19.241 248.783,17.408 332.088,12.799c83.317,-4.608 45.979,21.129 103.913,-22.592c38.696,304.42 6.7,139.15 65.646,546.584c58.946,407.434 357.221,1356.049 437.613,1751.902c80.392,395.854 160.008,335.931 263.883,548.409c103.879,212.478 180.675,211.111 285.317,362.308c104.629,151.209 211.554,225.155 310.25,368.666c63.629,-0.172 -92.346,-8.241 42.913,1.774c135.267,10.016 581.898,79.862 581.898,79.862c0,0 -9,-90.909 -3.157,214.836c154.613,880.421 182.513,2493.914 224.329,3292.854c41.813,798.94 39.571,606.704 66.721,1217.685l-0.004,-0.008Z" style="fill:#fffaf7;fill-rule:nonzero;"/></g><path d="M11611.034,10450l-3034.177,0l97.225,-953.589l144.583,-1420.336l99.089,-971.738l22.439,-221.753l0,-0.321l103.763,-1017.3l3.427,-33.13l591.436,43.964c484.246,38.555 896.516,375.316 1040.469,849.712l693.335,2770.902l238.407,953.589l0.004,0Z" style="fill:#fffaf7;fill-rule:nonzero;"/><path d="M5706.567,7189.542l-18.433,295.846" style="fill:none;fill-rule:nonzero;stroke:#2f2826;stroke-width:12.08px;"/><path d="M10354.17,10450l-69.29,-968.905l-87.234,-1214.27" style="fill:none;fill-rule:nonzero;stroke:#2f2826;stroke-width:13.16px;"/><path d="M6702.542,9830.408c-313.7,0 -567.996,-260.004 -567.996,-580.742l0,-686.046l1135.979,0l0,686.046c0,320.737 -254.296,580.742 -567.983,580.742Z" style="fill:none;fill-rule:nonzero;stroke:#2f2826;stroke-width:12.08px;"/><g><path d="M9311.725,6908.763l15.533,-629.292c5.433,-232.033 -168.092,-427.642 -394.483,-444.671l-662.942,-49.871l-805.867,17.067c-225.342,4.775 -407.117,190.017 -412.512,420.392l-19.846,846.321" style="fill:none;fill-rule:nonzero;stroke:#2f2826;stroke-width:12.08px;"/><path d="M7228.496,7214.996c-2.65,113.058 -94.446,202.517 -205.021,199.804c-110.575,-2.708 -198.071,-96.562 -195.421,-209.621c2.65,-113.058 94.446,-202.517 205.021,-199.804c110.575,2.708 198.071,96.55 195.421,209.621Z" style="fill:#6039c6;fill-rule:nonzero;"/><path d="M7141.788,7212.871c-1.504,64.104 -53.55,114.829 -116.246,113.288c-62.696,-1.537 -112.308,-54.754 -110.804,-118.854c1.504,-64.104 53.55,-114.817 116.246,-113.275c62.708,1.525 112.308,54.742 110.804,118.842Z" style="fill:none;fill-rule:nonzero;stroke:#fffaf7;stroke-width:12.08px;"/><g><path d="M9062.513,8044.621l-258.2,0l-150.646,-410.329c-73.371,-199.842 16.667,-423.687 206.312,-512.938l451.7,-212.587l451.7,212.587c189.642,89.25 279.683,313.108 206.312,512.938l-150.646,410.329l-236.054,0" style="fill:none;fill-rule:nonzero;stroke:#2f2826;stroke-width:12.08px;"/><g><path d="M9066.737,8100.313l-36.858,-16.675c-11.129,-5.042 -18.304,-16.308 -18.304,-28.762l0,-16.65c0,-12.45 7.175,-23.721 18.304,-28.762l36.858,-16.675c20.333,-9.204 43.2,6.017 43.2,28.763l0,50.004c0,22.742 -22.867,37.954 -43.2,28.762l0,-0.004Z" style="fill:#6039c6;fill-rule:nonzero;"/><path d="M9556.638,7992.783l36.858,16.675c11.129,5.029 18.317,16.308 18.317,28.762l0,16.65c0,12.45 -7.175,23.721 -18.317,28.762l-36.858,16.675c-20.333,9.192 -43.213,-6.017 -43.213,-28.762l0,-50.004c0.013,-22.729 22.875,-37.954 43.213,-28.763l0,0.004Z" style="fill:#6039c6;fill-rule:nonzero;"/></g></g></g><g><path d="M8277.675,6432.242c-313.092,0 -566.9,-259.504 -566.9,-579.617l0,-1252.171l1133.783,0l0,1252.171c0,320.117 -253.808,579.617 -566.888,579.617l0.004,0Z" style="fill:#ffb686;fill-rule:nonzero;"/><path d="M7765.296,4800.171c0,0 478.075,1260.046 1028.188,0l-1028.188,0Z" style="fill:#2f2826;fill-rule:nonzero;"/><path d="M8956.833,4212.704c0,412.042 -272.35,941.667 -675.35,941.667c-403,0 -682.979,-529.612 -682.979,-941.667c0,-412.042 279.979,-614.212 682.979,-614.212c403,0 675.35,202.175 675.35,614.212Z" style="fill:#ffb686;fill-rule:nonzero;"/><path d="M7559.896,4234.021c115.6,-8.4 216.121,80.738 224.337,198.929c8.217,118.192 -78.967,220.971 -194.562,229.371c-115.6,8.4 -216.121,-80.738 -224.337,-198.929c-8.217,-118.192 78.967,-220.971 194.562,-229.371Z" style="fill:#ffb686;"/><path d="M8998.55,4234.004c115.6,-8.4 216.121,80.738 224.337,198.929c8.217,118.192 -78.967,220.971 -194.563,229.371c-115.6,8.4 -216.121,-80.737 -224.337,-198.929c-8.217,-118.192 78.967,-220.971 194.563,-229.371Z" style="fill:#ffb686;"/><path d="M8090.312,4440.138c0,20.742 -16.442,37.55 -36.729,37.55c-20.288,0 -36.729,-16.808 -36.729,-37.55c0,-20.742 16.442,-37.55 36.729,-37.55c20.287,0 36.729,16.808 36.729,37.55Z" style="fill:#2f2826;fill-rule:nonzero;"/><path d="M8547.4,4440.138c0,20.742 -16.442,37.55 -36.729,37.55c-20.288,0 -36.729,-16.808 -36.729,-37.55c0,-20.742 16.442,-37.55 36.729,-37.55c20.287,0 36.729,16.808 36.729,37.55Z" style="fill:#2f2826;fill-rule:nonzero;"/><path d="M8053.583,4602.638c0,68.671 -54.446,124.337 -121.608,124.337c-67.162,0 -121.608,-55.667 -121.608,-124.337c0,-68.671 54.446,-124.337 121.608,-124.337c67.175,0.012 121.608,55.667 121.608,124.337Z" style="fill:#b7644b;fill-rule:nonzero;"/><path d="M8744.971,4602.638c0,68.671 -54.446,124.337 -121.608,124.337c-67.163,0 -121.608,-55.667 -121.608,-124.337c0,-68.671 54.446,-124.337 121.608,-124.337c67.163,0.012 121.608,55.667 121.608,124.337Z" style="fill:#b7644b;fill-rule:nonzero;"/><path d="M8277.675,4622.329c-35.15,0 -63.642,-29.129 -63.642,-65.067l0,-142.404c0,-35.942 28.487,-65.079 63.642,-65.079c35.15,0 63.642,29.129 63.642,65.079l0,142.404c0,35.942 -28.488,65.067 -63.642,65.067Z" style="fill:#b7644b;fill-rule:nonzero;"/><path d="M8032.417,4297.525l-131.196,10.583c-2.996,-38.896 25.408,-72.917 63.45,-75.983l131.208,-10.571c2.983,38.883 -25.421,72.892 -63.463,75.971Z" style="fill:#2f2826;fill-rule:nonzero;"/><path d="M8519.971,4297.525l131.208,10.583c2.996,-38.896 -25.408,-72.917 -63.45,-75.983l-131.196,-10.571c-3.021,38.883 25.383,72.892 63.438,75.971Z" style="fill:#2f2826;fill-rule:nonzero;"/><path d="M8088.867,4679.204l377.612,0c0,0 -181.179,198.721 -377.612,0Z" style="fill:#fffaf7;fill-rule:nonzero;"/><path d="M8942.421,3700.025c-37.408,-67.779 -59.533,-142.479 -79.367,-217.604c-3.425,-13 -8.225,-26.246 -14.579,-39.725c-29.267,-62.054 -84.071,-109.933 -149.858,-124.85c-41.838,-9.488 -81.683,-5.788 -117.575,6.692c-46.554,-123.554 -163.483,-211.379 -300.733,-211.379c-139.579,0 -258.096,90.825 -302.988,217.692c-25.204,-11.146 -52.846,-17.642 -81.908,-18.288c-96.796,-2.15 -183.946,65.838 -213.617,160.071c-3.117,9.9 -5.421,19.654 -7.021,29.275c-10.363,62.529 -31.033,122.371 -61.312,177.708c-59.821,109.296 -116.833,299.571 -14.637,555.483l88.846,-102.363c62.113,-71.575 101.979,-159.571 116.379,-253.033c2.15,0.096 4.167,0.646 6.342,0.646c61.8,0 113.333,-42.75 129.287,-100.717c83.746,43.425 203.588,70.817 337.163,70.817c134.362,0 254.812,-27.712 338.617,-71.588c15.7,58.367 67.438,101.483 129.513,101.483c2.162,0 4.179,-0.55 6.329,-0.646c14.4,93.463 54.279,181.458 116.392,253.033l88.846,102.363c97.717,-244.729 45.875,-426.358 -14.113,-535.071l-0.004,0Z" style="fill:#2f2826;fill-rule:nonzero;"/><path d="M9076.146,4398.179l-99.329,49.15c-10.913,5.408 -9.638,21.717 1.996,25.246l84.738,25.783" style="fill:none;fill-rule:nonzero;stroke:#2f2826;stroke-width:12.08px;"/><path d="M7521.012,4398.179l99.329,49.15c10.925,5.408 9.638,21.717 -1.996,25.246l-84.738,25.783" style="fill:none;fill-rule:nonzero;stroke:#2f2826;stroke-width:12.08px;"/></g></g><g><g><path d="M4881.646,6062.396l-1012.129,-80.749l0,-1.501l-9.421,0.757l-9.433,-0.757l0,1.501l-1153.604,138.225l-412.179,308.01l437.887,2894.314l1127.888,522.312l18.842,0l1252.3,-522.312l336.267,-2740.223c-235.158,-125.005 -453.1,-294.257 -576.412,-519.573l-0.004,-0.004Z" style="fill:#8860fc;fill-rule:nonzero;"/><g><path d="M5625.233,10450l-3387.646,0l5.433,-12.907l479.438,-1114.914l2399.504,0l503.271,1127.821Z" style="fill:#ecd6c7;fill-rule:nonzero;"/></g></g><g><path d="M6681.204,10450l-2430.908,0l181.558,-4389.757l0.512,-34.355l449.279,35.852c424.312,34.279 857.004,341.875 983.15,763.72l816.408,3624.54Z" style="fill:#fffaf7;fill-rule:nonzero;"/><path d="M5585.379,10450l-116.392,-1831.788" style="fill:none;fill-rule:nonzero;stroke:#2f2826;stroke-width:12.17px;"/></g><g><g><path d="M1044.854,766.742c-9.504,-67.204 -65.429,-111.85 -132.2,-99.567c-66.779,12.292 -93.621,69.329 -94.671,133.004c-1.1,-4.333 -25.575,454.696 -25.575,454.696c0,0 -9.171,1.246 -9.529,1.296l-60.558,-600.029c-6.246,-61.821 -60.321,-106.771 -120.783,-100.396c-60.475,6.383 -104.438,61.675 -98.196,123.496l61.204,606.475c-12.896,1.746 -12.979,1.758 -25.921,3.517l-80.283,-485.908c-10.125,-61.283 -66.925,-102.571 -126.863,-92.217c-59.938,10.354 -100.321,68.425 -90.196,129.708l78.971,477.987c-1.196,0.171 -14.971,2.025 -15.271,2.063l-88.238,-353.663c-15.021,-60.221 -74.958,-96.587 -133.858,-81.229c-58.9,15.358 -94.471,76.642 -79.45,136.863l36.442,146.067c27.725,144.25 64.392,306.55 64.392,306.55c17.183,101.204 33.088,229.521 38.554,332.396c5.279,99.383 24.775,187.792 32.179,286.908c10.162,136.033 37.537,270.221 72.212,401.762c29.779,113.008 70.125,223.05 97.133,336.583c40.929,-9.679 82.075,-18.35 123.292,-26.662c48.117,-105.392 89.921,-153.796 159.567,-259.55c182.083,-276.496 341.067,-603.775 449.087,-922.562c-10.854,-105.633 0.333,-49.771 -21.004,-194.546c-21.325,-144.783 4.633,-556.558 -10.438,-663.033l0,-0.008Z" style="fill:#da8b63;fill-rule:nonzero;"/><g><path d="M1143.088,2801.329c-24.571,-115.875 -70.1,-593.438 -89.287,-713.892c21.421,-85.15 164.867,-254.3 180.925,-312.692c51.867,-188.525 -70.1,-266.021 -2.592,-437.883c21.804,-55.496 157.083,-132.417 148.688,-210.183c-5.779,-53.604 -28.537,-61.992 -71.592,-69.379c-43.067,-7.388 -83.175,1.479 -122.813,25.612c-196.65,119.688 -294.175,277.996 -324.113,508.371c-4.142,31.912 -4.667,62.479 -21.575,81.367c-16.896,18.888 -31.104,14.187 -47.212,18.142c-171.375,42.067 -337.1,69.721 -438.617,228.704c-81.358,127.438 -50.958,264.35 -27.533,404.3c16.583,99.029 130.767,476.008 161.8,569.996c237.392,-58.083 653.917,-92.463 653.917,-92.463l0.004,0Z" style="fill:#ffb686;fill-rule:nonzero;"/></g></g><g><path d="M3424.529,10450l-1838.292,0l379.5,-3153.071l-1585.475,-2888.796l-295.179,-2070.063l1065.379,-90.667l636.188,2126.096l962.746,1573.679l2.983,1.025l469.537,179.042l202.608,4322.754l0.004,0Z" style="fill:#fffaf7;fill-rule:nonzero;"/><path d="M2589.688,9842.579c-233.412,0 -422.637,-193.471 -422.637,-432.121l0,-510.483l845.279,0l0,510.483c0,238.65 -189.225,432.121 -422.638,432.121l-0.004,0Z" style="fill:none;fill-rule:nonzero;stroke:#2f2826;stroke-width:12.08px;"/></g></g><g><path d="M4834.483,7082.675l3.246,-597.867c0.921,-220.438 -167.433,-402.871 -382.725,-414.725l-630.442,-34.696l-764.946,31.596c-213.904,8.838 -383.129,188.208 -384.05,407.083l-3.392,804.046" style="fill:none;fill-rule:nonzero;stroke:#2f2826;stroke-width:12.08px;"/><path d="M2861.846,7413.267c-0.454,107.417 -85.979,194.117 -191.037,193.654c-105.058,-0.45 -189.858,-87.908 -189.404,-195.325c0.454,-107.417 85.979,-194.117 191.037,-193.654c105.058,0.463 189.858,87.908 189.404,195.325Z" style="fill:#6039c6;fill-rule:nonzero;"/><path d="M2779.471,7412.9c-0.262,60.904 -48.75,110.054 -108.321,109.796c-59.567,-0.258 -107.65,-49.846 -107.387,-110.75c0.262,-60.904 48.75,-110.054 108.321,-109.796c59.567,0.267 107.65,49.858 107.387,110.75Z" style="fill:none;fill-rule:nonzero;stroke:#fffaf7;stroke-width:12.08px;"/><g><path d="M4618.588,8166.05l-245.2,4.933l-150.55,-386.771c-73.325,-188.367 8.083,-402.65 186.55,-491.025l425.05,-210.5l432.825,193.25c181.713,81.133 271.3,291.975 205.283,483.15l-135.554,392.521l-224.163,4.504" style="fill:none;fill-rule:nonzero;stroke:#2f2826;stroke-width:12.08px;"/><g><path d="M4623.613,8218.863l-35.308,-15.138c-10.662,-4.567 -17.683,-15.137 -17.908,-26.954l-0.313,-15.808c-0.225,-11.817 6.387,-22.658 16.858,-27.662l34.696,-16.542c19.142,-9.121 41.133,4.896 41.55,26.479l0.908,47.488c0.429,21.596 -21.012,36.487 -40.488,28.137l0.004,0Z" style="fill:#6039c6;fill-rule:nonzero;"/><path d="M5086.858,8107.404l35.308,15.138c10.662,4.567 17.683,15.137 17.908,26.954l0.313,15.808c0.225,11.817 -6.387,22.658 -16.858,27.662l-34.696,16.542c-19.142,9.121 -41.133,-4.896 -41.55,-26.479l-0.908,-47.488c-0.417,-21.596 21.012,-36.488 40.488,-28.137l-0.004,-0Z" style="fill:#6039c6;fill-rule:nonzero;"/></g></g></g><path d="M4449.025,6025.892l436.919,32.892c492.347,37.066 904.357,404.712 1016.648,907.179l778.612,3484.037" style="fill:none;fill-rule:nonzero;stroke:#2f2826;stroke-width:12.13px;"/><g><path d="M2960.029,4948.292c-4.046,16.054 -7.617,32.254 -10.7,48.575c-30.375,161.167 -13.363,337.292 51.558,486.483c56.188,129.146 198.55,243.292 307.992,317.917c306.079,208.692 713.663,217.421 1016.796,-3.896c141.096,-103.008 253.296,-251.433 320.113,-421.075c159.792,-405.642 -233.771,-859.542 -563.521,-984.625c-427.975,-162.317 -995.446,53.85 -1122.237,556.617l0,0.004Z" style="fill:#162826;fill-rule:nonzero;"/><path d="M3788.529,6549.838c-223.35,0 -404.408,-185.121 -404.408,-413.492l0,-893.288l808.825,0l0,893.288c0,228.358 -181.071,413.492 -404.421,413.492l0.004,0Z" style="fill:#ffb686;fill-rule:nonzero;"/><path d="M3380.9,5289.988c0,0 380.767,1003.571 818.904,0l-818.904,0Z" style="fill:#162826;fill-rule:nonzero;"/><path d="M4554.946,4502.679c0,464.179 -309.175,975.017 -763.179,975.017c-453.992,0 -767.046,-510.838 -767.046,-975.017c0,-464.179 315.408,-691.942 769.413,-691.942c454.004,0 760.817,227.75 760.817,691.942l-0.004,0Z" style="fill:#ffb686;fill-rule:nonzero;"/><path d="M2828.771,4596.596c92.317,-94.387 242.217,-94.387 334.537,0c92.317,94.387 92.317,247.654 0,342.042c-92.317,94.387 -242.217,94.387 -334.537,0c-92.317,-94.387 -92.317,-247.654 0,-342.042Z" style="fill:#ffc586;"/><path d="M4387.017,4708.471c29.871,-129.95 157.304,-210.658 284.4,-180.117c127.092,30.542 206.021,160.838 176.15,290.788c-29.871,129.95 -157.304,210.658 -284.4,180.117c-127.092,-30.542 -206.021,-160.837 -176.15,-290.788Z" style="fill:#ffb686;"/><g><path d="M3577.35,4758.408c0,23.367 -18.521,42.3 -41.371,42.3c-22.854,0 -41.371,-18.933 -41.371,-42.3c0,-23.367 18.521,-42.3 41.371,-42.3c22.842,0 41.371,18.933 41.371,42.3Z" style="fill:#162826;fill-rule:nonzero;"/><path d="M4092.271,4758.408c0,23.367 -18.529,42.3 -41.371,42.3c-22.854,0 -41.371,-18.933 -41.371,-42.3c0,-23.367 18.521,-42.3 41.371,-42.3c22.842,0 41.371,18.933 41.371,42.3Z" style="fill:#162826;fill-rule:nonzero;"/><g><path d="M3535.975,4941.479c0,77.363 -61.338,140.075 -136.987,140.075c-75.65,0 -137,-62.712 -137,-140.075c0,-77.363 61.338,-140.075 137,-140.075c75.662,0 136.987,62.712 136.987,140.075Z" style="fill:#b7644b;fill-rule:nonzero;"/><path d="M4314.846,4941.479c0,77.363 -61.337,140.075 -137,140.075c-75.662,0 -137,-62.712 -137,-140.075c0,-77.363 61.338,-140.075 137,-140.075c75.663,0 137,62.712 137,140.075Z" style="fill:#b7644b;fill-rule:nonzero;"/><path d="M3788.413,4963.658c-39.592,0 -71.688,-32.825 -71.688,-73.308l0,-160.425c0,-40.483 32.096,-73.308 71.688,-73.308c39.592,0 71.7,32.817 71.7,73.308l0,160.425c0,40.483 -32.108,73.308 -71.7,73.308Z" style="fill:#b7644b;fill-rule:nonzero;"/></g><g><path d="M3571.546,4579.233c-1.3,-12.796 -12.908,-21.767 -25.287,-19.483c-32.717,6.042 -138.013,37.917 -190.717,83.979l197.942,-40.383c11.321,-1.854 19.246,-12.442 18.067,-24.113l-0.004,0Z" style="fill:#162826;fill-rule:nonzero;"/><path d="M3984.321,4579.233c1.3,-12.796 12.921,-21.767 25.287,-19.483c32.704,6.042 138.004,37.917 190.717,83.979l-197.942,-40.383c-11.321,-1.854 -19.246,-12.442 -18.067,-24.113l0.004,0Z" style="fill:#162826;fill-rule:nonzero;"/></g><path d="M3823.325,4989.467l-32.142,10.438l-31.054,-8.242l-146,36.587c76.092,29.446 352.421,0 352.421,0l-143.221,-38.783l-0.004,0Z" style="fill:#b7644b;fill-rule:nonzero;"/><path d="M3884.933,5078.108c-2.521,1.796 -3.763,4.175 -6.625,5.787c-38.733,21.938 -85.646,23.083 -129.033,21.571c-25.708,-0.892 -44.942,-11.754 -58.042,-27.371l-39.379,-24.233c0,0 130.075,234.562 273.917,8.9l-40.833,15.346l-0.004,0Z" style="fill:#b7644b;fill-rule:nonzero;"/><path d="M3614.138,5028.238l352.421,0c0,0 -169.096,185.463 -352.421,0Z" style="fill:#fffaf7;fill-rule:nonzero;"/></g><path d="M3061.996,5028.238c0,27.871 -22.1,50.467 -49.358,50.467c-27.258,0 -49.358,-22.596 -49.358,-50.467c0,-27.871 22.1,-50.467 49.358,-50.467c27.258,0 49.358,22.583 49.358,50.467Z" style="fill:#cc9432;fill-rule:nonzero;"/><ellipse cx="4582.992" cy="5028.238" rx="49.358" ry="50.467" style="fill:#cc9432;"/><g><path d="M3279.375,3879.929c-61.325,-69.412 -165.979,-90.862 -251.338,-61.467c-78.671,27.1 -123.267,104.083 -137.571,184.046c-16.179,90.438 -36.475,182.387 -77.05,268.988c-29.825,63.662 -99.508,75.371 -87.208,183.458c21.529,189.258 162.8,157.321 221.008,215.004c19.796,19.617 154.55,154.967 116.283,181.629c141.608,-98.637 257.2,-257.954 300.983,-427.325c43.783,-169.371 29.742,-414.333 -85.108,-544.338l0,0.004Z" style="fill:#162826;fill-rule:nonzero;"/><path d="M3297.796,3615.3c-91.629,68.633 -162.146,160.596 -150.696,284.188c17.838,192.483 247.838,328.454 407.713,389.725c90.375,34.633 186.346,53.738 282.8,56.863c95.354,3.087 182.787,-20.983 276.233,5.3c186.788,52.542 331.921,233.05 328.529,434.342c-0.3,17.983 5.408,90.096 -11.558,102.596c117.692,-86.787 233.117,-236.892 290.808,-372.829c88.975,-209.633 87.712,-551.967 -148.4,-662.046c-54.542,-25.429 -114.254,-31.104 -168.208,-59.354c-104.725,-54.825 -151.042,-163.196 -243.658,-231.508c-98.075,-72.354 -215.646,-117.279 -336.338,-126.671c-95.554,-7.433 -192.496,7.458 -282.117,41.933c-83.546,32.108 -173.417,83.771 -245.104,137.462l-0.004,0Z" style="fill:#162826;fill-rule:nonzero;"/></g><path d="M3368.663,4090.113c11.508,121.775 108.308,221.804 219.433,267.158c111.125,45.354 234.679,45.242 354.033,36.708c85.754,-6.129 172.304,-16.237 257.246,-2.808c84.954,13.429 170.179,54.262 216.196,128.488" style="fill:none;fill-rule:nonzero;stroke:#162826;stroke-width:12.08px;"/><g><path d="M4683.096,4726.646l-94.35,46.671c-10.375,5.129 -9.146,20.621 1.9,23.988l80.488,24.487" style="fill:none;fill-rule:nonzero;stroke:#2f2826;stroke-width:12.08px;"/><path d="M2907.613,4726.646l94.35,46.671c10.375,5.129 9.146,20.621 -1.9,23.988l-80.487,24.487" style="fill:none;fill-rule:nonzero;stroke:#2f2826;stroke-width:12.08px;"/></g></g></g></svg>