<?xml version="1.0" encoding="UTF-8" standalone="no"?><!DOCTYPE svg PUBLIC "-//W3C//DTD SVG 1.1//EN" "http://www.w3.org/Graphics/SVG/1.1/DTD/svg11.dtd"><svg width="100%" height="100%" viewBox="0 0 1992 1155" version="1.1" xmlns="http://www.w3.org/2000/svg" xmlns:xlink="http://www.w3.org/1999/xlink" xml:space="preserve" xmlns:serif="http://www.serif.com/" style="fill-rule:evenodd;clip-rule:evenodd;stroke-linejoin:round;stroke-miterlimit:2;"><clipPath id="_clip1"><rect x="0" y="0" width="1991.839" height="1154.689"/></clipPath><g clip-path="url(#_clip1)"><g><path d="M594.991,3.723c296.79,-16.788 607.962,70.662 562.221,197.43c-45.74,126.768 244.537,-45.028 360.379,0.677c82.471,32.539 49.503,131.596 89.402,171.51c91.48,91.517 185.04,-23.727 301.47,45.419c81.708,48.525 97.504,352.161 72.555,549.474c-12.081,95.551 -152.419,171.537 -247.814,184.795l-1371.994,-25.682l-197.915,-4.194c0,0 -320.355,-118.989 -63.654,-285.448c135.223,-87.685 37.357,-158.061 22.871,-199.981c-16.633,-48.131 -55.443,-132.191 113.657,-193.881c169.1,-61.689 125.439,-195.915 121.281,-223.708c-4.158,-27.794 -59.249,-199.623 237.541,-216.411Z" style="fill:#f5df00;fill-rule:nonzero;"/><path d="M452.103,445.394l-82.599,681.438l11.789,12.758l70.748,-282.59l0.062,-411.606Z" style="fill:#10022f;fill-rule:nonzero;"/><path d="M462.149,376.922l-80.856,762.668l178.482,0l-44.335,-778.373l-53.29,15.705Z" style="fill:#355389;fill-rule:nonzero;"/><path d="M436.518,1130.984l996.415,0c17.038,0 31.794,-14.599 32.957,-32.61l45.398,-703.141c0.983,-15.225 -9.896,-27.568 -24.3,-27.568l-1001.186,0c-14.404,0 -26.878,12.342 -27.86,27.568l-45.723,708.183c-0.983,15.225 9.896,27.568 24.3,27.568Z" style="fill:#edd7be;fill-rule:nonzero;"/><path d="M515.58,363.685l-0.14,-2.468l-57.901,5.154l-76.246,773.219l8.514,0l80.856,-762.668l44.916,-13.237Z" style="fill:#184655;fill-rule:nonzero;"/><path d="M462.004,458.61l-43.161,652.068c1.309,15.937 15.306,20.307 23.399,20.307l129.371,0l-77.203,-731.166l-32.406,58.792Z" style="fill:#fef8f8;fill-rule:nonzero;"/><path d="M565.24,621.417l-67.24,0c-9.646,0 -16.74,-8.139 -15.844,-18.18l6.24,-69.995c0.895,-10.041 9.44,-18.18 19.085,-18.18l67.24,0c9.646,0 16.739,8.139 15.844,18.18l-6.24,69.995c-0.896,10.041 -9.441,18.18 -19.086,18.18Z" style="fill:#87bac3;fill-rule:nonzero;"/><path d="M710.178,621.417l-67.24,0c-9.646,0 -16.739,-8.139 -15.844,-18.18l6.24,-69.995c0.895,-10.041 9.44,-18.18 19.085,-18.18l67.24,0c9.646,0 16.739,8.139 15.844,18.18l-6.24,69.995c-0.895,10.041 -9.44,18.18 -19.085,18.18Z" style="fill:#87bac3;fill-rule:nonzero;"/><path d="M855.116,621.417l-67.24,0c-9.645,0 -16.739,-8.139 -15.844,-18.18l6.24,-69.995c0.895,-10.041 9.44,-18.18 19.085,-18.18l67.24,0c9.645,0 16.739,8.139 15.844,18.18l-6.24,69.995c-0.895,10.041 -9.44,18.18 -19.085,18.18Z" style="fill:#87bac3;fill-rule:nonzero;"/><path d="M1000.054,621.417l-67.24,0c-9.645,0 -16.739,-8.139 -15.844,-18.18l6.24,-69.995c0.895,-10.041 9.44,-18.18 19.085,-18.18l67.24,0c9.645,0 16.739,8.139 15.843,18.18l-6.24,69.995c-0.894,10.041 -9.439,18.18 -19.085,18.18Z" style="fill:#87bac3;fill-rule:nonzero;"/><path d="M1144.992,621.417l-67.24,0c-9.646,0 -16.739,-8.139 -15.844,-18.18l6.24,-69.995c0.895,-10.041 9.44,-18.18 19.086,-18.18l67.24,0c9.646,0 16.739,8.139 15.844,18.18l-6.24,69.995c-0.896,10.041 -9.44,18.18 -19.085,18.18Z" style="fill:#87bac3;fill-rule:nonzero;"/><path d="M1289.93,621.417l-67.24,0c-9.646,0 -16.739,-8.139 -15.844,-18.18l6.24,-69.995c0.894,-10.041 9.44,-18.18 19.085,-18.18l67.24,0c9.646,0 16.739,8.139 15.844,18.18l-6.24,69.995c-0.895,10.041 -9.44,18.18 -19.085,18.18Z" style="fill:#f47458;fill-rule:nonzero;"/><path d="M1434.867,621.417l-67.24,0c-9.645,0 -16.739,-8.139 -15.844,-18.18l6.24,-69.995c0.895,-10.041 9.44,-18.18 19.085,-18.18l67.24,0c9.646,0 16.739,8.139 15.844,18.18l-6.24,69.995c-0.894,10.041 -9.44,18.18 -19.085,18.18Z" style="fill:#f47458;fill-rule:nonzero;"/><path d="M550.965,781.546l-67.24,0c-9.646,0 -16.739,-8.14 -15.844,-18.18l6.24,-69.995c0.895,-10.041 9.44,-18.181 19.085,-18.181l67.24,0c9.645,0 16.739,8.14 15.844,18.181l-6.24,69.995c-0.894,10.04 -9.44,18.18 -19.085,18.18Z" style="fill:#87bac3;fill-rule:nonzero;"/><path d="M695.903,781.546l-67.24,0c-9.645,0 -16.739,-8.14 -15.844,-18.18l6.24,-69.995c0.895,-10.041 9.44,-18.181 19.085,-18.181l67.24,0c9.646,0 16.739,8.14 15.844,18.181l-6.24,69.995c-0.895,10.04 -9.44,18.18 -19.085,18.18Z" style="fill:#87bac3;fill-rule:nonzero;"/><path d="M840.841,781.546l-67.24,0c-9.646,0 -16.739,-8.14 -15.844,-18.18l6.24,-69.995c0.895,-10.041 9.44,-18.181 19.085,-18.181l67.24,0c9.646,0 16.739,8.14 15.844,18.181l-6.24,69.995c-0.895,10.04 -9.44,18.18 -19.085,18.18Z" style="fill:#87bac3;fill-rule:nonzero;"/><path d="M985.778,781.546l-67.24,0c-9.645,0 -16.739,-8.14 -15.844,-18.18l6.24,-69.995c0.895,-10.041 9.44,-18.181 19.085,-18.181l67.24,0c9.646,0 16.739,8.14 15.844,18.181l-6.24,69.995c-0.894,10.04 -9.44,18.18 -19.085,18.18Z" style="fill:#87bac3;fill-rule:nonzero;"/><path d="M1130.717,781.546l-67.24,0c-9.646,0 -16.739,-8.14 -15.844,-18.18l6.24,-69.995c0.895,-10.041 9.44,-18.181 19.085,-18.181l67.24,0c9.646,0 16.739,8.14 15.844,18.181l-6.24,69.995c-0.896,10.04 -9.44,18.18 -19.085,18.18Z" style="fill:#87bac3;fill-rule:nonzero;"/><path d="M1275.655,781.546l-67.24,0c-9.646,0 -16.739,-8.14 -15.844,-18.18l6.24,-69.995c0.895,-10.041 9.44,-18.181 19.085,-18.181l67.24,0c9.646,0 16.739,8.14 15.844,18.181l-6.24,69.995c-0.896,10.04 -9.44,18.18 -19.085,18.18Z" style="fill:#f47458;fill-rule:nonzero;"/><path d="M1420.592,781.546l-67.24,0c-9.646,0 -16.739,-8.14 -15.844,-18.18l6.24,-69.995c0.895,-10.041 9.44,-18.181 19.085,-18.181l67.24,0c9.646,0 16.739,8.14 15.844,18.181l-6.24,69.995c-0.896,10.04 -9.44,18.18 -19.085,18.18Z" style="fill:#f47458;fill-rule:nonzero;"/><path d="M536.69,941.675l-67.24,0c-9.646,0 -16.74,-8.14 -15.844,-18.181l6.24,-69.994c0.896,-10.041 9.44,-18.181 19.085,-18.181l67.24,0c9.646,0 16.739,8.14 15.844,18.181l-6.24,69.994c-0.895,10.041 -9.44,18.181 -19.085,18.181Z" style="fill:#87bac3;fill-rule:nonzero;"/><path d="M681.628,941.675l-67.24,0c-9.646,0 -16.739,-8.14 -15.844,-18.181l6.24,-69.994c0.895,-10.041 9.44,-18.181 19.085,-18.181l67.24,0c9.645,0 16.739,8.14 15.844,18.181l-6.24,69.994c-0.895,10.041 -9.44,18.181 -19.085,18.181Z" style="fill:#87bac3;fill-rule:nonzero;"/><path d="M826.566,941.675l-67.24,0c-9.646,0 -16.739,-8.14 -15.844,-18.181l6.24,-69.994c0.895,-10.041 9.44,-18.181 19.085,-18.181l67.24,0c9.645,0 16.739,8.14 15.844,18.181l-6.24,69.994c-0.895,10.041 -9.44,18.181 -19.085,18.181Z" style="fill:#87bac3;fill-rule:nonzero;"/><path d="M971.503,941.675l-67.24,0c-9.646,0 -16.74,-8.14 -15.844,-18.181l6.24,-69.994c0.895,-10.041 9.44,-18.181 19.085,-18.181l67.24,0c9.646,0 16.739,8.14 15.844,18.181l-6.24,69.994c-0.895,10.041 -9.44,18.181 -19.086,18.181Z" style="fill:#87bac3;fill-rule:nonzero;"/><path d="M1116.441,941.675l-67.24,0c-9.646,0 -16.739,-8.14 -15.844,-18.181l6.24,-69.994c0.895,-10.041 9.44,-18.181 19.085,-18.181l67.24,0c9.646,0 16.739,8.14 15.844,18.181l-6.24,69.994c-0.895,10.041 -9.44,18.181 -19.085,18.181Z" style="fill:#87bac3;fill-rule:nonzero;"/><path d="M1261.38,941.675l-67.24,0c-9.646,0 -16.739,-8.14 -15.845,-18.181l6.24,-69.994c0.895,-10.041 9.44,-18.181 19.086,-18.181l67.24,0c9.645,0 16.739,8.14 15.843,18.181l-6.24,69.994c-0.896,10.041 -9.441,18.181 -19.085,18.181Z" style="fill:#473472;fill-rule:nonzero;"/><path d="M1406.317,941.675l-67.24,0c-9.646,0 -16.739,-8.14 -15.844,-18.181l6.24,-69.994c0.895,-10.041 9.44,-18.181 19.086,-18.181l67.24,0c9.645,0 16.739,8.14 15.844,18.181l-6.24,69.994c-0.896,10.041 -9.44,18.181 -19.085,18.181Z" style="fill:#473472;fill-rule:nonzero;"/><path d="M522.415,1101.804l-67.24,0c-9.646,0 -16.739,-8.139 -15.844,-18.18l6.24,-69.995c0.895,-10.041 9.44,-18.18 19.085,-18.18l67.24,0c9.646,0 16.74,8.139 15.844,18.18l-6.24,69.995c-0.895,10.041 -9.44,18.18 -19.085,18.18Z" style="fill:#87bac3;fill-rule:nonzero;"/><path d="M667.352,1101.804l-67.24,0c-9.645,0 -16.739,-8.139 -15.844,-18.18l6.24,-69.995c0.895,-10.041 9.44,-18.18 19.085,-18.18l67.24,0c9.645,0 16.739,8.139 15.844,18.18l-6.24,69.995c-0.895,10.041 -9.44,18.18 -19.085,18.18Z" style="fill:#87bac3;fill-rule:nonzero;"/><path d="M812.29,1101.804l-67.24,0c-9.646,0 -16.739,-8.139 -15.844,-18.18l6.24,-69.995c0.895,-10.041 9.44,-18.18 19.085,-18.18l67.24,0c9.646,0 16.739,8.139 15.844,18.18l-6.24,69.995c-0.895,10.041 -9.44,18.18 -19.085,18.18Z" style="fill:#87bac3;fill-rule:nonzero;"/><path d="M957.228,1101.804l-67.24,0c-9.646,0 -16.739,-8.139 -15.844,-18.18l6.24,-69.995c0.895,-10.041 9.44,-18.18 19.085,-18.18l67.24,0c9.646,0 16.739,8.139 15.844,18.18l-6.24,69.995c-0.894,10.041 -9.439,18.18 -19.085,18.18Z" style="fill:#87bac3;fill-rule:nonzero;"/><path d="M1102.166,1101.804l-67.24,0c-9.645,0 -16.739,-8.139 -15.844,-18.18l6.24,-69.995c0.895,-10.041 9.44,-18.18 19.085,-18.18l67.24,0c9.646,0 16.739,8.139 15.844,18.18l-6.24,69.995c-0.894,10.041 -9.44,18.18 -19.085,18.18Z" style="fill:#87bac3;fill-rule:nonzero;"/><path d="M1504.436,1152.556l-996.415,0c-17.038,0 -31.174,-14.053 -31.572,-31.389l-15.553,-676.806c-0.337,-14.655 11.067,-26.535 25.471,-26.535l1001.186,0c14.403,0 26.353,11.88 26.69,26.535l15.665,681.661c0.336,14.655 -11.067,26.534 -25.471,26.534Z" style="fill:#e0c8a9;fill-rule:nonzero;"/><path d="M1511.575,1153.03l-996.415,0c-17.039,0 -31.174,-14.054 -31.573,-31.389l-15.553,-676.807c-0.337,-14.655 11.067,-26.535 25.47,-26.535l1001.186,0c14.404,0 26.353,11.88 26.69,26.535l15.665,681.66c0.337,14.656 -11.066,26.536 -25.47,26.536Z" style="fill:#fef8f8;fill-rule:nonzero;"/><path d="M1445.023,315.809l-930.077,0c-34.14,0 -59.927,27.361 -57.598,61.113l6.25,90.545l1053.71,0l-6.25,-90.545c-2.33,-33.752 -31.894,-61.113 -66.035,-61.113Z" style="fill:#2f1b5d;fill-rule:nonzero;"/><path d="M1449.824,315.809l-930.077,0c-34.14,0 -59.927,27.361 -57.598,61.113l6.251,90.545l1053.709,0l-6.25,-90.545c-2.329,-33.752 -31.894,-61.113 -66.035,-61.113Z" style="fill:#473472;fill-rule:nonzero;"/><path d="M597.962,634.073l-67.24,0c-9.645,0 -17.73,-8.054 -18.058,-17.989l-2.283,-69.257c-0.328,-9.935 7.226,-17.989 16.872,-17.989l67.24,0c9.645,0 17.731,8.054 18.058,17.989l2.283,69.257c0.327,9.935 -7.227,17.989 -16.872,17.989Z" style="fill:#473472;fill-rule:nonzero;"/><path d="M742.899,634.073l-67.24,0c-9.646,0 -17.731,-8.054 -18.058,-17.989l-2.283,-69.257c-0.328,-9.935 7.226,-17.989 16.872,-17.989l67.239,0c9.646,0 17.731,8.054 18.058,17.989l2.284,69.257c0.328,9.935 -7.227,17.989 -16.872,17.989Z" style="fill:#87bac3;fill-rule:nonzero;"/><path d="M887.837,634.073l-67.24,0c-9.646,0 -17.731,-8.054 -18.058,-17.989l-2.283,-69.257c-0.328,-9.935 7.226,-17.989 16.872,-17.989l67.24,0c9.646,0 17.73,8.054 18.058,17.989l2.283,69.257c0.328,9.935 -7.226,17.989 -16.872,17.989Z" style="fill:#87bac3;fill-rule:nonzero;"/><path d="M1032.775,634.073l-67.24,0c-9.646,0 -17.73,-8.054 -18.058,-17.989l-2.283,-69.257c-0.328,-9.935 7.226,-17.989 16.872,-17.989l67.24,0c9.646,0 17.731,8.054 18.058,17.989l2.283,69.257c0.327,9.935 -7.227,17.989 -16.872,17.989Z" style="fill:#87bac3;fill-rule:nonzero;"/><path d="M1177.713,634.073l-67.24,0c-9.646,0 -17.73,-8.054 -18.057,-17.989l-2.284,-69.257c-0.328,-9.935 7.227,-17.989 16.872,-17.989l67.24,0c9.646,0 17.731,8.054 18.058,17.989l2.283,69.257c0.327,9.935 -7.226,17.989 -16.871,17.989Z" style="fill:#87bac3;fill-rule:nonzero;"/><path d="M1322.651,634.073l-67.24,0c-9.646,0 -17.731,-8.054 -18.058,-17.989l-2.283,-69.257c-0.328,-9.935 7.226,-17.989 16.871,-17.989l67.24,0c9.645,0 17.73,8.054 18.057,17.989l2.284,69.257c0.328,9.935 -7.227,17.989 -16.872,17.989Z" style="fill:#87bac3;fill-rule:nonzero;"/><path d="M1467.589,634.073l-67.24,0c-9.646,0 -17.73,-8.054 -18.058,-17.989l-2.283,-69.257c-0.328,-9.935 7.226,-17.989 16.872,-17.989l67.24,0c9.645,0 17.73,8.054 18.057,17.989l2.284,69.257c0.328,9.935 -7.227,17.989 -16.872,17.989Z" style="fill:#473472;fill-rule:nonzero;"/><path d="M603.186,792.514l-67.24,0c-9.646,0 -17.731,-8.054 -18.058,-17.988l-2.283,-69.257c-0.328,-9.934 7.226,-17.989 16.872,-17.989l67.24,0c9.646,0 17.73,8.054 18.058,17.989l2.283,69.257c0.327,9.935 -7.227,17.988 -16.872,17.988Z" style="fill:#473472;fill-rule:nonzero;"/><path d="M748.124,792.514l-67.24,0c-9.646,0 -17.73,-8.054 -18.057,-17.988l-2.284,-69.257c-0.328,-9.934 7.226,-17.989 16.872,-17.989l67.24,0c9.646,0 17.731,8.054 18.058,17.989l2.283,69.257c0.328,9.935 -7.226,17.988 -16.872,17.988Z" style="fill:#87bac3;fill-rule:nonzero;"/><path d="M893.061,792.514l-67.24,0c-9.646,0 -17.731,-8.054 -18.058,-17.988l-2.284,-69.257c-0.328,-9.934 7.226,-17.989 16.872,-17.989l67.24,0c9.646,0 17.731,8.054 18.058,17.989l2.283,69.257c0.328,9.935 -7.225,17.988 -16.871,17.988Z" style="fill:#87bac3;fill-rule:nonzero;"/><path d="M1037.999,792.514l-67.24,0c-9.646,0 -17.731,-8.054 -18.058,-17.988l-2.283,-69.257c-0.328,-9.934 7.226,-17.989 16.872,-17.989l67.239,0c9.646,0 17.731,8.054 18.058,17.989l2.284,69.257c0.328,9.935 -7.227,17.988 -16.872,17.988Z" style="fill:#87bac3;fill-rule:nonzero;"/><path d="M1182.938,792.514l-67.24,0c-9.646,0 -17.73,-8.054 -18.058,-17.988l-2.283,-69.257c-0.328,-9.934 7.226,-17.989 16.872,-17.989l67.24,0c9.645,0 17.73,8.054 18.057,17.989l2.284,69.257c0.327,9.935 -7.227,17.988 -16.872,17.988Z" style="fill:#87bac3;fill-rule:nonzero;"/><path d="M1327.875,792.514l-67.24,0c-9.646,0 -17.73,-8.054 -18.057,-17.988l-2.284,-69.257c-0.328,-9.934 7.226,-17.989 16.872,-17.989l67.24,0c9.646,0 17.73,8.054 18.057,17.989l2.284,69.257c0.327,9.935 -7.227,17.988 -16.872,17.988Z" style="fill:#87bac3;fill-rule:nonzero;"/><path d="M1472.813,792.514l-67.24,0c-9.646,0 -17.73,-8.054 -18.057,-17.988l-2.284,-69.257c-0.328,-9.934 7.226,-17.989 16.872,-17.989l67.24,0c9.646,0 17.73,8.054 18.058,17.989l2.283,69.257c0.328,9.935 -7.226,17.988 -16.872,17.988Z" style="fill:#473472;fill-rule:nonzero;"/><path d="M608.41,950.957l-67.24,0c-9.645,0 -17.73,-8.054 -18.057,-17.989l-2.284,-69.257c-0.328,-9.935 7.226,-17.989 16.872,-17.989l67.24,0c9.646,0 17.731,8.054 18.058,17.989l2.283,69.257c0.328,9.934 -7.226,17.989 -16.871,17.989Z" style="fill:#473472;fill-rule:nonzero;"/><path d="M753.348,950.957l-67.24,0c-9.646,0 -17.731,-8.054 -18.058,-17.989l-2.283,-69.257c-0.328,-9.935 7.226,-17.989 16.872,-17.989l67.24,0c9.646,0 17.731,8.054 18.058,17.989l2.283,69.257c0.328,9.934 -7.226,17.989 -16.872,17.989Z" style="fill:#87bac3;fill-rule:nonzero;"/><path d="M898.285,950.957l-67.24,0c-9.646,0 -17.731,-8.054 -18.058,-17.989l-2.283,-69.257c-0.328,-9.935 7.226,-17.989 16.872,-17.989l67.24,0c9.646,0 17.731,8.054 18.058,17.989l2.283,69.257c0.328,9.934 -7.226,17.989 -16.872,17.989Z" style="fill:#87bac3;fill-rule:nonzero;"/><path d="M1043.224,950.957l-67.24,0c-9.646,0 -17.731,-8.054 -18.058,-17.989l-2.283,-69.257c-0.328,-9.935 7.226,-17.989 16.872,-17.989l67.24,0c9.646,0 17.73,8.054 18.057,17.989l2.284,69.257c0.328,9.934 -7.226,17.989 -16.872,17.989Z" style="fill:#87bac3;fill-rule:nonzero;"/><path d="M1188.161,950.957l-67.24,0c-9.646,0 -17.73,-8.054 -18.057,-17.989l-2.284,-69.257c-0.328,-9.935 7.226,-17.989 16.872,-17.989l67.24,0c9.646,0 17.73,8.054 18.057,17.989l2.284,69.257c0.328,9.934 -7.226,17.989 -16.872,17.989Z" style="fill:#87bac3;fill-rule:nonzero;"/><path d="M1333.1,950.957l-67.24,0c-9.645,0 -17.73,-8.054 -18.057,-17.989l-2.284,-69.257c-0.328,-9.935 7.227,-17.989 16.872,-17.989l67.24,0c9.646,0 17.73,8.054 18.058,17.989l2.283,69.257c0.328,9.934 -7.226,17.989 -16.871,17.989Z" style="fill:#87bac3;fill-rule:nonzero;"/><path d="M1478.037,950.957l-67.24,0c-9.645,0 -17.73,-8.054 -18.057,-17.989l-2.284,-69.257c-0.328,-9.935 7.227,-17.989 16.872,-17.989l67.24,0c9.646,0 17.731,8.054 18.058,17.989l2.283,69.257c0.328,9.934 -7.227,17.989 -16.872,17.989Z" style="fill:#473472;fill-rule:nonzero;"/><path d="M613.634,1109.398l-67.24,0c-9.645,0 -17.731,-8.054 -18.058,-17.989l-2.283,-69.257c-0.328,-9.935 7.226,-17.989 16.872,-17.989l67.24,0c9.646,0 17.731,8.054 18.058,17.989l2.283,69.257c0.328,9.935 -7.227,17.989 -16.872,17.989Z" style="fill:#473472;fill-rule:nonzero;"/><path d="M758.572,1109.398l-67.24,0c-9.646,0 -17.731,-8.054 -18.058,-17.989l-2.283,-69.257c-0.328,-9.935 7.226,-17.989 16.872,-17.989l67.24,0c9.645,0 17.73,8.054 18.057,17.989l2.284,69.257c0.328,9.935 -7.226,17.989 -16.872,17.989Z" style="fill:#87bac3;fill-rule:nonzero;"/><path d="M903.51,1109.398l-67.24,0c-9.646,0 -17.73,-8.054 -18.058,-17.989l-2.283,-69.257c-0.328,-9.935 7.226,-17.989 16.872,-17.989l67.24,0c9.646,0 17.731,8.054 18.058,17.989l2.283,69.257c0.327,9.935 -7.227,17.989 -16.872,17.989Z" style="fill:#87bac3;fill-rule:nonzero;"/><path d="M1048.448,1109.398l-67.24,0c-9.646,0 -17.73,-8.054 -18.057,-17.989l-2.284,-69.257c-0.328,-9.935 7.226,-17.989 16.872,-17.989l67.24,0c9.646,0 17.73,8.054 18.058,17.989l2.283,69.257c0.327,9.935 -7.226,17.989 -16.872,17.989Z" style="fill:#87bac3;fill-rule:nonzero;"/><path d="M1193.386,1109.398l-67.24,0c-9.645,0 -17.73,-8.054 -18.057,-17.989l-2.284,-69.257c-0.328,-9.935 7.227,-17.989 16.872,-17.989l67.24,0c9.646,0 17.731,8.054 18.058,17.989l2.283,69.257c0.328,9.935 -7.226,17.989 -16.872,17.989Z" style="fill:#87bac3;fill-rule:nonzero;"/><g><path d="M523.161,423.324c1.454,0.849 3.543,1.557 5.69,1.557c3.185,0 4.93,-1.663 4.764,-4.068c-0.154,-2.229 -1.53,-3.502 -4.872,-4.741c-4.032,-1.38 -6.604,-3.396 -6.837,-6.757c-0.256,-3.715 2.666,-6.474 7.354,-6.474c2.47,0 4.298,0.566 5.413,1.167l-0.685,2.512c-0.816,-0.424 -2.476,-1.132 -4.658,-1.132c-3.292,0 -4.41,1.945 -4.298,3.573c0.154,2.229 1.697,3.325 5.112,4.599c4.187,1.556 6.397,3.502 6.639,7.005c0.254,3.679 -2.281,6.863 -7.972,6.863c-2.325,0 -4.913,-0.673 -6.259,-1.522l0.609,-2.582Z" style="fill:#fff;fill-rule:nonzero;"/><path d="M555.554,422.404c0.122,1.769 0.266,3.326 0.466,4.67l-2.791,0l-0.372,-2.795l-0.071,0c-0.728,1.379 -2.429,3.184 -5.506,3.184c-2.72,0 -6.079,-1.486 -6.494,-7.5l-0.691,-10.012l3.149,0l0.654,9.482c0.225,3.255 1.379,5.448 4.241,5.448c2.112,0 3.479,-1.45 3.956,-2.83c0.147,-0.46 0.215,-1.026 0.176,-1.592l-0.726,-10.507l3.149,0l0.859,12.452Z" style="fill:#fff;fill-rule:nonzero;"/><path d="M560.238,414.585c-0.122,-1.769 -0.258,-3.22 -0.463,-4.635l2.791,0l0.374,2.83l0.071,0c0.747,-1.628 2.64,-3.22 5.504,-3.22c2.398,0 6.217,1.415 6.622,7.288l0.706,10.224l-3.149,0l-0.681,-9.871c-0.19,-2.76 -1.387,-5.059 -4.358,-5.059c-2.075,0 -3.585,1.45 -4.003,3.184c-0.116,0.389 -0.152,0.921 -0.115,1.451l0.711,10.295l-3.149,0l-0.863,-12.488Z" style="fill:#fff;fill-rule:nonzero;"/></g><g><path d="M689.897,414.584c-0.061,-0.196 -0.173,-0.737 -0.34,-1.624c-0.144,-0.737 -0.268,-1.348 -0.371,-1.831c-0.065,0.576 -0.174,1.152 -0.326,1.728c-0.152,0.575 -0.354,1.163 -0.604,1.761l-5.762,13.474l-7.641,-13.75c-0.319,-0.564 -0.598,-1.111 -0.838,-1.641c-0.241,-0.529 -0.454,-1.054 -0.641,-1.572c0.024,0.53 0.019,1.085 -0.016,1.667c-0.036,0.581 -0.107,1.189 -0.215,1.822l-1.884,12.454l-3.827,0l4.226,-26.36l8.65,15.961c0.134,0.253 0.341,0.673 0.619,1.261c0.279,0.588 0.618,1.313 1.016,2.177c0.194,-0.726 0.515,-1.647 0.962,-2.764c0.119,-0.3 0.208,-0.53 0.267,-0.691l6.273,-15.944l8.004,26.36l-3.861,0l-3.692,-12.49Z" style="fill:#fff;fill-rule:nonzero;"/><path d="M698.669,418.903c-0.082,-1.197 0.069,-2.329 0.456,-3.394c0.386,-1.066 0.982,-2.012 1.786,-2.842c0.794,-0.817 1.728,-1.445 2.806,-1.883c1.076,-0.438 2.22,-0.656 3.432,-0.656c1.246,0 2.435,0.219 3.566,0.656c1.131,0.438 2.163,1.082 3.095,1.935c0.932,0.841 1.661,1.79 2.188,2.851c0.528,1.06 0.832,2.171 0.912,3.334c0.083,1.209 -0.062,2.343 -0.438,3.403c-0.376,1.06 -0.966,1.998 -1.771,2.815c-0.849,0.864 -1.811,1.518 -2.888,1.96c-1.077,0.443 -2.225,0.666 -3.449,0.666c-1.2,0 -2.368,-0.222 -3.506,-0.666c-1.137,-0.443 -2.166,-1.085 -3.086,-1.926c-0.932,-0.852 -1.663,-1.808 -2.19,-2.867c-0.528,-1.059 -0.832,-2.187 -0.915,-3.385Zm14.243,0.034c-0.105,-1.52 -0.689,-2.807 -1.752,-3.861c-1.064,-1.054 -2.311,-1.58 -3.744,-1.58c-1.422,0 -2.594,0.527 -3.516,1.58c-0.923,1.054 -1.332,2.341 -1.227,3.861c0.105,1.52 0.691,2.807 1.76,3.861c1.069,1.054 2.313,1.58 3.735,1.58c1.421,0 2.593,-0.527 3.516,-1.58c0.923,-1.054 1.333,-2.341 1.228,-3.861Z" style="fill:#fff;fill-rule:nonzero;"/><path d="M721.494,427.074l-1.13,-16.376l3.564,0l0.185,2.677c0.679,-1.128 1.514,-1.952 2.503,-2.47c0.988,-0.518 2.217,-0.778 3.685,-0.778c1.235,0 2.299,0.193 3.194,0.579c0.894,0.385 1.613,0.959 2.154,1.719c0.322,0.449 0.568,0.973 0.738,1.572c0.169,0.599 0.306,1.647 0.409,3.144l0.686,9.933l-3.827,0l-0.581,-8.412c-0.149,-2.153 -0.513,-3.585 -1.091,-4.292c-0.579,-0.708 -1.544,-1.062 -2.895,-1.062c-0.885,0 -1.663,0.161 -2.334,0.484c-0.671,0.323 -1.185,0.778 -1.54,1.365c-0.252,0.391 -0.413,0.896 -0.48,1.511c-0.069,0.616 -0.055,1.598 0.038,2.945l0.515,7.463l-3.793,0Z" style="fill:#fff;fill-rule:nonzero;"/></g><g><path d="M822.488,405.274l1.505,21.8l-4.159,0l-1.505,-21.8l-6.797,0l-0.241,-3.489l17.717,0l0.241,3.489l-6.761,0Z" style="fill:#fff;fill-rule:nonzero;"/><path d="M832.559,410.698l0.637,9.224c0.109,1.589 0.52,2.729 1.232,3.42c0.712,0.691 1.813,1.037 3.305,1.037c1.491,0 2.544,-0.345 3.16,-1.037c0.617,-0.691 0.869,-1.831 0.76,-3.42l-0.637,-9.224l3.792,0l0.559,8.101c0.216,3.133 -0.262,5.407 -1.433,6.823c-1.172,1.417 -3.15,2.125 -5.934,2.125c-2.83,0 -4.929,-0.702 -6.296,-2.107c-1.366,-1.405 -2.158,-3.685 -2.376,-6.84l-0.559,-8.101l3.791,0l0,-0.001Z" style="fill:#fff;fill-rule:nonzero;"/><path d="M866.483,419.439l-13.244,0c0.199,1.531 0.741,2.726 1.628,3.584c0.886,0.859 2.016,1.287 3.391,1.287c1.223,0 2.225,-0.253 3.006,-0.76c0.78,-0.507 1.435,-1.325 1.962,-2.453l3.319,1.762c-0.818,1.647 -1.887,2.873 -3.205,3.679c-1.319,0.806 -2.904,1.209 -4.756,1.209c-2.656,0 -4.826,-0.801 -6.509,-2.401c-1.684,-1.601 -2.617,-3.737 -2.801,-6.408c-0.177,-2.568 0.49,-4.679 2,-6.331c1.511,-1.652 3.542,-2.479 6.093,-2.479c2.667,0 4.799,0.755 6.394,2.263c1.595,1.509 2.486,3.622 2.674,6.339l0.048,0.709Zm-4.105,-2.522c-0.233,-1.175 -0.748,-2.07 -1.549,-2.686c-0.799,-0.616 -1.858,-0.925 -3.174,-0.925c-1.247,0 -2.228,0.3 -2.944,0.898c-0.716,0.599 -1.183,1.502 -1.403,2.712l9.069,0Z" style="fill:#fff;fill-rule:nonzero;"/></g><g><path d="M956.774,401.785l4.105,0l5.722,12.765c0.372,0.841 0.688,1.578 0.948,2.211c0.259,0.633 0.489,1.226 0.691,1.779c0.315,-1.336 0.65,-2.643 1.004,-3.921c0.047,-0.161 0.08,-0.27 0.1,-0.328l4.205,-13.508l6.367,13.768c0.302,0.668 0.59,1.336 0.864,2.004c0.273,0.668 0.532,1.342 0.777,2.021c0.081,-0.518 0.199,-1.088 0.354,-1.71c0.155,-0.622 0.36,-1.359 0.617,-2.211l3.916,-12.869l4.142,0l-8.093,26.273l-6.831,-14.424c-0.3,-0.645 -0.576,-1.264 -0.827,-1.857c-0.251,-0.593 -0.476,-1.154 -0.675,-1.684c-0.151,0.679 -0.304,1.316 -0.461,1.908c-0.157,0.593 -0.322,1.16 -0.494,1.701l-4.74,14.355l-11.686,-26.273Z" style="fill:#fff;fill-rule:nonzero;"/><path d="M1008.313,419.439l-13.245,0c0.2,1.531 0.742,2.726 1.628,3.584c0.886,0.859 2.017,1.287 3.391,1.287c1.223,0 2.226,-0.253 3.006,-0.76c0.78,-0.507 1.435,-1.325 1.963,-2.453l3.319,1.762c-0.818,1.647 -1.887,2.873 -3.205,3.679c-1.319,0.806 -2.904,1.209 -4.756,1.209c-2.656,0 -4.826,-0.801 -6.509,-2.401c-1.684,-1.601 -2.617,-3.737 -2.801,-6.408c-0.177,-2.568 0.49,-4.679 2,-6.331c1.512,-1.652 3.542,-2.479 6.093,-2.479c2.667,0 4.799,0.755 6.393,2.263c1.595,1.509 2.486,3.622 2.675,6.339l0.048,0.709Zm-4.107,-2.522c-0.232,-1.175 -0.748,-2.07 -1.548,-2.686c-0.799,-0.616 -1.858,-0.925 -3.174,-0.925c-1.247,0 -2.228,0.3 -2.944,0.898c-0.716,0.599 -1.183,1.502 -1.403,2.712l9.068,0Z" style="fill:#fff;fill-rule:nonzero;"/><path d="M1022.735,400.299l3.791,0l1.848,26.774l-3.791,0l-0.147,-2.125c-0.61,0.945 -1.352,1.647 -2.222,2.107c-0.87,0.461 -1.889,0.691 -3.054,0.691c-2.342,0 -4.24,-0.792 -5.695,-2.375c-1.454,-1.583 -2.277,-3.751 -2.466,-6.504c-0.18,-2.614 0.361,-4.724 1.624,-6.331c1.264,-1.607 3.002,-2.41 5.215,-2.41c1.352,0 2.527,0.279 3.527,0.838c0.999,0.559 1.755,1.362 2.271,2.41l-0.903,-13.076Zm1.384,18.535c-0.117,-1.693 -0.606,-3.011 -1.469,-3.956c-0.864,-0.944 -2.011,-1.417 -3.444,-1.417c-1.433,0 -2.526,0.487 -3.28,1.46c-0.754,0.973 -1.071,2.323 -0.952,4.051c0.121,1.739 0.608,3.081 1.466,4.025c0.857,0.944 2.009,1.417 3.453,1.417c1.374,0 2.451,-0.51 3.232,-1.529c0.78,-1.019 1.112,-2.37 0.995,-4.051Z" style="fill:#fff;fill-rule:nonzero;"/></g><g><path d="M1114.151,405.274l1.504,21.8l-4.159,0l-1.504,-21.8l-6.797,0l-0.241,-3.489l17.717,0l0.241,3.489l-6.762,0Z" style="fill:#fff;fill-rule:nonzero;"/><path d="M1125.283,427.074l-1.849,-26.774l3.564,0l0.903,13.076c0.679,-1.128 1.514,-1.952 2.503,-2.47c0.989,-0.518 2.217,-0.778 3.686,-0.778c1.234,0 2.298,0.193 3.193,0.579c0.894,0.385 1.613,0.959 2.155,1.719c0.322,0.449 0.567,0.973 0.738,1.572c0.169,0.599 0.306,1.647 0.409,3.144l0.685,9.933l-3.827,0l-0.581,-8.412c-0.149,-2.153 -0.513,-3.585 -1.091,-4.292c-0.579,-0.708 -1.545,-1.062 -2.896,-1.062c-0.885,0 -1.663,0.161 -2.333,0.484c-0.672,0.323 -1.185,0.778 -1.54,1.365c-0.252,0.391 -0.413,0.896 -0.48,1.511c-0.069,0.616 -0.056,1.598 0.038,2.945l0.515,7.463l-3.791,0l0,-0.001Z" style="fill:#fff;fill-rule:nonzero;"/><path d="M1148.858,410.698l0.637,9.224c0.11,1.589 0.521,2.729 1.232,3.42c0.712,0.691 1.813,1.037 3.305,1.037c1.491,0 2.544,-0.345 3.16,-1.037c0.617,-0.691 0.869,-1.831 0.759,-3.42l-0.637,-9.224l3.792,0l0.559,8.101c0.216,3.133 -0.262,5.407 -1.434,6.823c-1.172,1.417 -3.15,2.125 -5.934,2.125c-2.831,0 -4.929,-0.702 -6.296,-2.107c-1.366,-1.405 -2.158,-3.685 -2.376,-6.84l-0.56,-8.101l3.792,0l0,-0.001Z" style="fill:#fff;fill-rule:nonzero;"/></g><g><path d="M1253.222,427.074l-1.746,-25.289l14.275,0l0.241,3.489l-10.117,0l0.436,6.305l10.116,0l0.25,3.61l-10.117,0l0.82,11.884l-4.158,0Z" style="fill:#fff;fill-rule:nonzero;"/><path d="M1273.903,413.306c0.333,-1.083 0.816,-1.883 1.45,-2.401c0.634,-0.518 1.446,-0.778 2.436,-0.778c0.536,0 1.067,0.063 1.594,0.19c0.527,0.127 1.05,0.311 1.567,0.553l-1.143,3.179c-0.343,-0.231 -0.706,-0.4 -1.093,-0.509c-0.385,-0.109 -0.812,-0.164 -1.278,-0.164c-1.258,0 -2.126,0.498 -2.605,1.495c-0.479,0.996 -0.637,2.669 -0.475,5.018l0.496,7.186l-3.791,0l-1.133,-16.41l3.791,0l0.183,2.642Z" style="fill:#fff;fill-rule:nonzero;"/><path d="M1282.284,403.615c-0.043,-0.633 0.155,-1.18 0.595,-1.641c0.439,-0.461 0.985,-0.691 1.638,-0.691c0.675,0 1.253,0.222 1.732,0.665c0.48,0.443 0.742,0.999 0.787,1.667c0.046,0.668 -0.142,1.23 -0.565,1.684c-0.422,0.455 -0.966,0.683 -1.63,0.683c-0.652,0 -1.23,-0.233 -1.734,-0.7c-0.503,-0.465 -0.778,-1.021 -0.822,-1.667Zm2.126,23.458l-1.131,-16.376l3.792,0l1.131,16.376l-3.792,0Z" style="fill:#fff;fill-rule:nonzero;"/></g><g><path d="M1397.237,422.012l3.214,-1.52c0.392,1.129 1.029,1.99 1.908,2.582c0.88,0.593 1.972,0.89 3.277,0.89c1.234,0 2.192,-0.339 2.873,-1.019c0.681,-0.679 0.983,-1.589 0.904,-2.729c-0.103,-1.486 -1.44,-2.81 -4.014,-3.973c-0.361,-0.173 -0.638,-0.299 -0.83,-0.38c-2.913,-1.359 -4.875,-2.588 -5.889,-3.688c-1.013,-1.099 -1.576,-2.445 -1.686,-4.033c-0.142,-2.061 0.451,-3.731 1.777,-5.009c1.328,-1.278 3.137,-1.918 5.432,-1.918c1.887,0 3.491,0.36 4.81,1.079c1.319,0.72 2.269,1.753 2.853,3.101l-3.136,1.659c-0.568,-0.795 -1.17,-1.376 -1.808,-1.744c-0.637,-0.369 -1.351,-0.553 -2.143,-0.553c-1.118,0 -1.987,0.289 -2.605,0.864c-0.619,0.576 -0.894,1.347 -0.828,2.315c0.105,1.52 1.647,2.936 4.627,4.249c0.229,0.104 0.409,0.185 0.541,0.242c2.608,1.152 4.421,2.277 5.44,3.377c1.02,1.1 1.586,2.473 1.7,4.12c0.165,2.395 -0.467,4.298 -1.895,5.709c-1.429,1.411 -3.442,2.116 -6.039,2.116c-2.179,0 -3.998,-0.495 -5.458,-1.486c-1.46,-0.99 -2.47,-2.407 -3.027,-4.25Z" style="fill:#fff;fill-rule:nonzero;"/><path d="M1433.964,427.074l-3.792,0l-0.147,-2.125c-0.61,0.945 -1.352,1.647 -2.223,2.107c-0.87,0.461 -1.888,0.691 -3.053,0.691c-2.342,0 -4.24,-0.792 -5.695,-2.375c-1.454,-1.583 -2.277,-3.751 -2.466,-6.504c-0.18,-2.614 0.361,-4.724 1.624,-6.331c1.264,-1.607 3.002,-2.41 5.215,-2.41c1.352,0 2.527,0.279 3.527,0.838c1,0.559 1.757,1.362 2.272,2.41l-0.185,-2.677l3.791,0l1.131,16.376Zm-4.256,-8.24c-0.117,-1.693 -0.606,-3.011 -1.469,-3.956c-0.864,-0.944 -2.011,-1.417 -3.444,-1.417c-1.433,0 -2.527,0.487 -3.281,1.46c-0.755,0.973 -1.071,2.323 -0.952,4.051c0.121,1.739 0.609,3.081 1.466,4.025c0.857,0.944 2.008,1.417 3.453,1.417c1.363,0 2.436,-0.513 3.222,-1.537c0.785,-1.025 1.12,-2.372 1.004,-4.042Z" style="fill:#fff;fill-rule:nonzero;"/><path d="M1440.097,427.074l-0.903,-13.094l-2.901,0l-0.227,-3.282l2.901,0l-0.428,-6.201l3.792,0l0.428,6.201l2.9,0l0.227,3.282l-2.9,0l0.904,13.094l-3.792,0Z" style="fill:#fff;fill-rule:nonzero;"/></g><path d="M1062.683,602.567c-2.519,12.243 -8.192,25.248 -20.227,33.931c-15.261,11.009 -37.944,11.154 -55.162,0.353l-0.2,-0.119c-7.077,-4.201 -29.255,-20.356 -17.494,-51.871l6.413,2.393c-9.635,25.819 6.982,39.086 14.574,43.592c0.153,0.091 0.268,0.16 0.343,0.206c14.919,9.359 34.46,9.316 47.52,-0.105c19.941,-14.386 19.857,-43.368 18.896,-55.161c-0.405,-4.975 -1.154,-10.703 -3.63,-15.468c-5.294,-10.193 -18.193,-19.847 -31.368,-23.476c-13.134,-3.618 -25.022,-4.953 -35.331,-3.964c-11.747,1.126 -22.919,7.733 -28.464,16.832c-0.443,0.727 -0.889,1.45 -1.332,2.171c-6.177,10.038 -11.513,18.707 -9.896,34.139l-6.807,0.713c-1.86,-17.749 4.613,-28.267 10.873,-38.44c0.438,-0.712 0.877,-1.427 1.316,-2.146c6.628,-10.875 19.838,-18.759 33.656,-20.083c11.143,-1.068 23.862,0.337 37.803,4.178c12.57,3.463 28.46,13.13 35.625,26.92c3.035,5.844 3.916,12.413 4.377,18.067c0.498,6.105 0.76,16.42 -1.486,27.338Z" style="fill:#473472;fill-rule:nonzero;"/><ellipse cx="1389.441" cy="350.259" rx="16.778" ry="20.026" style="fill:#55427d;"/><path d="M1389.441,330.234c-1.719,0 -3.378,0.31 -4.94,0.884c6.855,2.517 11.839,10.134 11.839,19.142c0,9.008 -4.984,16.626 -11.839,19.142c1.562,0.573 3.22,0.884 4.94,0.884c9.267,0 16.778,-8.966 16.778,-20.026c-0.001,-11.06 -7.512,-20.026 -16.778,-20.026Z" style="fill:#2c1b51;fill-rule:nonzero;"/><path d="M1318.394,197.035c-48.843,0 -88.579,43.519 -88.579,97.011c0,7.482 0.791,14.763 2.264,21.762l13.594,0c-1.684,-6.943 -2.595,-14.236 -2.595,-21.762c0,-46.179 33.786,-83.749 75.317,-83.749c41.53,0 75.316,37.57 75.316,83.749c0,23.578 -8.808,44.912 -22.958,60.147c-2.521,2.715 -2.253,6.978 0.548,9.404c0.034,0.029 0.068,0.058 0.101,0.088c2.659,2.289 6.671,2.084 9.059,-0.487c16.355,-17.611 26.513,-42.106 26.513,-69.151c0,-53.492 -39.737,-97.011 -88.579,-97.011Z" style="fill:#184655;fill-rule:nonzero;"/><path d="M1372.662,350.847c0,0 0.809,11.487 8.901,17.095c8.093,5.609 -11.228,8.556 -12.211,7.573c-0.982,-0.983 -9.933,-6.768 -10.151,-12.553c-0.218,-5.785 1.638,-10.479 1.965,-11.243c0.328,-0.764 2.838,-5.239 3.493,-5.239c0.654,-0 8.003,4.366 8.003,4.366Z" style="fill:#473472;fill-rule:nonzero;"/><ellipse cx="1161.84" cy="350.259" rx="16.778" ry="20.026" style="fill:#55427d;"/><path d="M1161.84,330.234c-1.719,0 -3.378,0.31 -4.94,0.884c6.855,2.517 11.84,10.134 11.84,19.142c0,9.008 -4.984,16.626 -11.84,19.142c1.562,0.573 3.22,0.884 4.94,0.884c9.267,0 16.778,-8.966 16.778,-20.026c0,-11.06 -7.512,-20.026 -16.778,-20.026Z" style="fill:#2c1b51;fill-rule:nonzero;"/><path d="M1090.795,197.035c-48.843,0 -88.579,43.519 -88.579,97.011c0,7.482 0.791,14.763 2.264,21.762l13.594,0c-1.684,-6.943 -2.596,-14.236 -2.596,-21.762c0,-46.179 33.787,-83.749 75.317,-83.749c41.53,0 75.317,37.57 75.317,83.749c0,23.578 -8.809,44.912 -22.958,60.147c-2.522,2.715 -2.253,6.978 0.547,9.404c0.034,0.029 0.068,0.058 0.101,0.088c2.659,2.289 6.671,2.084 9.059,-0.487c16.355,-17.611 26.513,-42.106 26.513,-69.151c-0.001,-53.492 -39.737,-97.011 -88.579,-97.011Z" style="fill:#184655;fill-rule:nonzero;"/><path d="M1145.062,350.847c0,0 0.809,11.487 8.901,17.095c8.093,5.609 -11.228,8.556 -12.21,7.573c-0.983,-0.983 -9.933,-6.768 -10.152,-12.553c-0.218,-5.785 1.638,-10.479 1.965,-11.243c0.328,-0.764 2.838,-5.239 3.493,-5.239c0.655,0 8.003,4.366 8.003,4.366Z" style="fill:#473472;fill-rule:nonzero;"/><path d="M951.019,350.259c0,11.06 -7.512,20.026 -16.778,20.026c-9.267,0 -16.778,-8.966 -16.778,-20.026c0,-11.06 7.512,-20.026 16.778,-20.026c9.266,0 16.778,8.966 16.778,20.026Z" style="fill:#55427d;fill-rule:nonzero;"/><path d="M934.241,330.234c-1.719,0 -3.378,0.31 -4.94,0.884c6.855,2.517 11.839,10.134 11.839,19.142c0,9.008 -4.984,16.626 -11.839,19.142c1.562,0.573 3.22,0.884 4.94,0.884c9.266,0 16.778,-8.966 16.778,-20.026c0,-11.06 -7.512,-20.026 -16.778,-20.026Z" style="fill:#2c1b51;fill-rule:nonzero;"/><path d="M863.195,197.035c-48.843,0 -88.579,43.519 -88.579,97.011c0,7.482 0.791,14.763 2.264,21.762l13.594,0c-1.684,-6.943 -2.596,-14.236 -2.596,-21.762c0,-46.179 33.787,-83.749 75.317,-83.749c41.53,0 75.316,37.57 75.316,83.749c0,23.578 -8.808,44.912 -22.958,60.147c-2.521,2.715 -2.253,6.978 0.547,9.404c0.034,0.029 0.068,0.058 0.101,0.088c2.659,2.289 6.671,2.084 9.059,-0.487c16.355,-17.611 26.513,-42.106 26.513,-69.151c0.001,-53.492 -39.736,-97.011 -88.579,-97.011Z" style="fill:#184655;fill-rule:nonzero;"/><path d="M917.462,350.847c0,0 0.809,11.487 8.901,17.095c8.093,5.609 -11.228,8.556 -12.21,7.573c-0.983,-0.983 -9.933,-6.768 -10.151,-12.553c-0.219,-5.785 1.637,-10.479 1.964,-11.243c0.328,-0.764 2.838,-5.239 3.493,-5.239c0.655,-0 8.003,4.366 8.003,4.366Z" style="fill:#473472;fill-rule:nonzero;"/><ellipse cx="706.641" cy="350.259" rx="16.778" ry="20.026" style="fill:#55427d;"/><path d="M706.641,330.234c-1.719,0 -3.378,0.31 -4.94,0.884c6.855,2.517 11.839,10.134 11.839,19.142c0,9.008 -4.984,16.626 -11.839,19.142c1.562,0.573 3.22,0.884 4.94,0.884c9.266,0 16.778,-8.966 16.778,-20.026c0,-11.06 -7.512,-20.026 -16.778,-20.026Z" style="fill:#2c1b51;fill-rule:nonzero;"/><path d="M635.595,197.035c-48.843,0 -88.58,43.519 -88.58,97.011c0,7.482 0.791,14.763 2.264,21.762l13.594,0c-1.684,-6.943 -2.596,-14.236 -2.596,-21.762c0,-46.179 33.787,-83.749 75.318,-83.749c41.53,0 75.316,37.57 75.316,83.749c0,23.578 -8.808,44.912 -22.958,60.147c-2.521,2.715 -2.253,6.978 0.548,9.404c0.034,0.029 0.067,0.058 0.101,0.088c2.659,2.289 6.671,2.084 9.059,-0.487c16.356,-17.611 26.513,-42.106 26.513,-69.151c0,-53.492 -39.737,-97.011 -88.579,-97.011Z" style="fill:#184655;fill-rule:nonzero;"/><path d="M689.862,350.847c0,0 0.808,11.487 8.901,17.095c8.093,5.609 -11.228,8.556 -12.211,7.573c-0.983,-0.983 -9.933,-6.768 -10.151,-12.553c-0.219,-5.785 1.637,-10.479 1.964,-11.243c0.328,-0.764 2.838,-5.239 3.493,-5.239c0.656,-0 8.004,4.366 8.004,4.366Z" style="fill:#473472;fill-rule:nonzero;"/><path d="M1536.063,1126.494l-1.061,-46.194l-50.476,9.855c0,0 -150.307,17.465 -150.962,17.465c-0.655,0 -145.122,42.352 -145.122,42.352l-18.049,3.057l340.199,0c14.404,0 25.808,-11.88 25.471,-26.536Z" style="fill:#f7cc7f;fill-rule:nonzero;"/><path d="M1170.393,1153.03c0,0 120.027,-26.21 214.828,-190.585c0,0 46.498,126.729 149.78,117.856c0,0 -138.422,64.396 -364.609,72.729Z" style="fill:#fae0b2;fill-rule:nonzero;"/><path d="M722.44,509.469c-3.137,-0.238 -6.262,-0.612 -9.345,-1.237c-3.485,-0.706 -7.955,-1.435 -10.598,-1.182c-5.563,0.533 -14.622,3.412 -18.31,10.19c-4.595,8.445 -17.259,5.687 -5.917,40.944c12.839,39.908 34.338,29.724 34.714,28.898c0.375,-0.826 13.608,-31.059 13.608,-31.059c0,0 10.655,13.225 10.516,12.676c-0.133,-0.53 23.018,-56.373 -14.667,-59.231Z" style="fill:#0e2e35;fill-rule:nonzero;"/><path d="M731.19,655.357c4.289,-3.487 37.453,11.065 37.033,16.131c-0.42,5.066 23.142,54.177 23.142,54.177l40.719,-32.468l0.016,0.011c0.36,-1.174 4.22,-13.802 4.408,-16.061c0.197,-2.37 7.077,-6.516 10.273,-5.905c3.196,0.61 -2.733,4.619 -3.122,5.355c-1.059,2.003 3.037,2.755 3.037,2.755c0,0 11.765,-6.457 12.015,-10.255c0.25,-3.798 2.679,-11.757 5.22,-10.091c1.312,0.859 1.299,6.506 0.89,9.185c0.756,-3.041 1.826,-6.476 2.868,-6.816c1.904,-0.622 2.85,1.798 2.504,2.987c-0.346,1.189 -3.419,14.102 -4.353,15.555c-0.913,1.42 -19.912,16.728 -22.65,20.05c0,0 -52.669,60.209 -56.419,61.785c-3.29,1.382 -15.022,-19.367 -26.106,-33.142c-11.084,-13.775 -42.877,-62.358 -29.476,-73.254Z" style="fill:#f7a491;fill-rule:nonzero;"/><path d="M624.918,1098.076c0,0 -7.237,7.062 -7.401,9.654c-0.164,2.592 -0.641,30.356 2.314,32.948c2.954,2.592 11.633,4.43 8.843,7.345c-2.109,2.204 -18.332,1.732 -29.084,1.14c-3.139,-0.173 -7.075,-25.215 -8.318,-28.896c-1.806,-5.345 -6.196,-17.386 -4.555,-21.112c0.8,-1.816 4.627,-5.547 10.018,-9.029c5.671,-3.662 11.097,-11.818 11.097,-11.818l17.087,19.768Z" style="fill:#f48c7f;fill-rule:nonzero;"/><path d="M699.89,1114.521c0,0 -6.477,18.297 -6.485,18.343c-0.482,2.899 -2.378,10.061 -2.378,12.696c0,9.9 44.646,-8.403 34.64,-12.79c-0.906,-0.397 -3.748,-3.569 -4.045,-6.938c-0.459,-5.192 3.761,-11.703 3.761,-11.703l-25.494,0.392Z" style="fill:#f7a491;fill-rule:nonzero;"/><g><path d="M769.929,773.816c0,0 3.255,32.8 3.255,33.289c0,53.059 10.518,156.701 8.518,166.676c-4.88,24.331 -57.398,148.451 -57.398,148.451l-28.385,-3.392l36.989,-148.607l-13.611,-59.814l-19.261,-118.236l69.895,-18.367Z" style="fill:#355389;fill-rule:nonzero;"/><path d="M674.665,802.828l-5.386,31.088l-14.572,127.944l-55.496,125.047c0,0 7.807,18.195 19.323,20.751l88.326,-128.385l54.866,-164.279l-1.926,-36.497l-85.135,24.331Z" style="fill:#466eb6;fill-rule:nonzero;"/></g><path d="M781.249,695.72l-39.36,4.018c0,0 -1.806,-32.268 -1.806,-47.66c0,-18.674 1.59,-42.726 3.845,-42.209c6.329,1.453 14.854,4.947 19.928,11.92c17.56,24.128 17.392,73.931 17.392,73.931Z" style="fill:#3c8f7c;fill-rule:nonzero;"/><path d="M761.913,648.784c0.824,5.694 15.955,160.479 15.955,160.479c-71.667,34.613 -111.212,6.165 -111.212,6.165c0,0 2.345,-108.692 -0.466,-123.486c-1.86,-9.788 -4.178,-74.829 2.165,-76.65c8.139,-2.337 17.472,-4.82 27.645,-5.876c8.683,-0.901 42.415,-1.423 48.449,0.604c0,0 13.996,14.822 17.464,38.765Z" style="fill:#96d9c9;fill-rule:nonzero;"/><path d="M597.085,1089.951c0,0 16.68,46.966 23.209,49.233c1.734,0.602 10.053,2.129 11.623,5.809c0.472,1.108 0,4.81 0,4.81l-34.768,0c0,0 -4.398,-20.693 -6.136,-29.785c0,0 -9.203,-22.216 -8.181,-24.234c1.022,-2.018 14.253,-5.832 14.253,-5.832Z" style="fill:#184655;fill-rule:nonzero;"/><path d="M688.488,1148.827l5.113,-16.151c0,0 10.737,4.543 16.106,3.786c5.369,-0.757 15.85,-3.786 15.85,-3.786c21.429,7.054 38.984,10.476 35.791,16.151l-72.859,0Z" style="fill:#184655;fill-rule:nonzero;"/><g><path d="M786.772,761.753c0.162,-0.069 0.745,-0.527 1.081,-0.803c-1.274,-15.165 -1.044,-29.859 3.715,-34.827c-0.114,-0.238 -1.154,-2.449 -2.241,-4.743c-5.516,4.267 -8.136,15.6 -7.108,33.997c0.071,1.266 0.434,2.231 0.727,3.809c1.597,1.757 3.049,2.892 3.825,2.566Z" style="fill:#f7a491;fill-rule:nonzero;"/></g><path d="M724.914,593.505l2.115,15.69c0,0 4.737,22.604 -1.357,26.962c-6.095,4.358 -25.919,-27.606 -25.919,-27.606l2.094,-39.756l23.068,24.711Z" style="fill:#f7a491;fill-rule:nonzero;"/><path d="M701.171,581.678c5.034,13.56 17.026,21.896 25.537,25.129l-1.793,-13.302l-23.068,-24.711l-0.676,12.885Z" style="fill:#f47458;fill-rule:nonzero;"/><g><path d="M891.449,649.092l64.963,-98.758l-111.564,39.072l-14.86,43l61.461,16.686Z" style="fill:#f2e9da;fill-rule:nonzero;"/><path d="M829.988,632.406l15.811,4.292l110.612,-86.365l-111.564,39.072l-14.86,43Z" style="fill:#e0d5c3;fill-rule:nonzero;"/><path d="M844.848,589.407l28.877,-10.114l-15.738,26.942l-354.411,276.719l-2.42,-25.198l343.692,-268.349Z" style="fill:#e8ba70;fill-rule:nonzero;"/><path d="M857.987,606.234l33.007,-4.824l-12.684,30.853l-354.411,276.718l-20.323,-26.029l354.411,-276.719Z" style="fill:#f7cc7f;fill-rule:nonzero;"/><path d="M878.31,632.264l29.954,-8.735l-16.815,25.562l-343.692,268.349l-23.858,-8.458l354.411,-276.718Z" style="fill:#fae0b2;fill-rule:nonzero;"/><path d="M529.656,862.588l20.322,26.029l-26.098,20.377l-20.322,-26.029l26.098,-20.377Z" style="fill:#50bfa5;"/><path d="M549.997,888.605l-26.099,20.377l23.858,8.458l15.379,-12.008l-13.139,-16.828Z" style="fill:#96d9c9;fill-rule:nonzero;"/><path d="M516.535,845.747l-15.379,12.008l2.42,25.198l26.099,-20.377l-13.139,-16.829Z" style="fill:#3c8f7c;fill-rule:nonzero;"/><path d="M550.005,888.622l30.758,-24.015l13.139,16.828l-30.758,24.015l-13.139,-16.828Z" style="fill:#fef8f8;"/><path d="M516.543,845.764l30.758,-24.015l13.139,16.828l-30.758,24.015l-13.139,-16.828Z" style="fill:#eddfca;"/><path d="M529.677,862.591l30.758,-24.015l20.323,26.029l-30.758,24.015l-20.323,-26.029Z" style="fill:#f2e9da;"/><path d="M934.364,583.851c0.223,-0.338 22.047,-33.517 22.047,-33.517l-37.863,13.26l13.457,5.795l2.359,14.462Z" style="fill:#473472;fill-rule:nonzero;"/><path d="M932.005,569.39l24.407,-19.056l-37.863,13.261l13.457,5.795Z" style="fill:#2c1b51;fill-rule:nonzero;"/></g><path d="M595.676,810.903c-0.044,-0.331 -0.051,-0.664 -0.018,-0.997c1.056,-10.719 9.956,-100.731 11.455,-104.557c1.354,-3.455 41.269,-60.545 41.269,-60.545l19.619,26.729l-38.388,51.205c-0.861,3.254 -14.711,64.017 -14.711,64.017c0,0 -2.839,11.076 -4.111,17.71c0.58,1.598 1.149,3.108 1.653,4.347c1.272,2.648 2.773,4.82 4.136,6.648c1.716,2.3 4.553,7.325 4.902,8.669c0.407,1.563 1.139,4.812 1.554,6.772c0.415,1.962 0.983,4.244 1.079,5.309c0.058,0.647 0.726,1.939 1.24,2.851c0.766,1.359 -0.541,2.963 -2.022,2.471c-1.395,-0.463 -2.481,-2.268 -3.15,-3.394c-1.889,-3.175 -2.896,-8.973 -3.366,-8.665c-0.47,0.306 -2.125,10.143 -2.387,11.255c-0.262,1.112 -2.248,12.534 -3.368,14.622c-1.12,2.088 -2.604,1.739 -2.996,0.431c-0.339,-1.125 1.237,-17.107 1.237,-17.107c0,0 0.196,-2.039 -0.697,-1.402c-0.893,0.637 -2.352,15.144 -2.973,17.267c-0.621,2.123 -2.036,3.249 -3.237,1.543c-1.461,-2.076 1.052,-17.464 1.052,-17.464c0,0 0.281,-1.935 -0.545,-1.755c-0.826,0.18 -1.862,12.545 -2.505,13.614c-0.643,1.069 -2.266,1.453 -3.04,-0.33c-0.911,-2.099 1.45,-15.818 1.45,-15.818c0,0 -0.116,-1.092 -0.631,-0.729c-0.515,0.362 -2.152,10.839 -3.218,11.81c-0.895,0.814 -1.641,0.024 -1.641,0.024c-1.956,-1.334 1.043,-11.301 1.013,-16.257c-0.029,-4.955 2.269,-10.524 1.583,-16.424c-0.042,-0.37 -0.163,-1.279 -0.239,-1.851Z" style="fill:#f8a492;fill-rule:nonzero;"/><path d="M617.197,680.962l34.097,22.892c0,0 19.218,-28.597 29.534,-38.778c12.923,-12.754 -4.707,-51.824 -13.034,-49.613c-18.624,4.945 -50.597,65.499 -50.597,65.499Z" style="fill:#3c8f7c;fill-rule:nonzero;"/><path d="M706.865,525.006c11.443,-4.942 24.564,1.909 27.282,13.886c1.181,5.206 2.391,11.773 3.075,19.002c1.645,17.386 -6.076,35.018 -13.982,35.621c-7.906,0.603 -30.615,-9.001 -33.291,-33.657c-1.653,-15.223 4.909,-29.666 16.916,-34.852Z" style="fill:#f7a491;fill-rule:nonzero;"/><path d="M695.923,561.368c0.293,3.84 -2.016,7.148 -5.156,7.388c-3.141,0.239 -5.924,-2.68 -6.217,-6.52c-0.293,-3.84 2.016,-7.148 5.156,-7.388c3.141,-0.239 5.924,2.679 6.217,6.52Z" style="fill:#f7a491;fill-rule:nonzero;"/><path d="M689.705,554.847c0,0 9.73,-0.053 11.641,-6.782c1.911,-6.73 10.852,-22.472 27.627,-21.134c16.774,1.338 -16.826,-9.324 -18.061,-9.011c-1.236,0.313 -16.088,3.966 -16.088,3.966c0,0 -9.055,12.265 -9.206,13.399c-0.151,1.134 -0.603,13.192 -0.603,13.192l4.69,6.37Z" style="fill:#0e2e35;fill-rule:nonzero;"/><path d="M730.289,571.688l-16.241,1.291c0,0 0.865,6.138 8.023,5.777c8.728,-0.44 8.218,-7.068 8.218,-7.068Z" style="fill:#fff;fill-rule:nonzero;"/></g></g></svg>