<?xml version="1.0" encoding="UTF-8" standalone="no"?><!DOCTYPE svg PUBLIC "-//W3C//DTD SVG 1.1//EN" "http://www.w3.org/Graphics/SVG/1.1/DTD/svg11.dtd"><svg width="100%" height="100%" viewBox="0 0 2327 1552" version="1.1" xmlns="http://www.w3.org/2000/svg" xmlns:xlink="http://www.w3.org/1999/xlink" xml:space="preserve" xmlns:serif="http://www.serif.com/" style="fill-rule:evenodd;clip-rule:evenodd;stroke-linejoin:round;stroke-miterlimit:2;"><clipPath id="_clip1"><rect x="0" y="0" width="2326.935" height="1551.29"/></clipPath><g clip-path="url(#_clip1)"><path d="M1857.502,251.722c-11.492,41.559 -8.225,88.717 -6.778,130.809c1.786,51.987 12.242,104.23 32.841,152.087c37.901,88.058 111.632,162.53 203.312,190.556c44.076,13.474 93.49,15.723 134.977,-4.355c40.41,-19.557 69.224,-58.716 82.787,-101.511c17.451,-55.061 8.945,-121.25 -32.949,-161.012c-44.98,-42.692 -118.039,-47.93 -158.101,-95.267c-19.501,-23.043 -28.342,-53.035 -43.101,-79.368c-18.19,-32.454 -45.845,-59.529 -78.677,-77.03c-29.642,-15.799 -75.769,-25.826 -105.344,-4.433c-11.384,8.234 -18.78,20.933 -23.858,34.033c-1.962,5.06 -3.653,10.23 -5.108,15.49Z" style="fill:#f5df00;fill-rule:nonzero;"/><path d="M248.762,918.889c43.115,0.553 87.895,-14.59 128.237,-26.687c49.827,-14.939 97.697,-38.328 138.748,-70.413c75.535,-59.035 128.825,-149.27 132.632,-245.063c1.83,-46.053 -8.552,-94.416 -38.514,-129.439c-29.184,-34.113 -74.38,-52.03 -119.217,-54.272c-57.688,-2.885 -119.542,22.161 -147.353,72.785c-29.86,54.353 -16.359,126.345 -51.961,177.12c-17.331,24.717 -44.091,40.889 -65.809,61.856c-26.766,25.841 -45.924,59.468 -54.507,95.67c-7.748,32.684 -5.722,79.845 22.484,103.012c10.857,8.918 25.018,12.844 38.979,14.426c5.392,0.612 10.823,0.934 16.28,1.004Z" style="fill:#f5df00;fill-rule:nonzero;"/><g><path id="XMLID_66_" d="M46.738,1551.29l2187.497,0c37.573,-97.162 78.506,-197.423 89.664,-300.998c11.157,-103.574 -7.4,-214.539 -72.721,-295.689c-59.748,-74.227 -150.298,-115.1 -228.623,-169.364c-78.594,-54.451 -146.567,-124.172 -199.005,-204.123c-62.14,-94.744 -102.839,-203.766 -176.532,-289.83c-57.284,-66.9 -132.307,-116.929 -212.162,-154.082c-154.133,-71.712 -350.191,-92.056 -484.278,12.442c-73.392,57.196 -118.169,144.268 -144.566,233.493c-26.397,89.224 -36.516,182.31 -54.01,273.698c-27.108,141.599 -88.595,297.784 -224.334,346.367c-114.938,41.138 -250.033,-9.236 -361.049,41.543c-47.518,21.735 -85.679,60.391 -114.928,103.69c-78.718,116.526 -56.932,272.189 -4.951,402.853Z" style="fill:#f5df00;fill-rule:nonzero;"/></g><g><path d="M424.348,913.07c-6.958,1.847 -213.121,172.259 -213.121,172.259l27.878,185.932l455.685,-68.324l-27.878,-185.932c0,0.001 -235.605,-105.782 -242.563,-103.935Z" style="fill:#9974e0;fill-rule:nonzero;"/><g><path d="M626.072,1215.974l-332.568,49.864c-7.032,1.055 -13.587,-3.791 -14.642,-10.823l-40.791,-272.056c-1.055,-7.032 3.791,-13.587 10.823,-14.642l332.568,-49.865c7.032,-1.055 13.587,3.791 14.642,10.823l40.791,272.056c1.055,7.034 -3.791,13.589 -10.823,14.643Z" style="fill:#b6d5e2;fill-rule:nonzero;"/><g><path d="M566.104,986.797l-282.481,42.354c-1.449,0.218 -2.8,-0.781 -3.018,-2.231l-1.655,-11.037c-0.218,-1.449 0.781,-2.8 2.231,-3.018l282.481,-42.354c1.449,-0.218 2.8,0.781 3.018,2.231l1.655,11.037c0.217,1.449 -0.781,2.8 -2.231,3.018Z" style="fill:#fff;fill-rule:nonzero;"/><path d="M570.366,1015.229l-282.481,42.354c-1.449,0.218 -2.8,-0.781 -3.018,-2.231l-1.655,-11.037c-0.218,-1.449 0.781,-2.8 2.231,-3.018l282.481,-42.354c1.449,-0.218 2.8,0.781 3.018,2.231l1.655,11.037c0.218,1.449 -0.781,2.8 -2.231,3.018Z" style="fill:#fff;fill-rule:nonzero;"/><path d="M574.629,1043.661l-282.481,42.354c-1.449,0.218 -2.8,-0.781 -3.018,-2.231l-1.655,-11.037c-0.218,-1.449 0.781,-2.8 2.231,-3.018l282.481,-42.354c1.449,-0.218 2.8,0.781 3.018,2.231l1.655,11.037c0.218,1.45 -0.781,2.801 -2.231,3.018Z" style="fill:#fff;fill-rule:nonzero;"/><path d="M578.892,1072.095l-282.481,42.354c-1.449,0.218 -2.8,-0.781 -3.018,-2.231l-1.655,-11.037c-0.218,-1.449 0.781,-2.8 2.231,-3.018l282.481,-42.354c1.449,-0.218 2.8,0.781 3.018,2.231l1.655,11.037c0.218,1.449 -0.78,2.8 -2.231,3.018Z" style="fill:#fff;fill-rule:nonzero;"/><path d="M583.156,1100.527l-282.481,42.354c-1.449,0.218 -2.8,-0.781 -3.018,-2.231l-1.655,-11.037c-0.218,-1.449 0.781,-2.8 2.231,-3.018l282.481,-42.354c1.449,-0.218 2.8,0.781 3.018,2.231l1.655,11.037c0.217,1.449 -0.781,2.8 -2.231,3.018Z" style="fill:#fff;fill-rule:nonzero;"/><path d="M587.419,1128.959l-282.481,42.354c-1.449,0.218 -2.8,-0.781 -3.018,-2.231l-1.655,-11.037c-0.218,-1.449 0.781,-2.8 2.231,-3.018l282.481,-42.354c1.449,-0.218 2.8,0.781 3.018,2.231l1.655,11.037c0.218,1.45 -0.781,2.801 -2.231,3.018Z" style="fill:#fff;fill-rule:nonzero;"/></g><g><path d="M215.218,1111.95c0,0 223.481,100.975 242.966,95.145c19.485,-5.83 212.719,-163.468 212.719,-163.468l44.139,294.383c0.882,5.885 -3.173,11.37 -9.057,12.253l-434.376,65.129c-5.885,0.882 -11.37,-3.173 -12.253,-9.057l-44.138,-294.384Z" style="fill:#cdb6ff;fill-rule:nonzero;"/><g><path d="M367.164,1280.56l-99.527,14.923c-1.348,0.202 -2.604,-0.727 -2.806,-2.074l-4.249,-28.34c-0.202,-1.348 0.727,-2.604 2.074,-2.806l99.527,-14.923c1.348,-0.202 2.604,0.727 2.806,2.074l4.249,28.34c0.202,1.348 -0.726,2.604 -2.074,2.806Z" style="fill:#9974e0;fill-rule:nonzero;"/><g><path d="M671.35,1213.965l-150.413,22.552c-0.92,0.138 -1.779,-0.496 -1.917,-1.417l-1.403,-9.362c-0.138,-0.92 0.496,-1.779 1.416,-1.917l150.413,-22.552c0.92,-0.138 1.779,0.496 1.917,1.416l1.403,9.362c0.139,0.921 -0.496,1.78 -1.416,1.918Z" style="fill:#dec5ff;fill-rule:nonzero;"/><path d="M674.108,1232.36l-150.413,22.552c-0.92,0.138 -1.779,-0.496 -1.917,-1.417l-1.403,-9.362c-0.138,-0.92 0.497,-1.779 1.417,-1.917l150.413,-22.552c0.92,-0.138 1.779,0.496 1.917,1.417l1.403,9.362c0.137,0.92 -0.497,1.779 -1.417,1.917Z" style="fill:#d9f1ff;fill-rule:nonzero;"/><path d="M676.866,1250.754l-150.413,22.552c-0.92,0.138 -1.779,-0.496 -1.917,-1.417l-1.403,-9.362c-0.138,-0.92 0.497,-1.779 1.417,-1.917l150.413,-22.552c0.92,-0.138 1.779,0.496 1.917,1.417l1.403,9.362c0.137,0.92 -0.498,1.778 -1.417,1.917Z" style="fill:#d9f1ff;fill-rule:nonzero;"/><path d="M679.624,1269.147l-150.413,22.552c-0.92,0.138 -1.779,-0.496 -1.917,-1.417l-1.403,-9.362c-0.138,-0.92 0.496,-1.779 1.416,-1.917l150.413,-22.552c0.92,-0.138 1.779,0.496 1.917,1.416l1.403,9.362c0.139,0.922 -0.496,1.78 -1.416,1.918Z" style="fill:#d9f1ff;fill-rule:nonzero;"/></g></g></g></g></g><g><g><g><path d="M1847.935,1551.29l-686.14,0c-15.908,0 -28.805,-12.896 -28.805,-28.805l0,-1218.388c0,-15.909 12.896,-28.805 28.805,-28.805l686.14,0c15.908,0 28.805,12.896 28.805,28.805l0,1218.388c0,15.909 -12.896,28.805 -28.805,28.805Z" style="fill:#9974e0;fill-rule:nonzero;"/><g><path id="XMLID_64_" d="M1779.352,1433.364l-575.247,0c-13.338,0 -24.15,-10.812 -24.15,-24.15l0,-1021.474c0,-13.338 10.812,-24.15 24.15,-24.15l575.247,0c13.338,0 24.15,10.812 24.15,24.15l0,1021.474c0,13.338 -10.812,24.15 -24.15,24.15Z" style="fill:#fff;fill-rule:nonzero;"/><clipPath id="_clip2"><path d="M1779.352,1433.364l-575.247,0c-13.338,0 -24.15,-10.812 -24.15,-24.15l0,-1021.474c0,-13.338 10.812,-24.15 24.15,-24.15l575.247,0c13.338,0 24.15,10.812 24.15,24.15l0,1021.474c0,13.338 -10.812,24.15 -24.15,24.15Z"/></clipPath><g clip-path="url(#_clip2)"><path d="M1901.339,898.478c0,0 -77.361,-125.988 -265.062,-15.331c-187.701,110.657 -650.474,395.425 -650.474,395.425l0,170.042l931.925,0l-16.389,-550.137Z" style="fill:#dec5ff;fill-rule:nonzero;"/></g></g></g><g><g><circle cx="1618.695" cy="424.846" r="17.582" style="fill:#fbf8ff;"/><circle cx="1678.767" cy="424.846" r="17.582" style="fill:#fbf8ff;"/><circle cx="1738.839" cy="424.846" r="17.582" style="fill:#fbf8ff;"/></g><g><circle cx="1618.695" cy="489.197" r="17.582" style="fill:#fbf8ff;"/><circle cx="1678.767" cy="489.197" r="17.582" style="fill:#fbf8ff;"/><circle cx="1738.839" cy="489.197" r="17.582" style="fill:#fbf8ff;"/></g><g><path d="M1612.019,537.288c8.965,-3.714 19.259,0.55 22.972,9.515c3.714,8.965 -0.55,19.259 -9.515,22.972c-8.965,3.714 -19.259,-0.55 -22.972,-9.515c-3.714,-8.965 0.55,-19.259 9.515,-22.972Z" style="fill:#fbf8ff;"/><path d="M1672.092,537.287c8.965,-3.714 19.259,0.55 22.972,9.515c3.714,8.965 -0.55,19.259 -9.515,22.972c-8.965,3.714 -19.259,-0.55 -22.972,-9.515c-3.714,-8.965 0.55,-19.259 9.515,-22.972Z" style="fill:#fbf8ff;"/><path d="M1721.787,549.644c2.23,-9.444 11.707,-15.3 21.151,-13.07c9.444,2.23 15.3,11.707 13.07,21.151c-2.23,9.444 -11.707,15.3 -21.151,13.07c-9.444,-2.23 -15.3,-11.707 -13.07,-21.151Z" style="fill:#fbf8ff;"/></g><g><circle cx="1618.695" cy="617.899" r="17.582" style="fill:#fbf8ff;"/><circle cx="1678.767" cy="617.899" r="17.582" style="fill:#fbf8ff;"/><circle cx="1738.839" cy="617.899" r="17.582" style="fill:#fbf8ff;"/></g><g><circle cx="1618.695" cy="682.25" r="17.582" style="fill:#fbf8ff;"/><circle cx="1678.767" cy="682.25" r="17.582" style="fill:#fbf8ff;"/><circle cx="1738.839" cy="682.25" r="17.582" style="fill:#fbf8ff;"/></g></g></g><g><path d="M1610.071,1516.199l-137.924,0c-12.257,0 -22.193,-9.936 -22.193,-22.193l0,-12.333c0,-12.257 9.936,-22.193 22.193,-22.193l137.924,0c12.257,0 22.193,9.936 22.193,22.193l0,12.333c-0,12.257 -9.936,22.193 -22.193,22.193Z" style="fill:#473472;fill-rule:nonzero;"/><g><g><path id="XMLID_63_" d="M1069.919,1204.644c0,0 4.278,277.373 91.876,346.646l214.582,0c0,0 35.851,-260.187 -62.889,-330.243l-243.568,-16.403Z" style="fill:#473472;fill-rule:nonzero;"/><clipPath id="_clip3"><path d="M1069.919,1204.644c0,0 4.278,277.373 91.876,346.646l214.582,0c0,0 35.851,-260.187 -62.889,-330.243l-243.568,-16.403Z"/></clipPath><g clip-path="url(#_clip3)"><path d="M1187.275,1566.869c0,-4.17 -27.106,-265.84 -38.573,-276.264c-11.468,-10.425 -8.34,275.221 5.212,278.349c13.553,3.128 33.361,-2.085 33.361,-2.085Z" style="fill:#251459;fill-rule:nonzero;"/></g></g><g><g><path id="XMLID_62_" d="M1174.343,739.53c0,0 -157.634,86.284 -206.754,121.621c-88.646,63.771 10.813,-189.046 -5.026,-199.856c-15.84,-10.81 -129.258,-12.236 -146.096,18.468c-16.837,30.704 -65.248,345.975 50.634,338.052c115.882,-7.924 237.176,-63.562 237.176,-63.562c0,0 98.839,-165.966 70.066,-214.723Z" style="fill:#87bac3;fill-rule:nonzero;"/><clipPath id="_clip4"><path d="M1174.343,739.53c0,0 -157.634,86.284 -206.754,121.621c-88.646,63.771 10.813,-189.046 -5.026,-199.856c-15.84,-10.81 -129.258,-12.236 -146.096,18.468c-16.837,30.704 -65.248,345.975 50.634,338.052c115.882,-7.924 237.176,-63.562 237.176,-63.562c0,0 98.839,-165.966 70.066,-214.723Z"/></clipPath><g clip-path="url(#_clip4)"><path d="M974.474,856.344c0,0 -81.199,84.138 -81.199,68.916c0,-15.222 38.792,-103.632 38.792,-103.632c0,0 11.441,44.316 42.407,34.716" style="fill:#42778a;fill-rule:nonzero;"/></g><clipPath id="_clip5"><path d="M1174.343,739.53c0,0 -157.634,86.284 -206.754,121.621c-88.646,63.771 10.813,-189.046 -5.026,-199.856c-15.84,-10.81 -129.258,-12.236 -146.096,18.468c-16.837,30.704 -65.248,345.975 50.634,338.052c115.882,-7.924 237.176,-63.562 237.176,-63.562c0,0 98.839,-165.966 70.066,-214.723Z"/></clipPath><g clip-path="url(#_clip5)"><path d="M857.557,654.279c0,0 -17.752,43.164 -6.39,54.526c11.361,11.361 69.528,23.432 78.788,18.461c9.259,-4.97 28.431,-72.987 28.431,-72.987c0,0 -72.426,-9.792 -100.829,0Z" style="fill:#42778a;fill-rule:nonzero;"/></g></g><g><path id="XMLID_61_" d="M1295.22,712.557c0,0 124.141,108.856 116.686,178.94c-7.456,70.085 -74.559,317.619 -98.418,329.548c-23.858,11.929 -218.727,29.823 -243.569,-16.403c-24.842,-46.226 -2.474,-356.39 30.331,-407.09c32.806,-50.7 99.95,-67.093 99.95,-67.093l95.02,-17.903Z" style="fill:#87bac3;fill-rule:nonzero;"/><clipPath id="_clip6"><path d="M1295.22,712.557c0,0 124.141,108.856 116.686,178.94c-7.456,70.085 -74.559,317.619 -98.418,329.548c-23.858,11.929 -218.727,29.823 -243.569,-16.403c-24.842,-46.226 -2.474,-356.39 30.331,-407.09c32.806,-50.7 99.95,-67.093 99.95,-67.093l95.02,-17.903Z"/></clipPath><g clip-path="url(#_clip6)"><path d="M1054.445,984.389c0,0 133.355,62.338 336.013,39.237l-4.201,38.851c0,0 -273.01,20.259 -343.363,-45.522l11.55,-32.566Z" style="fill:#fff;fill-rule:nonzero;"/></g><clipPath id="_clip7"><path d="M1295.22,712.557c0,0 124.141,108.856 116.686,178.94c-7.456,70.085 -74.559,317.619 -98.418,329.548c-23.858,11.929 -218.727,29.823 -243.569,-16.403c-24.842,-46.226 -2.474,-356.39 30.331,-407.09c32.806,-50.7 99.95,-67.093 99.95,-67.093l95.02,-17.903Z"/></clipPath><g clip-path="url(#_clip7)"><path d="M1047.178,1063.071c0,0 129.381,46.852 278.699,35.748l-8.495,30.214c0,0 -197.649,17.137 -275.338,-37.702l5.135,-28.259Z" style="fill:#fff;fill-rule:nonzero;"/></g></g><path d="M1066.553,969.73c0,0 7.49,-78.735 30.441,-138.294c0,0 -62.238,58.444 -71.869,152.952c0,0 20.939,-7.659 41.428,-14.658Z" style="fill:#42778a;fill-rule:nonzero;"/><path d="M1186.691,751.345c0,0 -1.259,11.046 2.644,11.81c3.902,0.764 50.711,-1.898 97.376,-23.623l9.428,5.711c0,0 -64.262,34.099 -100.33,29.788c-36.069,-4.311 -9.117,-23.685 -9.117,-23.685Z" style="fill:#fff;fill-rule:nonzero;"/><g><g><path id="XMLID_60_" d="M1219.569,464.919c-11.89,1.505 -23.886,3.032 -35.193,7.005c-11.307,3.972 -22.026,10.634 -28.764,20.545c-9.801,14.419 -9.906,33.383 -17.623,49.017c-9.563,19.372 -29.747,31.667 -40.026,50.669c-5.732,10.596 -8.065,23.141 -5.728,34.96c3.191,16.145 14.738,29.705 28.546,38.662c13.808,8.955 29.803,13.871 45.713,18.08c31.89,8.436 64.416,14.471 97.211,18.035c12.13,-27.27 21.598,-55.645 29.603,-84.398c9.886,-35.506 16.385,-74.132 3.402,-108.626c-3.447,-9.159 -8.302,-17.929 -15.236,-24.835c-15.06,-14.997 -40.821,-21.78 -61.906,-19.113Z" style="fill:#473472;fill-rule:nonzero;"/><clipPath id="_clip8"><path d="M1219.569,464.919c-11.89,1.505 -23.886,3.032 -35.193,7.005c-11.307,3.972 -22.026,10.634 -28.764,20.545c-9.801,14.419 -9.906,33.383 -17.623,49.017c-9.563,19.372 -29.747,31.667 -40.026,50.669c-5.732,10.596 -8.065,23.141 -5.728,34.96c3.191,16.145 14.738,29.705 28.546,38.662c13.808,8.955 29.803,13.871 45.713,18.08c31.89,8.436 64.416,14.471 97.211,18.035c12.13,-27.27 21.598,-55.645 29.603,-84.398c9.886,-35.506 16.385,-74.132 3.402,-108.626c-3.447,-9.159 -8.302,-17.929 -15.236,-24.835c-15.06,-14.997 -40.821,-21.78 -61.906,-19.113Z"/></clipPath><g clip-path="url(#_clip8)"><path d="M1158.826,511.373c0,0 -68.525,119.438 -25.836,152.411c42.689,32.974 86.647,-6.095 86.647,-6.095l6.457,-150.684l-67.268,4.368Z" style="fill:#1c056d;fill-opacity:0.24;fill-rule:nonzero;"/></g></g><g><path id="XMLID_59_" d="M1304.252,514.375c-8.607,-16.202 -47.7,-40.447 -83.294,-41.542c-20.065,-0.617 -38.436,11.235 -46.795,29.487c-18.918,41.309 -60.044,139.564 -31.24,155.683c12.824,7.177 29.704,7.449 46.71,4.08c-2.637,27.087 -3.29,89.93 -2.787,98.464c0.706,11.993 84.344,-9.728 99.866,-21.017c15.521,-11.289 -26.134,-113.099 -26.134,-113.099c11.27,-16.253 55.65,-89.514 43.674,-112.056Z" style="fill:#fe8e9c;fill-rule:nonzero;"/><clipPath id="_clip9"><path d="M1304.252,514.375c-8.607,-16.202 -47.7,-40.447 -83.294,-41.542c-20.065,-0.617 -38.436,11.235 -46.795,29.487c-18.918,41.309 -60.044,139.564 -31.24,155.683c12.824,7.177 29.704,7.449 46.71,4.08c-2.637,27.087 -3.29,89.93 -2.787,98.464c0.706,11.993 84.344,-9.728 99.866,-21.017c15.521,-11.289 -26.134,-113.099 -26.134,-113.099c11.27,-16.253 55.65,-89.514 43.674,-112.056Z"/></clipPath><g clip-path="url(#_clip9)"><path d="M1189.633,662.082c0,0 23.372,-9.424 43.77,-22.172c0,0 -17.6,56.458 -52.874,55.001l9.104,-32.829" style="fill:#e57492;fill-rule:nonzero;"/></g><clipPath id="_clip10"><path d="M1304.252,514.375c-8.607,-16.202 -47.7,-40.447 -83.294,-41.542c-20.065,-0.617 -38.436,11.235 -46.795,29.487c-18.918,41.309 -60.044,139.564 -31.24,155.683c12.824,7.177 29.704,7.449 46.71,4.08c-2.637,27.087 -3.29,89.93 -2.787,98.464c0.706,11.993 84.344,-9.728 99.866,-21.017c15.521,-11.289 -26.134,-113.099 -26.134,-113.099c11.27,-16.253 55.65,-89.514 43.674,-112.056Z"/></clipPath><g clip-path="url(#_clip10)"><path d="M1149.362,538.65c1.866,-0.427 16.379,2.561 42.842,-19.207c0,0 9.817,14.085 42.682,-5.975l5.122,-27.317l-67.866,-8.963l-22.781,61.463Z" style="fill:#e57492;fill-rule:nonzero;"/></g></g><path d="M1200.201,542.235c0,0 -46.612,25.622 -43.234,32.377c3.377,6.755 36.479,-2.542 39.856,-0.852c3.377,1.689 -6.712,9.657 -11.26,9.354c-4.548,-0.303 -36.202,0.507 -36.202,-7.981c0.001,-8.489 14.836,-20.593 50.84,-32.897Z" style="fill:#e57492;fill-rule:nonzero;"/><path d="M1157.02,600.754c0,0 21.618,12.01 47.239,0c0,0 -14.572,19.961 -30.158,18.949c-20.55,-1.334 -17.08,-18.949 -17.08,-18.949Z" style="fill:#fff;fill-rule:nonzero;"/><g><path id="XMLID_58_" d="M1229.322,537.499c5.132,11.178 15.162,19.523 20.366,30.667c9.106,19.498 1.646,42.194 -3.584,63.069c-7.583,30.262 -9.594,64.391 7.188,90.691c10.861,17.021 28.621,28.848 47.676,35.525c19.055,6.677 39.45,8.592 59.636,9.064c44.219,1.035 88.59,-4.643 131.123,-16.781c-9.077,-3.476 -18.63,-7.296 -24.534,-15.017c-7.572,-9.903 -7.219,-23.481 -7.519,-35.943c-0.499,-20.719 -3.817,-41.577 -11.988,-60.624c-8.171,-19.047 -21.434,-36.235 -39.087,-47.093c-13.177,-8.106 -28.921,-12.911 -38.985,-24.659c-11.248,-13.13 -12.719,-31.661 -16.66,-48.495c-3.272,-13.975 -8.576,-27.472 -15.692,-39.937c-4.885,-8.556 -11.039,-16.985 -19.984,-21.113c-8.462,-3.904 -18.288,-3.417 -27.46,-1.765c-31.206,5.622 -59.123,24.085 -63.768,57.951c-1.137,8.287 -0.235,16.821 3.272,24.46Z" style="fill:#473472;fill-rule:nonzero;"/><clipPath id="_clip11"><path d="M1229.322,537.499c5.132,11.178 15.162,19.523 20.366,30.667c9.106,19.498 1.646,42.194 -3.584,63.069c-7.583,30.262 -9.594,64.391 7.188,90.691c10.861,17.021 28.621,28.848 47.676,35.525c19.055,6.677 39.45,8.592 59.636,9.064c44.219,1.035 88.59,-4.643 131.123,-16.781c-9.077,-3.476 -18.63,-7.296 -24.534,-15.017c-7.572,-9.903 -7.219,-23.481 -7.519,-35.943c-0.499,-20.719 -3.817,-41.577 -11.988,-60.624c-8.171,-19.047 -21.434,-36.235 -39.087,-47.093c-13.177,-8.106 -28.921,-12.911 -38.985,-24.659c-11.248,-13.13 -12.719,-31.661 -16.66,-48.495c-3.272,-13.975 -8.576,-27.472 -15.692,-39.937c-4.885,-8.556 -11.039,-16.985 -19.984,-21.113c-8.462,-3.904 -18.288,-3.417 -27.46,-1.765c-31.206,5.622 -59.123,24.085 -63.768,57.951c-1.137,8.287 -0.235,16.821 3.272,24.46Z"/></clipPath><g clip-path="url(#_clip11)"><path d="M1466.429,708.685c0,0 -141.364,68.413 -220.651,21.793c0,0 63.562,78.999 173.433,60.838c109.871,-18.16 112.596,-33.846 112.596,-33.846l-65.378,-48.785Z" style="fill:#473472;fill-opacity:0.24;fill-rule:nonzero;"/></g></g><path d="M1205.352,509.485c-0.86,-0.064 -1.747,-0.156 -2.503,-0.572c-1.992,-1.094 -2.246,-3.894 -1.678,-6.095c0.567,-2.201 1.702,-4.322 1.585,-6.591c-12.06,15.76 -32.219,23.177 -51.844,26.125c-1.003,0.151 -2.191,0.228 -2.859,-0.533c-0.291,-0.331 -0.425,-0.768 -0.547,-1.191c-5.936,-20.594 -0.967,-44.004 12.823,-60.41c6.764,-8.048 15.385,-14.37 24.516,-19.58c25.521,-14.561 57.145,-20.649 84.728,-10.524c8.898,3.267 17.515,8.437 22.525,16.483c1.849,2.968 3.181,6.368 3.12,9.865c-0.096,5.497 -3.594,10.398 -7.723,14.028c-5.077,4.462 -11.199,7.511 -17.511,9.814c-3.159,1.153 -6.392,2.026 -9.593,3.045c-1.994,0.635 -3.682,1.488 -5.092,3.055c-3.944,4.383 -7.576,8.655 -12.401,12.15c-5.1,3.694 -10.799,6.559 -16.804,8.452c-5.997,1.89 -12.308,2.809 -18.597,2.597c-0.717,-0.025 -1.433,-0.063 -2.147,-0.117Z" style="fill:#473472;fill-rule:nonzero;"/></g><g><g><path id="XMLID_57_" d="M926.848,569.76c0,0 -72.917,107.299 -55.599,119.489c17.317,12.19 40.205,16.105 43.672,9.37c3.467,-6.735 47.842,-124.79 47.842,-124.79l-35.915,-4.068Z" style="fill:#473472;fill-rule:nonzero;"/><clipPath id="_clip12"><path d="M926.848,569.76c0,0 -72.917,107.299 -55.599,119.489c17.317,12.19 40.205,16.105 43.672,9.37c3.467,-6.735 47.842,-124.79 47.842,-124.79l-35.915,-4.068Z"/></clipPath><g clip-path="url(#_clip12)"><path d="M899.999,601.686c0,0 63.026,6.283 65.351,1.009c2.325,-5.275 8.356,-25.421 8.356,-25.421c0,0 -67.027,-18.968 -69.432,-12.777c-2.406,6.192 -4.275,37.189 -4.275,37.189Z" style="fill:#251459;fill-rule:nonzero;"/></g></g><g><g><path id="XMLID_56_" d="M1024.384,569.214c2.144,-6.805 -0.475,-14.207 -6.424,-18.147c-47.251,-31.298 -245.668,-162.005 -257.554,-157.823c-13.499,4.75 -70.558,166.818 -59.339,188.356c9.957,19.117 254.372,2.699 309.204,-1.234c6.549,-0.469 12.14,-4.891 14.113,-11.152Z" style="fill:#9974e0;fill-rule:nonzero;"/><clipPath id="_clip13"><path d="M1024.384,569.214c2.144,-6.805 -0.475,-14.207 -6.424,-18.147c-47.251,-31.298 -245.668,-162.005 -257.554,-157.823c-13.499,4.75 -70.558,166.818 -59.339,188.356c9.957,19.117 254.372,2.699 309.204,-1.234c6.549,-0.469 12.14,-4.891 14.113,-11.152Z"/></clipPath><g clip-path="url(#_clip13)"><path d="M971.622,506.117c0,0 13.583,46.502 -25.064,98.579c0,0 91.664,-8.569 94.886,-18.795c3.221,-10.225 10.52,-19.665 5.931,-26.671c-4.588,-7.005 -75.753,-53.113 -75.753,-53.113Z" style="fill:#473472;fill-rule:nonzero;"/></g><clipPath id="_clip14"><path d="M1024.384,569.214c2.144,-6.805 -0.475,-14.207 -6.424,-18.147c-47.251,-31.298 -245.668,-162.005 -257.554,-157.823c-13.499,4.75 -70.558,166.818 -59.339,188.356c9.957,19.117 254.372,2.699 309.204,-1.234c6.549,-0.469 12.14,-4.891 14.113,-11.152Z"/></clipPath><g clip-path="url(#_clip14)"><path d="M699.616,530.726c0,0 64.4,-13.54 123.635,19.462c59.235,33.002 175.166,16.078 175.166,16.078l-7.616,24.407c0,0 -236.94,28.013 -271.634,19.573c-34.694,-8.439 -32.267,-59.193 -19.551,-79.521" style="fill:#1c056d;fill-opacity:0.24;fill-rule:nonzero;"/></g></g><g><path id="XMLID_55_" d="M711.318,481.895c16.571,-52.598 39.15,-92.426 50.389,-88.885c11.239,3.541 6.91,49.119 -9.662,101.717c-16.571,52.598 -39.15,92.426 -50.389,88.885c-11.239,-3.541 -6.91,-49.119 9.662,-101.717Z" style="fill:#473472;"/><clipPath id="_clip15"><path d="M711.318,481.895c16.571,-52.598 39.15,-92.426 50.389,-88.885c11.239,3.541 6.91,49.119 -9.662,101.717c-16.571,52.598 -39.15,92.426 -50.389,88.885c-11.239,-3.541 -6.91,-49.119 9.662,-101.717Z"/></clipPath><g clip-path="url(#_clip15)"><path d="M762.683,484.149c0,0 -34.526,-23.915 -41.68,-1.865c-7.154,22.05 -6.763,29.804 36.691,33.836l4.99,-31.971Z" style="fill:#fff;fill-rule:nonzero;"/></g><clipPath id="_clip16"><path d="M711.318,481.895c16.571,-52.598 39.15,-92.426 50.389,-88.885c11.239,3.541 6.91,49.119 -9.662,101.717c-16.571,52.598 -39.15,92.426 -50.389,88.885c-11.239,-3.541 -6.91,-49.119 9.662,-101.717Z"/></clipPath><g clip-path="url(#_clip16)"><path d="M749.818,396.677c0,0 10.935,4.898 7.593,31.445c-2.891,22.964 -31.777,140.454 -64.733,152.664c0,0 6.509,14.208 16.262,12.887c9.753,-1.321 41.195,-43.594 47.54,-70.704c6.344,-27.111 29.613,-102.716 28.579,-115.125c-1.034,-12.409 -28.559,-23.187 -35.24,-11.166Z" style="fill:#251459;fill-rule:nonzero;"/></g></g></g></g><path d="M1327.677,1199.271c0,0 -55.529,28.627 -62.526,26.139c-6.998,-2.488 -34.825,-16.414 -46.138,-30.262c0,0 -4.458,31.257 23.41,37.445c0,0 50.361,-1.798 71.065,-11.546c-0.001,0.001 8.77,-3.284 14.188,-21.775Z" style="fill:#42778a;fill-rule:nonzero;"/><g><path id="XMLID_54_" d="M1228.262,1148.386c0,0 -51.701,18.016 -66.255,28.704c-0.013,0.009 -73.607,47.475 -63.057,51.431c5.806,2.177 27.188,-8.149 45.244,-17.876c-9.878,23.661 -19.716,51.673 -15.068,50.639c7.459,-1.657 43.431,-55.07 43.431,-55.07c0,0 -24.115,61.421 -20.28,61.526c3.835,0.105 27.95,-19.725 34.469,-55.773c0,0 -7.286,50.621 -2.301,51.771c4.986,1.151 21.091,-49.866 21.091,-49.866c0,0 43.542,-16.965 44.534,-25.637c0.991,-8.673 -21.809,-39.848 -21.809,-39.848Z" style="fill:#fe8e9c;fill-rule:nonzero;"/><clipPath id="_clip17"><path d="M1228.262,1148.386c0,0 -51.701,18.016 -66.255,28.704c-0.013,0.009 -73.607,47.475 -63.057,51.431c5.806,2.177 27.188,-8.149 45.244,-17.876c-9.878,23.661 -19.716,51.673 -15.068,50.639c7.459,-1.657 43.431,-55.07 43.431,-55.07c0,0 -24.115,61.421 -20.28,61.526c3.835,0.105 27.95,-19.725 34.469,-55.773c0,0 -7.286,50.621 -2.301,51.771c4.986,1.151 21.091,-49.866 21.091,-49.866c0,0 43.542,-16.965 44.534,-25.637c0.991,-8.673 -21.809,-39.848 -21.809,-39.848Z"/></clipPath><g clip-path="url(#_clip17)"><path d="M1165.322,1170.329c-0.449,4.038 34.553,39.143 61.009,39.143c26.455,0 28.884,-18.086 28.884,-18.086l-39.952,-52.37c0,0 -49.131,24.026 -49.941,31.314Z" style="fill:#e57492;fill-rule:nonzero;"/></g><clipPath id="_clip18"><path d="M1228.262,1148.386c0,0 -51.701,18.016 -66.255,28.704c-0.013,0.009 -73.607,47.475 -63.057,51.431c5.806,2.177 27.188,-8.149 45.244,-17.876c-9.878,23.661 -19.716,51.673 -15.068,50.639c7.459,-1.657 43.431,-55.07 43.431,-55.07c0,0 -24.115,61.421 -20.28,61.526c3.835,0.105 27.95,-19.725 34.469,-55.773c0,0 -7.286,50.621 -2.301,51.771c4.986,1.151 21.091,-49.866 21.091,-49.866c0,0 43.542,-16.965 44.534,-25.637c0.991,-8.673 -21.809,-39.848 -21.809,-39.848Z"/></clipPath><g clip-path="url(#_clip18)"><path d="M1098.948,1228.52c0,0 47.642,-27.801 51.191,-29.83c3.549,-2.028 -9.127,16.732 -9.127,16.732c0,0 -42.677,19.602 -42.064,13.097" style="fill:#e57492;fill-rule:nonzero;"/></g></g><g><path d="M1381.725,810.089c0,0 147.577,192.628 136.916,243.563c-10.661,50.935 -234.539,176.497 -253.492,171.758c-18.952,-4.738 -71.774,-40.357 -66.685,-77.036c5.089,-36.68 166.186,-149.21 166.186,-149.21c0,0 -85.531,-55.674 -81.855,-100.686c3.676,-45.012 98.93,-88.387 98.93,-88.387Z" style="fill:#87bac3;fill-rule:nonzero;"/><g><path d="M1204.259,1135.433c0,0 106.367,-101.402 160.392,-136.27c0,0 -59.781,-25.448 -81.855,-100.686c0,0 4.361,97.666 50.959,103.88c0,0.001 -130.07,82.866 -129.496,133.077Z" style="fill:#42778a;fill-rule:nonzero;"/><path d="M1364.651,806.287c0,0 -61.149,24.972 -77.266,76.859c0,0 -9.205,-52.624 77.266,-76.859Z" style="fill:#42778a;fill-rule:nonzero;"/></g></g><g><g><path id="XMLID_52_" d="M951.086,604.802c0,0 -43.995,14.714 -41.991,19.123c2.004,4.41 34.287,1.236 34.287,1.236l-11.361,29.866c0,0 14.129,1.017 20.228,2.662c0,0 23.183,-36.97 21.179,-44.185c-2.004,-7.216 -22.342,-8.702 -22.342,-8.702Z" style="fill:#fe8e9c;fill-rule:nonzero;"/><clipPath id="_clip19"><path d="M951.086,604.802c0,0 -43.995,14.714 -41.991,19.123c2.004,4.41 34.287,1.236 34.287,1.236l-11.361,29.866c0,0 14.129,1.017 20.228,2.662c0,0 23.183,-36.97 21.179,-44.185c-2.004,-7.216 -22.342,-8.702 -22.342,-8.702Z"/></clipPath><g clip-path="url(#_clip19)"><path d="M943.856,661.763c0,0 13.29,-39.049 11.321,-38.721c-1.969,0.329 -15.086,2.406 -15.086,2.406l-11.822,32.239l15.587,4.075Z" style="fill:#e57492;fill-rule:nonzero;"/></g><clipPath id="_clip20"><path d="M951.086,604.802c0,0 -43.995,14.714 -41.991,19.123c2.004,4.41 34.287,1.236 34.287,1.236l-11.361,29.866c0,0 14.129,1.017 20.228,2.662c0,0 23.183,-36.97 21.179,-44.185c-2.004,-7.216 -22.342,-8.702 -22.342,-8.702Z"/></clipPath><g clip-path="url(#_clip20)"><path d="M916.362,626.606c0,0 22.354,-3.301 24.928,-7.7c2.574,-4.4 -17.527,-5.841 -17.527,-5.841c0,0 -17.484,10.339 -14.734,12.042c2.75,1.702 7.334,1.5 7.334,1.5Z" style="fill:#e57492;fill-rule:nonzero;"/></g></g><path d="M892.598,614.244c1.573,-0.847 3.361,-1.202 5.146,-1.178c7.746,0.106 34.827,0.736 39.174,4.395c5.081,4.279 -40.841,10.95 -45.76,9.954c-4.375,-0.884 -5.687,-9.335 1.44,-13.171Z" style="fill:#fe8e9c;fill-rule:nonzero;"/><path d="M929.563,630.298c-4.346,-3.66 -31.428,-4.29 -39.174,-4.395c-1.785,-0.024 -3.574,0.331 -5.146,1.178c-5.62,3.026 -5.98,8.907 -3.742,11.698c-6.497,3.966 -5.165,11.98 -0.909,12.841c4.92,0.995 46.22,-6.645 41.139,-10.923c-2.341,-1.972 -6.658,-2.093 -15.617,-2.698c13.037,-2.132 26.306,-5.294 23.448,-7.7Z" style="fill:#fe8e9c;fill-rule:nonzero;"/><path d="M906.115,637.996c0,0 -17.007,3.485 -24.613,0.781c0,0 21.752,-1.868 30.936,-3.781c9.184,-1.913 17.126,-4.7 17.126,-4.7c0,0 2.076,1.129 -2.919,3.005c-4.995,1.878 -20.531,4.694 -20.531,4.694Z" style="fill:#e57492;fill-rule:nonzero;"/></g></g></g></g></g><g><path d="M699.255,363.327l-20.155,-134.427c-2.637,-17.584 -19.028,-29.701 -36.612,-27.065l-280.977,42.128c-17.584,2.637 -29.701,19.028 -27.064,36.612l20.155,134.427c2.637,17.584 19.028,29.701 36.612,27.065l151.52,-22.718c19.531,28.7 99.935,76.932 94.189,64.62c-4.209,-9.016 -13.813,-52.559 -18.797,-75.925l54.065,-8.107c17.584,-2.636 29.701,-19.027 27.064,-36.611Z" style="fill:#a296ff;fill-rule:nonzero;"/><g><path d="M359.969,281.827c-1.554,0 -2.911,-1.143 -3.136,-2.725c-0.247,-1.734 0.959,-3.339 2.693,-3.586l283.91,-40.367c1.733,-0.246 3.339,0.96 3.586,2.693c0.247,1.734 -0.959,3.34 -2.693,3.586l-283.91,40.367c-0.151,0.021 -0.301,0.032 -0.45,0.032Z" style="fill:#fff;fill-rule:nonzero;"/><path d="M366.512,322.193c-1.554,0 -2.911,-1.143 -3.136,-2.725c-0.247,-1.734 0.959,-3.34 2.693,-3.586l283.91,-40.367c1.732,-0.248 3.339,0.959 3.586,2.693c0.247,1.734 -0.959,3.34 -2.693,3.586l-283.91,40.367c-0.151,0.022 -0.301,0.032 -0.45,0.032Z" style="fill:#fff;fill-rule:nonzero;"/><path d="M373.054,362.56c-1.554,0 -2.911,-1.143 -3.136,-2.725c-0.246,-1.734 0.959,-3.34 2.694,-3.586l283.911,-40.366c1.732,-0.244 3.339,0.959 3.586,2.693c0.247,1.734 -0.959,3.339 -2.693,3.586l-283.911,40.367c-0.152,0.021 -0.302,0.031 -0.451,0.031Z" style="fill:#fff;fill-rule:nonzero;"/><path d="M379.597,402.927c-1.554,0 -2.911,-1.143 -3.136,-2.725c-0.247,-1.734 0.959,-3.339 2.693,-3.586l283.91,-40.367c1.732,-0.245 3.339,0.959 3.586,2.694c0.247,1.734 -0.959,3.339 -2.693,3.586l-283.91,40.367c-0.151,0.02 -0.301,0.031 -0.45,0.031Z" style="fill:#fff;fill-rule:nonzero;"/></g></g><g><path d="M797.424,282.08c39.695,-9.756 78.392,-23.272 115.554,-40.296c36.156,-16.562 71.699,-36.192 103.531,-60.135c14.838,-11.16 28.883,-23.496 40.622,-37.94c5.961,-7.335 11.565,-15.12 16.016,-23.475c3.412,-6.405 7.733,-14.999 5.519,-22.436c-3.647,-12.243 -21.636,-14.776 -28.116,-3.601c-3.648,6.289 -4.348,15.103 -4.498,22.218c-0.169,8.04 1.03,16.212 3.264,23.929c23.058,79.673 124.612,73.677 189.202,64.468c43.546,-6.209 86.329,-16.616 129.252,-26.039c41.311,-9.07 82.912,-17.058 124.875,-22.453c82.931,-10.663 168.402,-11.743 249.756,9.812c9.79,2.594 19.484,5.521 29.087,8.736c6.651,2.227 9.503,-8.271 2.89,-10.485c-74.363,-24.9 -153.668,-29.938 -231.463,-24.099c-39.53,2.966 -78.841,8.607 -117.817,15.774c-39.634,7.288 -78.821,16.602 -118.206,25.082c-40.122,8.639 -80.744,16.309 -121.841,18.028c-33.574,1.404 -69.926,-1.783 -97.95,-22.162c-12.479,-9.075 -21.692,-22.235 -26.475,-36.87c-2.366,-7.238 -3.719,-14.74 -3.716,-22.365c0.002,-3.547 0.255,-7.097 0.917,-10.584c0.466,-2.453 0.804,-6.629 2.799,-8.409c2.492,-2.224 7.281,-0.549 7.781,2.774c0.472,3.131 -1.893,7.495 -3.168,10.23c-1.816,3.896 -4.067,7.597 -6.388,11.211c-9.517,14.813 -21.78,27.67 -35.132,39.077c-28.133,24.037 -61.167,43.019 -94.082,59.659c-34.586,17.486 -70.768,31.734 -107.969,42.594c-8.99,2.624 -18.04,5.035 -27.134,7.27c-6.793,1.672 -3.916,12.161 2.89,10.488Z" style="fill:#d3a101;fill-rule:nonzero;"/><path d="M1813.051,185.465c7.195,2.865 14.389,5.729 21.584,8.595c1.227,0.489 3.099,0.089 4.19,-0.548c1.127,-0.66 2.203,-1.953 2.499,-3.249c0.714,-3.137 -0.961,-5.558 -3.797,-6.688c-7.195,-2.865 -14.389,-5.729 -21.584,-8.595c-1.227,-0.489 -3.099,-0.089 -4.19,0.548c-1.127,0.66 -2.203,1.954 -2.499,3.249c-0.714,3.137 0.96,5.558 3.797,6.688Z" style="fill:#d3a101;fill-rule:nonzero;"/></g></g></svg>