<?xml version="1.0" encoding="UTF-8" standalone="no"?><!DOCTYPE svg PUBLIC "-//W3C//DTD SVG 1.1//EN" "http://www.w3.org/Graphics/SVG/1.1/DTD/svg11.dtd"><svg width="100%" height="100%" viewBox="0 0 2080 1984" version="1.1" xmlns="http://www.w3.org/2000/svg" xmlns:xlink="http://www.w3.org/1999/xlink" xml:space="preserve" xmlns:serif="http://www.serif.com/" style="fill-rule:evenodd;clip-rule:evenodd;stroke-miterlimit:10;"><g><path d="M546.576,1678.508c44.656,-428.714 -382.602,-379.805 -456.125,-638.042c-8.611,-30.244 -45.61,-160.198 346.689,-234.407c334.482,-63.272 512.516,30.374 627.854,-390.603c93.49,-341.234 289.218,-460.9 638.652,-400.416c338.432,58.58 143.496,281.451 96.162,360.171c-201.163,334.551 117.35,308.641 182.533,550.173c75.086,278.23 -240.22,744.666 -375.202,860.605c-424.516,364.625 -991.978,134.258 -1048.731,25.307c-27.935,-53.627 -11.915,-131.9 -11.831,-132.787Z" style="fill:#554585;"/><path d="M1413.246,1778.076c26.33,14.97 152.99,86.984 409.057,81.344c368.938,-8.126 311.651,-355.967 11.47,-459.298c-146.026,-50.266 -595.193,-127.886 -510.65,-359.18c45.199,-123.657 245.723,-188.729 246.802,-456.808c1.427,-354.296 -546.05,-588.945 -1122.492,-584.059c-241.707,2.049 -737.867,188.772 -220.704,713.58c148.834,151.034 485.949,388.04 301.111,600.583c-85.81,98.672 -432.589,174.069 -382.959,358.41c62.124,230.748 897.088,205.966 1017.416,171.368c4.248,-1.221 210.311,-65.076 250.949,-65.94Z" style="fill:#f5df00;"/><g><g><g><clipPath id="_clip1"><path d="M1049.381,1370.302l-781.792,0c-4.792,-42.792 12.375,-86.917 40.083,-118.292c27.708,-31.375 64.75,-48.833 102.042,-66.417c48.75,-22.958 99.125,-42.958 149.667,-62.167c30.292,-11.5 60.667,-22.708 90.792,-34.083c37.583,18.417 72.167,31.667 105.292,43.125c22,7.583 43.375,14.375 64.542,21.375c53.083,17.458 106.75,36.917 151.083,71.958c44.375,35.083 78.579,86.5 78.292,144.5Z"/></clipPath><g clip-path="url(#_clip1)"><path d="M1049.381,1370.302l-781.792,0c-4.792,-42.792 12.375,-86.917 40.083,-118.292c27.708,-31.375 64.75,-48.833 102.042,-66.417c48.75,-22.958 99.125,-42.958 149.667,-62.167c30.292,-11.5 60.667,-22.708 90.792,-34.083c37.583,18.417 72.167,31.667 105.292,43.125c22,7.583 43.375,14.375 64.542,21.375c53.083,17.458 106.75,36.917 151.083,71.958c44.375,35.083 78.579,86.5 78.292,144.5Z" style="fill:#df6863;fill-rule:nonzero;"/></g><clipPath id="_clip2"><path d="M1049.381,1370.302l-781.792,0c-4.792,-42.792 12.375,-86.917 40.083,-118.292c27.708,-31.375 64.75,-48.833 102.042,-66.417c48.75,-22.958 99.125,-42.958 149.667,-62.167c30.292,-11.5 60.667,-22.708 90.792,-34.083c37.583,18.417 72.167,31.667 105.292,43.125c22,7.583 43.375,14.375 64.542,21.375c53.083,17.458 106.75,36.917 151.083,71.958c44.375,35.083 78.579,86.5 78.292,144.5Z"/></clipPath><g clip-path="url(#_clip2)"><path d="M755.461,1132.468c-4.208,4 -8.792,7.583 -13.583,10.833c-29.708,20.125 -67.25,28.375 -102.708,22.542c-30.25,-5 -58.667,-20.208 -79.792,-42.417c30.292,-11.5 60.667,-22.708 90.792,-34.083c37.583,18.417 72.171,31.667 105.292,43.125Z" style="fill:#fec3b9;fill-rule:nonzero;"/></g><g><clipPath id="_clip3"><path d="M1049.381,1370.302l-781.792,0c-4.792,-42.792 12.375,-86.917 40.083,-118.292c27.708,-31.375 64.75,-48.833 102.042,-66.417c48.75,-22.958 99.125,-42.958 149.667,-62.167c30.292,-11.5 60.667,-22.708 90.792,-34.083c37.583,18.417 72.167,31.667 105.292,43.125c22,7.583 43.375,14.375 64.542,21.375c53.083,17.458 106.75,36.917 151.083,71.958c44.375,35.083 78.579,86.5 78.292,144.5Z"/></clipPath><g clip-path="url(#_clip3)"><path d="M426.286,1174.835c164.454,43.358 341.058,39.567 503.496,-10.821" style="fill:none;fill-rule:nonzero;stroke:#ffeeeb;stroke-width:4.17px;"/><path d="M310.452,1228.664c231.608,89.696 495.642,92.721 729.242,8.346" style="fill:none;fill-rule:nonzero;stroke:#ffeeeb;stroke-width:4.17px;"/><path d="M237.098,1327.577c279.496,69.362 577.279,63.546 853.85,-16.688" style="fill:none;fill-rule:nonzero;stroke:#ffeeeb;stroke-width:4.17px;"/></g></g><g><clipPath id="_clip4"><path d="M1049.381,1370.302l-781.792,0c-4.792,-42.792 12.375,-86.917 40.083,-118.292c27.708,-31.375 64.75,-48.833 102.042,-66.417c48.75,-22.958 99.125,-42.958 149.667,-62.167c30.292,-11.5 60.667,-22.708 90.792,-34.083c37.583,18.417 72.167,31.667 105.292,43.125c22,7.583 43.375,14.375 64.542,21.375c53.083,17.458 106.75,36.917 151.083,71.958c44.375,35.083 78.579,86.5 78.292,144.5Z"/></clipPath><g clip-path="url(#_clip4)"><g><path d="M526.24,1123.493c21.363,29.604 52.379,52.125 87.146,63.271c34.767,11.146 73.096,10.858 107.688,-0.808" style="fill:none;fill-rule:nonzero;stroke:#944441;stroke-width:6.25px;"/></g><path d="M415.173,1208.014c8.271,71.292 11.633,143.15 10.058,214.9" style="fill:none;fill-rule:nonzero;stroke:#944441;stroke-width:6.25px;"/></g></g></g><g><g><rect x="587.081" y="924.51" width="135.367" height="201.796" style="fill:#fec3b9;"/><path d="M614.461,1002.406c10.687,30.758 29.125,58.683 53.229,80.5c7.638,6.871 16.471,13.525 26.179,16.254c3.6,0.983 7.308,1.417 11.125,1.2c2.183,-0.108 4.362,-0.546 6.438,-1.2c4.037,-1.092 7.746,-3.162 11.017,-5.779l0,-174.963c-11.237,-6.108 -24.108,-9.6 -36.758,-11.779c-18.217,-3.162 -38.288,-3.6 -53.775,6.325c-13.854,8.725 -22.033,24.762 -24.217,41.121c-2.071,16.25 1.417,32.829 6.763,48.321Z" style="fill:#f28572;fill-opacity:0.68;fill-rule:nonzero;"/></g><path d="M502.511,753.168c-15.688,66.908 4.175,139.021 44.112,194.867c39.938,55.846 88.658,105.433 153.625,127.371c42.767,14.446 84.812,0.267 111.408,-27.117c26.6,-27.379 38.262,-65.833 45.137,-103.404c0.392,-2.287 0.737,-4.475 1.129,-6.758c4.05,-23.85 6.379,-48.296 6.483,-72.517c0.312,-50.862 -9.342,-101.333 -33.667,-145.546c-37.217,-67.379 -114.321,-116.008 -190.2,-103.496c-67.729,11.254 -122.387,69.787 -138.029,136.6Z" style="fill:#fec3b9;fill-rule:nonzero;"/><g><path d="M587.248,995.614c2.008,-15.746 -4.012,-31.237 -8.383,-46.5c-4.367,-15.263 -6.892,-32.629 1.283,-46.237c7.696,-12.817 23.142,-19.242 31.471,-31.658c7.346,-10.95 8.121,-25.1 6.242,-38.15c-1.875,-13.05 -6.125,-25.671 -7.983,-38.721c-2.471,-17.371 -0.65,-35.042 -1.271,-52.575c-0.621,-17.533 -4.108,-35.879 -15.408,-49.304c8.15,12.767 16.592,25.85 28.883,34.7c12.292,8.85 29.504,12.592 42.704,5.167c10.712,-6.021 16.933,-18.088 27.571,-24.242c10.992,-6.358 25.004,-5.254 36.8,-0.546c11.796,4.704 21.983,12.596 32.454,19.787c21.204,14.563 44.812,26.779 70.358,29.788c25.546,3.008 53.337,-4.467 70.188,-23.904c16.85,-19.438 19.275,-51.592 1.767,-70.438c-12.229,-13.162 -31.246,-18.079 -44.112,-30.621c-14.354,-13.992 -18.829,-35.088 -29.471,-52.075c-20.3,-32.421 -65.462,-46.508 -100.596,-31.383c-16.171,6.962 -30.342,19.271 -47.733,21.992c-24.096,3.771 -46.792,-11.742 -70.921,-15.292c-20.413,-3.004 -41.996,3.104 -57.804,16.358c-15.808,13.258 -25.587,33.442 -26.188,54.067c-32.558,1.6 -61.392,30.754 -62.629,63.329c-0.833,21.938 9.217,42.833 11.375,64.683c2.596,26.292 -6.329,52.446 -6.042,78.862c0.379,34.725 16.842,67.733 39.221,94.288c22.392,26.562 50.496,47.575 78.225,68.625Z" style="fill:#bda066;fill-rule:nonzero;"/><g><path d="M553.369,642.531c16.337,15.079 30.329,32.692 41.333,52.013" style="fill:none;fill-rule:nonzero;stroke:#917439;stroke-width:6.25px;"/><path d="M574.077,665.798c-0.954,-16.463 15.004,-29.95 31.312,-32.379c16.308,-2.429 32.617,3.217 48.175,8.683c15.558,5.467 31.975,10.925 48.225,8.117c17.062,-2.95 31.138,-14.492 46.4,-22.675c15.258,-8.183 35.317,-12.667 49.008,-2.067" style="fill:none;fill-rule:nonzero;stroke:#917439;stroke-width:6.25px;"/><path d="M751.561,664.731c13.346,6.629 25.142,15.933 37.508,24.246c12.367,8.312 25.758,15.808 40.483,18.083c14.729,2.275 31.1,-1.517 40.883,-12.762" style="fill:none;fill-rule:nonzero;stroke:#917439;stroke-width:6.25px;"/><path d="M518.206,710.535c4.504,23.083 -2.917,46.562 -7.396,69.654c-4.479,23.088 -5.233,49.429 9.858,67.467" style="fill:none;fill-rule:nonzero;stroke:#917439;stroke-width:6.25px;"/></g></g><g><path d="M834.615,869.735c3.337,-6.938 0.417,-15.263 -6.517,-18.596c-6.938,-3.337 -15.263,-0.417 -18.596,6.517c-3.337,6.938 -0.417,15.263 6.517,18.596c6.933,3.338 15.258,0.417 18.596,-6.517Z" style="fill:#383838;fill-rule:nonzero;"/><path d="M716.636,872.843c3.337,-6.933 0.417,-15.263 -6.517,-18.596c-6.938,-3.337 -15.263,-0.417 -18.596,6.517c-3.337,6.933 -0.417,15.263 6.517,18.596c6.933,3.337 15.262,0.421 18.596,-6.517Z" style="fill:#383838;fill-rule:nonzero;"/><path d="M702.177,933.668c9.062,-18.842 1.133,-41.467 -17.708,-50.529c-18.842,-9.063 -41.467,-1.133 -50.529,17.708c-9.062,18.842 -1.133,41.467 17.708,50.529c18.842,9.062 41.467,1.133 50.529,-17.708Z" style="fill:#f28572;fill-rule:nonzero;"/><path d="M837.19,886.452c-9.067,18.85 -1.167,41.379 17.679,50.442c1.05,0.504 2.008,0.967 3.058,1.238c4.05,-23.85 6.379,-48.296 6.483,-72.517c-11.362,2.075 -21.746,9.45 -27.221,20.837Z" style="fill:#f28572;fill-rule:nonzero;"/><g><path d="M539.548,904.964c-0.571,-23.446 16.788,-42.888 38.771,-43.421c21.983,-0.533 40.263,18.042 40.833,41.487c0.571,23.446 -16.787,42.888 -38.771,43.421c-21.983,0.533 -40.267,-18.042 -40.833,-41.487Z" style="fill:#fec3b9;fill-rule:nonzero;"/><g><path d="M571.548,877.673c8.354,17.571 12.621,37.067 12.371,56.517" style="fill:none;fill-rule:nonzero;stroke:#f28572;stroke-width:6.25px;"/><path d="M555.152,898.402c10.8,2.746 20.717,8.858 28.021,17.275" style="fill:none;fill-rule:nonzero;stroke:#f28572;stroke-width:6.25px;"/></g></g><path d="M670.619,824.931c12.688,-2.467 25.371,-4.929 38.058,-7.396c7.029,-1.367 14.933,-3.342 18.404,-9.604c3.667,-6.621 0.233,-15.483 -5.942,-19.862c-6.175,-4.375 -14.225,-5.129 -21.771,-4.575c-11.45,0.838 -22.692,4.362 -32.567,10.213c-5.062,2.996 -9.9,6.746 -12.754,11.888c-2.854,5.142 -3.35,11.912 0.008,16.742c3.358,4.829 9.908,3.887 16.562,2.596Z" style="fill:#bda066;fill-rule:nonzero;"/><path d="M841.756,824.931c-11.629,-2.467 -23.258,-4.929 -34.887,-7.396c-6.442,-1.367 -13.688,-3.342 -16.871,-9.604c-3.362,-6.621 -0.212,-15.483 5.446,-19.862c5.658,-4.375 13.037,-5.129 19.958,-4.575c10.496,0.838 20.8,4.362 29.854,10.213c4.638,2.996 9.075,6.746 11.692,11.888c2.617,5.142 3.071,11.912 -0.008,16.742c-3.079,4.829 -9.083,3.887 -15.183,2.596Z" style="fill:#bda066;fill-rule:nonzero;"/><g><path d="M722.619,968.423c0.904,2.096 2.067,4.008 3.337,5.942c8.508,12.533 24.5,21.421 40.754,22.004c7.154,0.3 14.258,-1.125 20.529,-3.721c10.117,-4.346 18.367,-11.867 22.117,-21.179c2.167,-5.35 2.354,-12.525 -3.104,-16.079c-1.242,-0.783 -2.758,-1.267 -4.183,-1.625c-2.667,-0.454 -5.65,-0.388 -8.396,-0.396c-15.125,0.179 -30.429,-2.646 -44.571,-8.246c-5.017,-2.108 -10.038,-3.533 -14.354,-3.692c-4.429,-0.179 -8.158,0.904 -10.742,4.013c-5.304,6.304 -4.662,15.333 -1.387,22.979Z" style="fill:#383838;fill-rule:nonzero;"/><path d="M734.744,941.435c-0.529,3.8 -0.392,7.708 1.6,10.792c2.158,3.454 5.954,5.354 9.712,6.792c13.479,5.487 28.262,7.996 42.812,7.146c3.467,-0.212 7.212,-0.721 9.775,-3.029c2.563,-2.308 3.279,-5.846 3.421,-9.371c-2.667,-0.454 -5.65,-0.388 -8.396,-0.396c-15.125,0.179 -30.429,-2.646 -44.571,-8.246c-5.017,-2.104 -10.033,-3.529 -14.354,-3.687Z" style="fill:#fff;fill-rule:nonzero;"/><path d="M725.956,974.364c8.508,12.533 24.5,21.421 40.754,22.004c7.154,0.3 14.258,-1.125 20.529,-3.721c-4.221,-8.15 -12.954,-13.975 -21.896,-17.208c-12.592,-4.65 -26.862,-5.471 -39.387,-1.075Z" style="fill:#f28572;fill-rule:nonzero;"/></g><g><path d="M649.18,850.085c6.333,-26.818 33.247,-43.45 60.065,-37.117c26.818,6.333 43.45,33.247 37.117,60.065c-6.333,26.818 -33.247,43.45 -60.065,37.117c-26.818,-6.333 -43.45,-33.247 -37.117,-60.065Z" style="fill:none;stroke:#fff;stroke-width:6.25px;"/><path d="M815.399,829.862c17.471,-21.31 48.956,-24.426 70.265,-6.955c21.31,17.471 24.426,48.956 6.955,70.265c-17.471,21.31 -48.956,24.426 -70.265,6.955c-21.31,-17.471 -24.426,-48.956 -6.955,-70.265Z" style="fill:none;stroke:#fff;stroke-width:6.25px;"/></g><path d="M765.465,836.893c0.608,20.887 14.067,40.871 33.192,49.288c5.129,2.258 10.988,4.033 14.071,8.712c3.533,5.358 2.05,12.638 -0.95,18.312c-2.817,5.333 -6.962,10.104 -12.329,12.858c-5.367,2.754 -12.021,3.292 -17.438,0.638" style="fill:none;fill-rule:nonzero;stroke:#f28572;stroke-width:6.25px;"/><path d="M746.806,865.356c7.071,-8.154 17.354,-13.4 28.05,-14.308c10.696,-0.913 21.692,2.521 29.996,9.367" style="fill:none;fill-rule:nonzero;stroke:#fff;stroke-width:6.25px;"/></g></g></g><path d="M658.087,542.625c32.887,-66.267 27.899,-22.431 87.278,-55.027c35.112,-19.275 74.167,-31.288 107.342,-53.733c73.896,-49.996 106.829,-152.404 77.071,-236.517c-29.758,-84.113 -118.804,-142.846 -207.908,-138.317c-89.104,4.529 -171.279,71.154 -195.329,157.071c-24.054,85.917 10.975,184.821 83.004,237.471c12.092,8.838 41.951,54.431 48.543,89.052Z" style="fill:#53629e;fill-rule:nonzero;"/><g><g><path d="M1251.354,630.652c-32.308,-3.229 -65.779,7.746 -89.9,29.483c-24.121,21.733 -38.508,53.892 -38.646,86.358c-0.142,34.046 14.246,69.829 0.446,100.954c-11.542,26.033 -39.35,40.296 -58.471,61.396c-34.8,38.396 -36.267,102.621 -3.258,142.567c16.246,19.662 40.05,34.767 47.133,59.271c9.383,32.454 -14.712,64.533 -19.463,97.979c-5.775,40.646 19.046,81.433 53.808,103.271c34.762,21.837 77.567,27.329 118.567,25.233c30.212,-1.546 63.946,-9.308 79.7,-35.129c21.904,-35.896 -2.779,-86.487 18.221,-122.921c10.771,-18.683 31.146,-29.171 48.388,-42.129c36.825,-27.683 61.979,-71.233 64.817,-117.217c2.838,-45.983 -17.658,-93.383 -54.746,-120.717c-15.033,-11.079 -32.288,-18.804 -47.579,-29.521c-15.292,-10.721 -29.117,-25.583 -32.246,-43.996c-5.95,-35.013 27.792,-65.492 29.108,-100.983c0.933,-25.125 -15.108,-48.446 -35.646,-62.954c-20.533,-14.513 -44.171,-27.338 -80.233,-30.946Z" style="fill:#473472;fill-rule:nonzero;"/><g><path d="M1089.841,951.952c-16.396,20.792 -10.862,51.796 2.467,74.675c13.329,22.879 33.188,41.454 46.221,64.504c20.883,36.938 21.842,84.4 2.463,122.15" style="fill:none;fill-rule:nonzero;stroke:#53629e;stroke-width:6.25px;"/><path d="M1163.933,1068.268c29.479,38.429 35.638,93.417 15.383,137.417" style="fill:none;fill-rule:nonzero;stroke:#53629e;stroke-width:6.25px;"/></g></g><path d="M1741.871,1370.302l-781.792,0c-0.292,-58 33.917,-109.417 78.292,-144.5c26.583,-21 56.542,-36.417 87.708,-49.125c3.417,-1.458 6.875,-2.792 10.333,-4.125c17.5,-6.792 35.292,-12.875 53.042,-18.708c21.167,-7 42.542,-13.792 64.542,-21.375c33.125,-11.458 67.708,-24.708 105.292,-43.125c30.125,11.375 60.5,22.583 90.792,34.083c37.208,14.125 74.292,28.708 110.75,44.542c3.417,1.5 6.833,3 10.25,4.583c9.625,4.208 19.167,8.583 28.667,13.042c37.292,17.583 74.333,35.042 102.042,66.417c27.708,31.375 44.875,75.5 40.083,118.292Z" style="fill:#d28b75;fill-rule:nonzero;"/><path d="M1583.246,1286.968l-0.125,0.042l-4.375,83.292l-457.833,0l-6.542,-83.333l11.708,-110.292c3.417,-1.458 6.875,-2.792 10.333,-4.125l-8.792,114.417l442.333,0l-9.125,-119c3.417,1.5 6.833,3 10.25,4.583l12.167,114.417Z" style="fill:#2b3d52;fill-rule:nonzero;"/><g><g><rect x="1287.021" y="914.911" width="135.367" height="201.796" style="fill:#d28b75;"/><path d="M1395.004,992.807c-10.688,30.758 -29.125,58.683 -53.229,80.5c-7.633,6.871 -16.471,13.525 -26.179,16.254c-3.6,0.983 -7.308,1.417 -11.125,1.2c-2.183,-0.108 -4.362,-0.546 -6.437,-1.2c-4.038,-1.092 -7.746,-3.162 -11.017,-5.779l0,-174.962c11.233,-6.108 24.108,-9.6 36.758,-11.779c18.217,-3.163 38.287,-3.6 53.775,6.325c13.854,8.725 22.033,24.763 24.217,41.121c2.075,16.25 -1.417,32.829 -6.763,48.321Z" style="fill:#d28b75;fill-opacity:0.68;fill-rule:nonzero;"/></g><path d="M1506.958,743.569c15.688,66.908 -4.175,139.021 -44.113,194.867c-39.938,55.846 -88.658,105.433 -153.621,127.371c-42.767,14.446 -84.812,0.267 -111.408,-27.117c-26.6,-27.379 -38.263,-65.833 -45.137,-103.404c-0.392,-2.287 -0.738,-4.475 -1.129,-6.758c-4.05,-23.85 -6.379,-48.296 -6.483,-72.517c-0.312,-50.862 9.342,-101.333 33.667,-145.546c37.217,-67.379 114.321,-116.008 190.2,-103.496c67.721,11.254 122.383,69.787 138.025,136.6Z" style="fill:#d28b75;fill-rule:nonzero;"/><g><g><path d="M1238.254,668.536c-9.625,22.129 10.338,47.3 33.129,55.233c22.792,7.933 47.796,5.079 71.662,8.654c23.867,3.575 49.742,17.546 53.312,41.413c2.925,19.55 -10.162,40.171 -2.829,58.525c4.929,12.338 17.763,19.683 24.642,31.054c8.467,13.996 6.583,32.304 -0.392,47.1c-6.975,14.796 -18.367,26.958 -29.112,39.292c-24.329,27.929 -46.896,59.658 -52.25,96.308c-5.354,36.65 11.558,78.812 46.296,91.662c20.342,7.525 42.825,4.171 64.517,4.092c21.692,-0.075 45.996,4.821 58.075,22.838c10.513,15.679 8.554,36.525 15.254,54.175c9.842,25.921 37.371,41.463 64.708,46.087c34.846,5.892 72.925,-3.646 98.017,-28.537c25.092,-24.887 34.713,-65.512 19.717,-97.512c-14.558,-31.075 -49.154,-51.754 -55.663,-85.446c-5.688,-29.417 12.096,-57.542 26.363,-83.892c13.312,-24.596 24.275,-51.117 26.25,-79.017c1.975,-27.9 -6.062,-57.479 -26.15,-76.937c-21.788,-21.104 -54.646,-28.075 -75.483,-50.112c-31.475,-33.287 -24.579,-87.312 -45.312,-128.163c-21.113,-41.604 -67.713,-63.6 -112.838,-75.45c-43.779,-11.496 -91.392,-16.033 -133.492,0.587c-42.108,16.621 -76.383,58.963 -68.421,108.046Z" style="fill:#473472;fill-rule:nonzero;"/><g><path d="M1278.287,643.052c4.863,18.638 22.504,31.483 40.854,37.333c18.35,5.85 37.925,6.217 56.975,9.046c19.05,2.829 38.771,8.787 51.738,23.029c16.65,18.288 18.229,45.558 16.229,70.208c-2,24.65 -6.592,50.067 0.846,73.65" style="fill:none;fill-rule:nonzero;stroke:#53629e;stroke-width:6.25px;"/><path d="M1480.946,757.569c-12.367,30.496 -11.958,65.942 1.096,96.15c9.288,21.487 24.958,41.696 24.292,65.096c-1.363,48.117 -69.321,75.508 -67.304,123.6" style="fill:none;fill-rule:nonzero;stroke:#53629e;stroke-width:6.25px;"/><path d="M1408.846,1002.161c-20.958,17.596 -29.675,48.433 -21.025,74.4c8.65,25.967 34.117,45.417 61.442,46.929" style="fill:none;fill-rule:nonzero;stroke:#53629e;stroke-width:6.25px;"/><path d="M1608.208,953.319c-23.75,25.012 -29.371,65.483 -13.333,96.021c12.579,23.958 35.792,40.196 53.442,60.708c15.529,18.05 27.129,41.075 25.317,64.821c-1.812,23.742 -20.342,47.008 -44.121,48.25" style="fill:none;fill-rule:nonzero;stroke:#53629e;stroke-width:6.25px;"/><path d="M1450.429,613.702c38.492,2.946 74.037,30.221 86.85,66.638c8.817,25.058 7.346,52.425 11.367,78.683c4.021,26.258 16.133,54.296 40.742,64.308" style="fill:none;fill-rule:nonzero;stroke:#53629e;stroke-width:6.25px;"/></g></g><path d="M1559.7,694.027c4.188,31.833 22.008,61.896 48.604,81.988c20.237,15.287 44.708,24.642 66.896,37.317c22.187,12.675 43.254,30.362 49.525,54.046c8.062,30.433 -10.292,61.354 -31.112,85.858c-20.821,24.504 -45.633,47.913 -53.917,78.287" style="fill:none;fill-rule:nonzero;stroke:#53629e;stroke-width:6.25px;"/><path d="M1642.629,1054.74c5.192,20.971 19.987,38.104 35.158,53.488c15.167,15.383 31.508,30.329 41.229,49.621c9.721,19.292 11.317,44.529 -2.467,61.167" style="fill:none;fill-rule:nonzero;stroke:#53629e;stroke-width:6.25px;"/></g><g><path d="M1174.854,860.136c-3.333,-6.938 -0.417,-15.263 6.517,-18.596c6.938,-3.337 15.263,-0.417 18.596,6.517c3.338,6.938 0.417,15.263 -6.517,18.596c-6.933,3.338 -15.262,0.417 -18.596,-6.517Z" style="fill:#383838;fill-rule:nonzero;"/><path d="M1292.829,863.244c-3.338,-6.933 -0.417,-15.263 6.517,-18.596c6.933,-3.338 15.263,-0.417 18.596,6.517c3.333,6.933 0.417,15.263 -6.517,18.596c-6.933,3.337 -15.258,0.421 -18.596,-6.517Z" style="fill:#383838;fill-rule:nonzero;"/><path d="M1307.291,924.069c-9.062,-18.842 -1.133,-41.467 17.708,-50.529c18.842,-9.062 41.467,-1.133 50.529,17.708c9.062,18.842 1.133,41.467 -17.708,50.529c-18.846,9.062 -41.467,1.133 -50.529,-17.708Z" style="fill:#e66a5a;fill-rule:nonzero;"/><path d="M1172.279,876.852c9.067,18.85 1.167,41.379 -17.679,50.442c-1.05,0.504 -2.008,0.967 -3.058,1.237c-4.05,-23.85 -6.379,-48.296 -6.483,-72.517c11.363,2.075 21.742,9.45 27.221,20.838Z" style="fill:#e66a5a;fill-rule:nonzero;"/><g><path d="M1459.762,883.502c8.079,-22.017 -2.108,-46.008 -22.75,-53.579c-20.642,-7.575 -43.925,4.137 -52.004,26.154c-8.079,22.021 2.108,46.008 22.75,53.583c20.642,7.571 43.925,-4.142 52.004,-26.158Z" style="fill:#d28b75;fill-rule:nonzero;"/><g><path d="M1438.233,847.369c-13.558,13.95 -23.871,31.038 -29.887,49.538" style="fill:none;fill-rule:nonzero;stroke:#995743;stroke-width:6.25px;"/><path d="M1447.096,872.273c-11.108,-0.871 -22.467,1.729 -32.088,7.35" style="fill:none;fill-rule:nonzero;stroke:#995743;stroke-width:6.25px;"/></g></g><path d="M1322.158,815.761c-10.188,-1.45 -20.379,-2.904 -30.567,-4.354c-5.646,-0.804 -11.996,-1.967 -14.779,-5.654c-2.946,-3.896 -0.188,-9.117 4.771,-11.692c4.958,-2.575 11.425,-3.017 17.487,-2.696c9.196,0.492 18.225,2.567 26.158,6.013c4.067,1.763 7.95,3.971 10.246,7c2.296,3.029 2.692,7.013 -0.008,9.854c-2.7,2.842 -7.962,2.292 -13.308,1.529Z" style="fill:#473472;fill-rule:nonzero;"/><path d="M1184.708,815.761c9.342,-1.45 18.679,-2.904 28.021,-4.354c5.175,-0.804 10.996,-1.967 13.55,-5.654c2.7,-3.896 0.171,-9.117 -4.375,-11.692c-4.546,-2.575 -10.471,-3.017 -16.029,-2.696c-8.429,0.492 -16.708,2.567 -23.979,6.013c-3.725,1.763 -7.287,3.971 -9.392,7c-2.104,3.029 -2.467,7.013 0.008,9.854c2.471,2.842 7.296,2.292 12.196,1.529Z" style="fill:#473472;fill-rule:nonzero;"/><g><path d="M1292.525,967.711c-1.329,1.858 -2.871,3.479 -4.525,5.096c-10.979,10.442 -28.492,15.729 -44.5,12.846c-7.054,-1.229 -13.692,-4.129 -19.271,-8c-8.958,-6.396 -15.425,-15.496 -17.112,-25.396c-0.979,-5.688 0.363,-12.737 6.45,-15.05c1.379,-0.5 2.967,-0.654 4.433,-0.7c2.704,0.125 5.604,0.825 8.288,1.4c14.742,3.392 30.296,3.883 45.308,1.413c5.35,-0.996 10.558,-1.317 14.812,-0.558c4.367,0.767 7.779,2.617 9.646,6.2c3.846,7.288 1.3,15.975 -3.529,22.75Z" style="fill:#383838;fill-rule:nonzero;"/><path d="M1286.412,938.761c-0.292,3.825 -1.254,7.617 -3.858,10.204c-2.842,2.917 -6.954,3.967 -10.933,4.575c-14.338,2.5 -29.317,1.808 -43.354,-2.112c-3.342,-0.946 -6.896,-2.237 -8.908,-5.038c-2.017,-2.8 -1.963,-6.412 -1.35,-9.883c2.704,0.125 5.604,0.825 8.287,1.4c14.742,3.392 30.296,3.883 45.308,1.413c5.35,-0.996 10.554,-1.321 14.808,-0.558Z" style="fill:#fff;fill-rule:nonzero;"/><path d="M1288,972.807c-10.979,10.442 -28.492,15.729 -44.5,12.846c-7.054,-1.229 -13.692,-4.129 -19.271,-8c5.858,-7.067 15.625,-10.904 25.054,-12.162c13.296,-1.871 27.412,0.358 38.717,7.317Z" style="fill:#f28572;fill-rule:nonzero;"/></g><path d="M1235.529,844.782c2.204,9.112 -4.108,17.946 -10.429,24.871c-6.325,6.925 -13.496,14.525 -13.458,23.904c0.037,8.825 7.192,16.683 15.717,18.979c8.521,2.296 17.863,-0.325 25.021,-5.488" style="fill:none;fill-rule:nonzero;stroke:#995743;stroke-width:6.25px;"/></g></g></g><path d="M1595.91,637.356c10.904,-32.071 4.604,-95.867 -22.321,-116.421c-26.925,-20.558 -60.788,-29.212 -93.467,-38.142c-32.679,-8.929 -66.392,-19.279 -91.35,-42.188c-45.988,-42.213 -47.896,-118.996 -14.863,-171.963c33.033,-52.967 93.342,-84.038 154.563,-96.225c57.508,-11.446 119.071,-7.908 172.062,17.183c52.996,25.092 96.242,73.229 108.571,130.554c12.333,57.325 -9.821,122.379 -58.608,154.904c-33.683,22.454 -79.625,31.396 -99.283,66.783c-14.662,26.417 -24.467,84.792 -55.304,95.513Z" style="fill:#d6f4ed;fill-rule:nonzero;"/></g><path d="M146.844,1669.189c0,0 -50.147,-162.737 83.84,-287.253c161.732,-150.3 584.736,-4.58 796.156,-16.651c350.258,-19.999 737.067,-265.966 952.267,12.168c56.889,73.525 143.248,307.752 73.429,360.313c-104.034,78.319 -343.819,-38.895 -469.172,-59.146c-201.255,-32.513 -318.476,48.978 -798.225,107.512c-71.46,8.719 -108.781,39.108 -507.594,-43.436c-122.494,-25.353 -125.009,-62.637 -130.701,-73.506Z" style="fill:#f5df00;"/></g></svg>