<?xml version="1.0" encoding="UTF-8" standalone="no"?><!DOCTYPE svg PUBLIC "-//W3C//DTD SVG 1.1//EN" "http://www.w3.org/Graphics/SVG/1.1/DTD/svg11.dtd"><svg width="100%" height="100%" viewBox="0 0 2126 2126" version="1.1" xmlns="http://www.w3.org/2000/svg" xmlns:xlink="http://www.w3.org/1999/xlink" xml:space="preserve" xmlns:serif="http://www.serif.com/" style="fill-rule:evenodd;clip-rule:evenodd;stroke-linejoin:round;stroke-miterlimit:2;"><g id="Illustration"><g><path d="M2024.562,1431.566c-203.669,479.559 -746.197,748.211 -1216.678,675.744c-76.557,-11.793 -286.439,-46.919 -472.261,-212.633c-357.719,-319.014 -434.221,-950.701 -145.659,-1395.867c210.022,-324.002 586.508,-507.668 944.244,-498.481c77.056,1.979 372.368,14.175 631.896,228.176c38.119,31.433 122.196,106.125 197.969,224.62c177.929,278.247 193.223,665.906 60.489,978.441Z" style="fill:#f5df00;fill-rule:nonzero;"/><path d="M436.613,883.755c0,0 208.91,177.22 293.005,-83.521c0,0 1.338,-6.514 -1.797,-14.996c-1.583,-4.283 -1.53,-20.508 -1.391,-28.819c0.045,-2.672 -2.232,-4.772 -4.895,-4.545c-2.086,0.178 -3.937,1.407 -4.913,3.259l-17.867,33.937c-0.662,6.193 3.284,11.945 9.3,13.559c3.837,1.029 5.773,5.309 3.971,8.851c-73.726,144.927 -261.532,35.095 -264.202,37.278c-9.471,7.742 -20.465,16.399 -11.211,34.995Z" style="fill:url(#_Linear1);fill-rule:nonzero;"/><g><g><g opacity="0.3"><path d="M1118.624,224.989c-1.259,-8.309 3.94,-16.399 12.25,-18.56c18.176,-4.735 36.828,-8.746 55.435,-11.93c9.054,-1.549 17.648,4.533 19.196,13.584c0.017,0.109 0.033,0.215 0.049,0.321c1.353,8.933 -4.691,17.343 -13.635,18.873c-17.679,3.023 -35.396,6.837 -52.662,11.332c-8.885,2.316 -17.969,-3.012 -20.282,-11.901c-0.151,-0.572 -0.264,-1.146 -0.351,-1.718Zm143.376,-20.638c-0.097,-0.642 -0.158,-1.3 -0.18,-1.966c-0.3,-9.178 6.898,-16.864 16.075,-17.163c18.852,-0.613 37.917,-0.427 56.663,0.557c9.171,0.48 16.191,8.268 15.739,17.474c-0.483,9.171 -8.311,16.213 -17.474,15.733c-17.819,-0.933 -35.93,-1.109 -53.847,-0.523c-8.511,0.278 -15.732,-5.894 -16.977,-14.111Zm144.354,11.445c-0.277,-1.83 -0.251,-3.739 0.121,-5.661c1.755,-9.013 10.48,-14.903 19.494,-13.152c18.477,3.586 37.031,8.024 55.142,13.19c8.831,2.524 13.936,11.727 11.43,20.55c-2.518,8.829 -11.721,13.948 -20.55,11.43c-17.199,-4.906 -34.812,-9.119 -52.361,-12.526c-7.092,-1.377 -12.252,-7.075 -13.275,-13.83Zm138.199,43.445c-0.459,-3.025 -0.087,-6.211 1.245,-9.214c3.721,-8.394 13.546,-12.181 21.939,-8.461c17.219,7.64 34.314,16.111 50.811,25.183c8.035,4.429 10.971,14.533 6.555,22.584c-4.424,8.044 -14.536,10.979 -22.583,6.555c-15.665,-8.617 -31.902,-16.667 -48.267,-23.919c-5.388,-2.394 -8.877,-7.297 -9.7,-12.727Zm125.038,73.171c-0.642,-4.242 0.347,-8.728 3.115,-12.435c5.493,-7.362 15.912,-8.875 23.268,-3.381c15.057,11.238 29.849,23.281 43.95,35.795c6.874,6.089 7.507,16.599 1.408,23.471c-6.094,6.867 -16.601,7.498 -23.475,1.405c-13.403,-11.896 -27.461,-23.341 -41.771,-34.022c-3.651,-2.725 -5.864,-6.659 -6.496,-10.833Zm105.731,99.002c-0.832,-5.494 1.103,-11.279 5.64,-15.152c6.987,-5.962 17.478,-5.134 23.442,1.848c12.219,14.313 23.98,29.33 34.943,44.634c5.35,7.469 3.631,17.853 -3.836,23.202c-7.46,5.347 -17.85,3.631 -23.198,-3.833c-10.421,-14.542 -21.588,-28.809 -33.2,-42.409c-2.091,-2.449 -3.341,-5.326 -3.791,-8.29Zm130.407,596.477c-0.345,-2.276 -0.22,-4.656 0.448,-7.015c4.871,-17.187 9.058,-34.819 12.438,-52.403c1.734,-9.016 10.45,-14.922 19.463,-13.187c9.019,1.73 14.924,10.446 13.19,19.465c-3.56,18.519 -7.966,37.091 -13.093,55.189c-2.504,8.837 -11.698,13.968 -20.532,11.463c-6.479,-1.833 -10.968,-7.265 -11.914,-13.514Zm-49.298,-476.583c-1.033,-6.82 2.278,-13.842 8.73,-17.22c8.138,-4.261 18.184,-1.119 22.445,7.015c8.734,16.673 16.846,33.929 24.114,51.29c3.506,8.485 -0.44,18.213 -8.915,21.761c-8.469,3.546 -18.211,-0.447 -21.761,-8.918c-6.899,-16.488 -14.604,-32.873 -22.896,-48.706c-0.878,-1.682 -1.448,-3.445 -1.717,-5.221Zm72.827,333.663c-0.165,-1.085 -0.229,-2.202 -0.171,-3.341c0.901,-17.853 1.039,-35.981 0.422,-53.88c-0.313,-9.178 6.87,-16.876 16.045,-17.192c9.175,-0.313 16.916,6.857 17.192,16.045c0.646,18.834 0.501,37.91 -0.443,56.695c-0.463,9.172 -8.274,16.234 -17.443,15.771c-8.03,-0.402 -14.443,-6.444 -15.602,-14.098Zm-20.533,-198.657c-1.257,-8.296 3.924,-16.377 12.219,-18.553c8.883,-2.332 17.971,2.979 20.309,11.861c4.772,18.186 8.824,36.823 12.031,55.394c0.024,0.114 0.042,0.233 0.06,0.349c1.351,8.92 -4.674,17.321 -13.603,18.868c-9.052,1.565 -17.655,-4.499 -19.218,-13.55c-3.053,-17.639 -6.904,-35.34 -11.44,-52.619c-0.148,-0.582 -0.27,-1.168 -0.358,-1.749Z" style="fill:#cdb6ff;fill-rule:nonzero;"/><path d="M1863.862,1136.883c-0.49,-3.237 -0.036,-6.652 1.522,-9.815c3.788,-7.691 7.472,-15.59 10.967,-23.477c3.713,-8.396 13.537,-12.193 21.931,-8.476c8.4,3.713 12.206,13.539 8.473,21.935c-3.669,8.298 -7.548,16.603 -11.531,24.699c-4.054,8.238 -14.023,11.633 -22.257,7.58c-5.081,-2.498 -8.316,-7.243 -9.104,-12.445Z" style="fill:url(#_Linear2);fill-rule:nonzero;"/></g><g opacity="0.3"><path d="M1480.2,1468.208c-1.202,-7.934 3.494,-15.789 11.382,-18.311c8.165,-2.606 16.414,-5.43 24.512,-8.391c8.627,-3.153 18.174,1.283 21.326,9.907c3.165,8.661 -1.287,18.175 -9.907,21.326c-8.527,3.115 -17.214,6.09 -25.81,8.837c-8.747,2.793 -18.103,-2.032 -20.9,-10.78c-0.275,-0.858 -0.472,-1.724 -0.603,-2.588Z" style="fill:#cdb6ff;fill-rule:nonzero;"/><path d="M642.476,949.14c-1.146,-7.564 -2.168,-15.177 -3.066,-22.836c-1.066,-9.121 5.46,-17.381 14.58,-18.451c9.12,-1.07 17.42,5.497 18.454,14.577c2.073,17.675 4.857,35.226 8.321,52.362c1.805,9.012 -4.001,17.772 -13.001,19.592c-9.006,1.821 -17.778,-4.003 -19.595,-13.004c-2.144,-10.6 -4.057,-21.447 -5.692,-32.239Zm-7.305,-110.518c-0.139,-0.918 -0.203,-1.864 -0.184,-2.826c0.349,-18.548 1.491,-37.289 3.392,-55.697c0.941,-9.132 9.112,-15.773 18.242,-14.831c9.136,0.944 15.801,9.128 14.832,18.248c-1.805,17.485 -2.885,35.286 -3.223,52.912c-0.172,9.18 -7.757,16.481 -16.934,16.308c-8.222,-0.157 -14.933,-6.251 -16.124,-14.114Zm36.235,227.113c-1.175,-7.751 3.284,-15.485 10.951,-18.167c8.672,-3.032 18.154,1.539 21.188,10.207c5.796,16.582 12.385,33.14 19.59,49.219c3.741,8.387 0.001,18.219 -8.377,21.972c-8.384,3.753 -18.222,0.002 -21.975,-8.38c-7.584,-16.933 -14.522,-34.373 -20.63,-51.835c-0.348,-0.998 -0.594,-2.008 -0.746,-3.016Zm-17.854,-368.501c-0.316,-2.087 -0.232,-4.267 0.298,-6.443c4.413,-18.001 9.65,-36.031 15.563,-53.587c2.931,-8.701 12.36,-13.378 21.061,-10.446c8.708,2.931 13.387,12.354 10.45,21.064c-5.613,16.669 -10.587,33.789 -14.776,50.886c-2.182,8.92 -11.19,14.376 -20.106,12.19c-6.741,-1.652 -11.51,-7.201 -12.49,-13.663Zm79.485,496.936c-0.963,-6.357 1.831,-12.975 7.634,-16.601c7.789,-4.865 18.048,-2.495 22.913,5.295c9.298,14.892 19.369,29.595 29.928,43.706c5.502,7.351 4.007,17.773 -3.351,23.275c-7.352,5.499 -17.767,4 -23.269,-3.352c-11.119,-14.853 -21.721,-30.333 -31.514,-46.014c-1.238,-1.983 -2.01,-4.133 -2.341,-6.309Zm88.324,111.805c-0.77,-5.082 0.821,-10.45 4.757,-14.338c6.538,-6.449 17.066,-6.379 23.515,0.159c12.37,12.535 25.413,24.696 38.762,36.143c6.98,5.968 7.788,16.461 1.804,23.444c-5.979,6.972 -16.473,7.777 -23.448,1.802c-14.05,-12.047 -27.773,-24.843 -40.789,-38.037c-2.561,-2.594 -4.094,-5.82 -4.602,-9.172Zm110.598,89.888c-0.585,-3.866 0.181,-7.949 2.469,-11.495c4.973,-7.717 15.265,-9.939 22.982,-4.963c14.815,9.554 30.188,18.585 45.708,26.843c8.103,4.313 11.184,14.373 6.863,22.49c-4.317,8.104 -14.381,11.178 -22.491,6.863c-16.327,-8.693 -32.515,-18.197 -48.101,-28.248c-4.173,-2.692 -6.741,-6.937 -7.43,-11.49Zm127.559,63.625c-0.405,-2.679 -0.162,-5.491 0.838,-8.213c3.168,-8.619 12.72,-13.035 21.339,-9.867c16.536,6.08 33.513,11.519 50.469,16.17c8.855,2.43 14.067,11.588 11.641,20.43c-2.428,8.858 -11.578,14.068 -20.434,11.638c-17.86,-4.897 -35.742,-10.626 -53.148,-17.025c-5.899,-2.171 -9.827,-7.33 -10.706,-13.132Zm138.469,34.083c-0.228,-1.506 -0.248,-3.07 -0.041,-4.655c1.189,-9.103 9.538,-15.522 18.639,-14.329c17.425,2.277 35.175,3.842 52.77,4.644c9.175,0.419 16.263,8.224 15.848,17.368c-0.417,9.174 -8.197,16.271 -17.371,15.851c-18.521,-0.847 -37.211,-2.492 -55.553,-4.893c-7.52,-0.982 -13.21,-6.847 -14.292,-13.988Zm142.477,2.828c-0.051,-0.337 -0.09,-0.68 -0.121,-1.023c-0.821,-9.144 5.93,-17.226 15.075,-18.043c12.911,-1.158 25.935,-2.727 38.728,-4.666c4.63,-0.702 9.245,-1.456 13.834,-2.253c9.05,-1.572 17.661,4.489 19.229,13.536c1.771,9.129 -4.486,17.654 -13.529,19.228c-4.833,0.84 -9.679,1.63 -14.552,2.369c-13.453,2.039 -27.163,3.688 -40.74,4.905c-8.802,0.791 -16.616,-5.432 -17.922,-14.052Z" style="fill:#cdb6ff;fill-rule:nonzero;"/><path d="M702.804,563.014c-0.495,-3.269 -0.026,-6.712 1.556,-9.893c4.015,-8.057 8.276,-16.182 12.665,-24.148c4.431,-8.045 14.543,-10.973 22.585,-6.542c8.042,4.434 10.979,14.536 6.542,22.585c-4.168,7.568 -8.215,15.286 -12.028,22.934c-4.089,8.217 -14.073,11.563 -22.294,7.467c-5.038,-2.512 -8.243,-7.235 -9.027,-12.404Z" style="fill:#cdb6ff;fill-rule:nonzero;"/></g><g><path d="M896.845,556.308c-2.225,2.457 -2.647,6.056 -1.05,8.961l45.574,82.879c-21.405,38.637 -36.804,80.966 -44.973,125.682l-87.727,35.189c-3.078,1.234 -5.032,4.285 -4.869,7.596l5.602,113.313c0.165,3.312 2.412,6.154 5.593,7.079l90.771,26.362c12.542,43.693 32.039,84.295 57.154,120.632l-37.176,86.972c-1.303,3.048 -0.528,6.587 1.928,8.813l84.086,76.163c2.459,2.227 6.058,2.648 8.961,1.05l82.879,-45.573c38.637,21.406 80.967,36.804 125.683,44.972l35.19,87.729c1.234,3.077 4.284,5.032 7.595,4.868l113.315,-5.603c3.311,-0.163 6.154,-2.411 7.078,-5.595l26.363,-90.771c43.693,-12.54 84.296,-32.038 120.632,-57.152l86.973,37.176c3.047,1.301 6.587,0.528 8.813,-1.929l76.162,-84.087c2.228,-2.457 2.647,-6.056 1.051,-8.961l-45.574,-82.879c21.407,-38.636 36.805,-80.967 44.973,-125.682l87.73,-35.189c3.076,-1.235 5.032,-4.284 4.869,-7.595l-5.604,-113.314c-0.162,-3.312 -2.409,-6.154 -5.594,-7.078l-90.771,-26.362c-12.539,-43.693 -32.039,-84.296 -57.153,-120.632l37.175,-86.971c1.305,-3.048 0.529,-6.589 -1.928,-8.815l-84.087,-76.162c-2.457,-2.225 -6.056,-2.647 -8.961,-1.051l-82.879,45.573c-38.637,-21.406 -80.967,-36.804 -125.683,-44.972l-35.189,-87.729c-1.233,-3.076 -4.284,-5.032 -7.596,-4.867l-113.312,5.602c-3.312,0.164 -6.154,2.41 -7.08,5.593l-26.362,90.771c-43.691,12.541 -84.294,32.039 -120.632,57.152l-86.972,-37.174c-3.049,-1.304 -6.587,-0.529 -8.814,1.928l-76.164,84.088Z" style="fill:#7f64b3;fill-rule:nonzero;"/><path d="M1191.352,865.681c-8.327,-54.962 24.721,-109.339 79.43,-126.066c60.139,-18.384 124.013,15.583 142.398,75.717c8.914,29.133 5.936,59.989 -8.365,86.878c-14.299,26.895 -38.218,46.614 -67.349,55.517c-60.14,18.384 -124.013,-15.583 -142.398,-75.716c-1.656,-5.421 -2.89,-10.881 -3.716,-16.33Zm199.264,-29.926c-0.643,-4.245 -1.597,-8.465 -2.875,-12.646c-14.093,-46.105 -63.076,-72.146 -109.177,-58.055c-46.107,14.096 -72.171,63.066 -58.056,109.18c14.092,46.105 63.075,72.146 109.176,58.055c22.338,-6.829 40.675,-21.944 51.641,-42.567c8.91,-16.761 12.083,-35.534 9.291,-53.967Z" style="fill:#cdb6ff;fill-rule:nonzero;"/><path d="M1028.849,892.659c-1.43,-9.44 -2.394,-19.006 -2.873,-28.672c-0.152,-3.042 -0.252,-6.088 -0.306,-9.134c-0.259,-15.021 0.678,-30.038 2.794,-44.82c0.029,-0.201 0.057,-0.403 0.085,-0.604c0.084,-0.571 0.169,-1.142 0.26,-1.714c0.166,-1.112 0.347,-2.223 0.526,-3.332c0.478,-2.916 2.785,-5.076 5.558,-5.5c0.674,-0.102 1.377,-0.1 2.085,0.016c3.625,0.594 6.068,4.021 5.48,7.64c-3.067,18.651 -4.14,37.756 -3.195,56.787c4.659,94.536 58.199,175.287 134.901,219.007c42.66,24.323 92.489,37.184 145.067,34.581c9.22,-0.454 18.35,-1.37 27.353,-2.738c60.593,-9.187 115.725,-38.688 157.42,-84.725c47.898,-52.878 72.336,-121.247 68.813,-192.502c-7.292,-147.165 -132.874,-260.863 -279.969,-253.588c-9.07,0.448 -18.084,1.354 -27.003,2.708c-38.651,5.863 -75.59,20.117 -108.116,41.871c-0.841,0.561 -1.761,0.907 -2.699,1.046c-2.466,0.374 -5.047,-0.664 -6.525,-2.878c-2.034,-3.061 -1.233,-7.184 1.834,-9.228c34.148,-22.838 72.93,-37.808 113.507,-43.962c9.362,-1.422 18.822,-2.372 28.341,-2.846c154.437,-7.638 286.28,111.834 293.917,266.216c3.701,74.809 -21.957,146.577 -72.241,202.09c-43.771,48.332 -101.65,79.301 -165.261,88.948c-9.453,1.432 -19.036,2.394 -28.711,2.875c-74.813,3.698 -146.584,-21.956 -202.096,-72.237c-48.34,-43.781 -79.308,-101.679 -88.948,-165.305Z" style="fill:#cdb6ff;fill-rule:nonzero;"/></g></g><g><g opacity="0.3"><path d="M291.606,230.541c-2.016,-3.864 -1.352,-8.737 1.95,-11.913c6.16,-5.932 12.584,-11.758 19.094,-17.314c4.231,-3.61 10.583,-3.108 14.201,1.123c3.635,4.224 3.107,10.59 -1.123,14.202c-6.203,5.294 -12.326,10.847 -18.207,16.507c-4.001,3.857 -10.379,3.734 -14.243,-0.27c-0.683,-0.715 -1.237,-1.502 -1.672,-2.335Z" style="fill:url(#_Linear3);fill-rule:nonzero;"/><path d="M352.126,182.147c-2.361,-4.526 -0.959,-10.196 3.393,-13.06c12.295,-8.103 25.149,-15.664 38.195,-22.471c2.747,-1.433 5.52,-2.84 8.314,-4.227c4.993,-2.467 10.983,-0.067 13.505,4.554c2.468,4.986 0.427,11.028 -4.552,13.499c-2.672,1.323 -5.323,2.666 -7.948,4.035c-12.446,6.494 -24.704,13.706 -36.432,21.428c-4.648,3.064 -10.891,1.777 -13.956,-2.865c-0.187,-0.296 -0.364,-0.592 -0.521,-0.894Zm93.732,-46.411c-0.22,-0.422 -0.42,-0.868 -0.582,-1.326c-1.842,-5.252 0.917,-11.003 6.167,-12.849c16.839,-5.923 34.196,-10.851 51.578,-14.646c5.438,-1.19 10.802,2.287 11.991,7.692c1.185,5.44 -2.253,10.8 -7.691,11.99c-16.585,3.622 -33.139,8.325 -49.2,13.971c-4.782,1.679 -9.982,-0.462 -12.262,-4.831Zm102.187,-22.294c-0.591,-1.134 -0.973,-2.398 -1.101,-3.748c-0.504,-5.539 3.587,-10.437 9.126,-10.941c17.749,-1.605 35.798,-2.124 53.631,-1.52c5.568,0.185 9.911,4.832 9.726,10.409c-0.186,5.556 -4.848,9.913 -10.403,9.727c-17.009,-0.572 -34.21,-0.087 -51.138,1.451c-4.187,0.376 -8.009,-1.868 -9.841,-5.378Zm104.546,3.509c-0.965,-1.85 -1.361,-4.011 -1.018,-6.226c0.873,-5.493 6.037,-9.248 11.531,-8.375c17.637,2.798 35.247,6.713 52.356,11.645c5.344,1.545 8.418,7.137 6.884,12.47c-1.537,5.346 -7.119,8.429 -12.471,6.89c-16.302,-4.704 -33.109,-8.439 -49.923,-11.105c-3.278,-0.519 -5.931,-2.564 -7.358,-5.298Zm100.514,28.936c-1.347,-2.582 -1.569,-5.728 -0.336,-8.619c2.18,-5.114 8.097,-7.491 13.216,-5.314c16.401,6.999 32.53,15.071 47.93,24.002c4.827,2.786 6.457,8.953 3.666,13.766c-2.792,4.814 -8.959,6.455 -13.765,3.665c-14.698,-8.519 -30.08,-16.223 -45.734,-22.895c-2.228,-0.952 -3.937,-2.613 -4.977,-4.605Zm90.434,52.449c-1.746,-3.344 -1.527,-7.542 0.904,-10.752c3.357,-4.431 9.674,-5.296 14.11,-1.941c14.209,10.772 27.881,22.535 40.623,34.96c3.981,3.909 4.057,10.266 0.178,14.249c-3.88,3.982 -10.263,4.062 -14.242,0.18c-12.153,-11.851 -25.181,-23.061 -38.728,-33.33c-1.228,-0.93 -2.178,-2.088 -2.844,-3.366Zm74.846,72.948c-2.184,-4.186 -1.178,-9.465 2.644,-12.519c4.347,-3.472 10.686,-2.764 14.161,1.581c11.096,13.884 21.461,28.648 30.819,43.882c2.837,4.799 1.421,10.954 -3.321,13.859c-4.739,2.912 -10.941,1.427 -13.855,-3.311c-8.917,-14.538 -18.806,-28.618 -29.385,-41.856c-0.415,-0.521 -0.767,-1.07 -1.063,-1.636Zm73.482,138.066c-0.268,-0.514 -0.5,-1.065 -0.68,-1.643c-4.413,-14.008 -9.67,-28.019 -15.629,-41.649c-0.891,-2.07 -1.79,-4.092 -2.714,-6.096c-2.31,-5.065 -0.09,-11.038 4.972,-13.352c5.067,-2.327 11.203,-0.136 13.354,4.965c0.974,2.143 1.937,4.287 2.871,6.458c6.22,14.242 11.733,28.93 16.358,43.621c1.671,5.309 -1.272,10.961 -6.58,12.632c-4.727,1.49 -9.734,-0.685 -11.953,-4.937Z" style="fill:#cdb6ff;fill-rule:nonzero;"/></g><g opacity="0.3"><path d="M212.39,738.653c-2.544,-4.875 -0.699,-10.909 4.16,-13.527c4.894,-2.637 11.008,-0.806 13.643,4.094c7.939,14.748 16.845,29.136 26.474,42.764c3.148,4.544 2.135,10.831 -2.415,14.042c-4.549,3.212 -10.831,2.124 -14.042,-2.415c-10.09,-14.297 -19.434,-29.377 -27.756,-44.836c-0.02,-0.039 -0.044,-0.083 -0.064,-0.122Zm-21.66,-46.763c-0.169,-0.323 -0.317,-0.651 -0.453,-0.995c-6.41,-16.324 -11.888,-33.204 -16.291,-50.169c-1.391,-5.388 1.834,-10.881 7.22,-12.277c5.392,-1.405 10.882,1.866 12.286,7.215c4.198,16.19 9.428,32.296 15.539,47.876c2.035,5.175 -0.519,11.023 -5.694,13.053c-4.845,1.9 -10.258,-0.202 -12.606,-4.702Zm81.021,130.759c-2.066,-3.96 -1.303,-8.962 2.158,-12.111c4.108,-3.737 10.479,-3.437 14.224,0.679c11.282,12.394 23.404,24.205 36.049,35.105c4.205,3.658 4.682,9.995 1.043,14.207c-3.628,4.212 -9.995,4.683 -14.208,1.051c-13.253,-11.427 -25.962,-23.814 -37.781,-36.809c-0.6,-0.659 -1.093,-1.372 -1.484,-2.122Zm-106.798,-230.393c-0.53,-1.015 -0.895,-2.14 -1.057,-3.342c-2.297,-17.397 -3.541,-35.114 -3.692,-52.649c-0.052,-5.564 4.421,-10.112 9.986,-10.165c5.548,-0.043 10.099,4.428 10.158,9.984c0.149,16.722 1.336,33.606 3.523,50.196c0.725,5.514 -3.156,10.579 -8.671,11.304c-4.31,0.567 -8.346,-1.682 -10.248,-5.328Zm184.699,297.542c-1.65,-3.161 -1.567,-7.106 0.555,-10.27c3.098,-4.63 9.355,-5.864 13.977,-2.772c13.887,9.305 28.488,17.851 43.414,25.404c4.974,2.515 6.951,8.579 4.436,13.542c-2.515,4.962 -8.579,6.951 -13.541,4.436c-15.643,-7.927 -30.957,-16.885 -45.52,-26.635c-1.452,-0.973 -2.566,-2.261 -3.319,-3.704Zm91.737,46.504c-1.263,-2.42 -1.542,-5.337 -0.542,-8.1c1.898,-5.23 7.677,-7.933 12.906,-6.035c15.754,5.716 31.99,10.526 48.249,14.298c5.427,1.257 8.799,6.677 7.539,12.089c-1.255,5.42 -6.664,8.791 -12.08,7.535c-17.052,-3.952 -34.073,-8.991 -50.58,-14.981c-2.461,-0.894 -4.367,-2.651 -5.492,-4.805Zm100.247,23.19c-0.887,-1.701 -1.304,-3.669 -1.078,-5.723c0.587,-5.533 5.553,-9.539 11.087,-8.948c16.656,1.79 33.571,2.562 50.266,2.301c5.552,-0.079 10.14,4.357 10.222,9.917c0.085,5.564 -4.35,10.142 -9.919,10.229c-17.504,0.267 -35.245,-0.539 -52.719,-2.407c-3.48,-0.375 -6.355,-2.482 -7.86,-5.369Z" style="fill:#cdb6ff;fill-rule:nonzero;"/><path d="M164.065,488.886c-0.899,-1.723 -1.309,-3.722 -1.072,-5.798c0.979,-8.567 2.219,-17.141 3.675,-25.491c0.96,-5.477 6.178,-9.149 11.66,-8.192c5.467,0.971 9.137,6.179 8.191,11.66c-1.394,7.961 -2.573,16.144 -3.512,24.318c-0.632,5.528 -5.631,9.495 -11.154,8.86c-3.448,-0.398 -6.294,-2.491 -7.789,-5.356Z" style="fill:url(#_Linear4);fill-rule:nonzero;"/></g><g><path d="M283.31,436.111c-0.858,1.998 -0.354,4.324 1.257,5.786l45.951,41.746c-5.058,28.547 -5.601,58.107 -1.146,87.609l-46.968,40.536c-1.648,1.421 -2.212,3.732 -1.405,5.753l27.618,69.156c0.808,2.021 2.808,3.307 4.981,3.203l61.97,-2.972c17.094,24.454 37.849,45.508 61.182,62.717l-4.552,61.915c-0.159,2.17 1.076,4.202 3.076,5.061l68.429,29.371c2.001,0.858 4.325,0.353 5.788,-1.257l41.746,-45.95c28.548,5.059 58.108,5.601 87.61,1.146l40.536,46.969c1.422,1.648 3.732,2.211 5.753,1.405l69.156,-27.619c2.022,-0.807 3.308,-2.808 3.202,-4.981l-2.971,-61.971c24.455,-17.094 45.508,-37.849 62.717,-61.181l61.917,4.551c2.169,0.159 4.202,-1.076 5.06,-3.074l29.371,-68.431c0.859,-1.999 0.353,-4.323 -1.257,-5.786l-45.952,-41.746c5.06,-28.547 5.601,-58.107 1.146,-87.609l46.969,-40.537c1.647,-1.421 2.212,-3.731 1.405,-5.753l-27.62,-69.156c-0.807,-2.021 -2.807,-3.307 -4.981,-3.202l-61.97,2.972c-17.094,-24.455 -37.85,-45.509 -61.183,-62.718l4.552,-61.913c0.16,-2.171 -1.076,-4.204 -3.075,-5.062l-68.429,-29.371c-2,-0.858 -4.324,-0.354 -5.788,1.257l-41.746,45.949c-28.548,-5.059 -58.108,-5.599 -87.61,-1.145l-40.536,-46.97c-1.421,-1.646 -3.732,-2.212 -5.753,-1.402l-69.155,27.617c-2.021,0.808 -3.307,2.808 -3.203,4.981l2.971,61.971c-24.454,17.094 -45.508,37.849 -62.717,61.181l-61.916,-4.55c-2.171,-0.159 -4.202,1.076 -5.062,3.075l-29.37,68.429Z" style="fill:#7f64b3;fill-rule:nonzero;"/><path d="M530.812,565.966c-7.517,-14.407 -10.212,-30.777 -7.608,-47.115c3.206,-20.098 14.049,-37.744 30.53,-49.689c34.004,-24.656 81.737,-17.045 106.407,16.968c24.631,34.107 17.041,81.762 -16.974,106.417c-16.479,11.949 -36.625,16.763 -56.718,13.554c-20.102,-3.202 -37.752,-14.044 -49.695,-30.531c-2.229,-3.081 -4.216,-6.294 -5.943,-9.604Zm117.349,-61.013c-1.254,-2.403 -2.696,-4.74 -4.33,-7.001c-18.146,-25.017 -53.256,-30.615 -78.278,-12.477c-12.115,8.784 -20.099,21.767 -22.452,36.547c-2.357,14.79 1.196,29.596 9.967,41.73c8.787,12.12 21.771,20.097 36.55,22.455c14.79,2.357 29.607,-1.184 41.732,-9.974c22.759,-16.498 29.45,-47.056 16.81,-71.28Z" style="fill:#cdb6ff;fill-rule:nonzero;"/><path d="M431.778,619.272c-2.949,-5.651 -5.632,-11.497 -8.051,-17.536c-4.795,-11.995 -8.374,-24.491 -10.641,-37.172c-0.098,-0.57 -0.195,-1.141 -0.293,-1.711c-0.75,-4.413 1.494,-8.641 5.259,-10.611c0.916,-0.478 1.924,-0.821 2.994,-1.002c5.484,-0.93 10.661,2.782 11.607,8.252c2.004,11.859 5.3,23.554 9.783,34.763l0.002,0.005c0.244,0.616 0.5,1.231 0.749,1.839c10.851,26.432 27.88,49.159 49.473,66.725c11.721,9.534 24.801,17.545 38.986,23.786c0.115,0.051 0.23,0.102 0.345,0.153c0.358,0.152 0.705,0.309 1.06,0.457c41.634,17.866 87.734,18.456 129.806,1.652c5.447,-2.171 10.736,-4.603 15.864,-7.279c34.5,-18.007 61.532,-47.091 77.094,-83.338c17.867,-41.634 18.447,-87.73 1.645,-129.799c-16.808,-42.038 -48.986,-75.085 -90.614,-92.96c-41.632,-17.866 -87.734,-18.456 -129.806,-1.652c-5.355,2.134 -10.581,4.54 -15.656,7.188c-22.011,11.49 -41.257,27.662 -56.306,47.431c-0.929,1.218 -2.077,2.166 -3.352,2.826c-3.349,1.748 -7.558,1.53 -10.763,-0.914c-4.417,-3.382 -5.287,-9.686 -1.909,-14.123c16.842,-22.119 38.377,-40.219 62.993,-53.073c5.686,-2.967 11.529,-5.656 17.517,-8.046c47.078,-18.8 98.652,-18.142 145.233,1.853c46.572,19.994 82.599,56.886 101.375,103.994c18.803,47.072 18.149,98.642 -1.852,145.224c-17.4,40.552 -47.646,73.089 -86.245,93.234c-5.73,2.99 -11.654,5.715 -17.74,8.147c-91.138,36.391 -194.103,-3.111 -238.558,-88.311Z" style="fill:#cdb6ff;fill-rule:nonzero;"/></g></g></g><g><path d="M2065.647,2072.113c0,0 7.964,12.554 9.968,47.704c0.187,3.275 -2.408,6.066 -5.687,6.066l-62.291,0c-2.506,0 -4.295,-2.458 -3.493,-4.832c3.65,-10.803 14.687,-37.143 39.313,-52.194l22.19,3.256Z" style="fill:#473472;fill-rule:nonzero;"/><path d="M2068.355,2048.296l-3.523,29.542c-0.304,2.549 -2.301,4.589 -4.852,4.883c-3.407,0.393 -8.359,0.669 -13.171,-0.125c-4.375,-0.721 -7.523,-4.618 -7.523,-9.052l0,-28.523l29.068,3.275Z" style="fill:url(#_Linear5);fill-rule:nonzero;"/><path d="M1911.528,2068.857c0,0 11.922,18.532 11.667,43.97c-0.06,5.991 -5.076,10.764 -11.068,10.764l-96.745,0c-4.53,0 -6.369,-5.821 -2.662,-8.425c18.307,-12.856 54.289,-36.871 80.314,-46.31l18.494,0l0,0.001Z" style="fill:#473472;fill-rule:nonzero;"/><path d="M1921.491,2036.953l-7.515,36.485c-0.84,4.081 -4.833,6.825 -8.899,5.918c-2.472,-0.552 -5.388,-1.609 -8.505,-3.557c-2.962,-1.852 -4.463,-5.375 -3.858,-8.815l7.774,-44.202l21.003,14.171Z" style="fill:url(#_Linear6);fill-rule:nonzero;"/><path d="M2054.551,1529.678c0,0 26.13,23.036 31.047,50.752c4.918,27.715 -13.932,478.187 -13.932,478.187c0,0 -26.129,4.347 -39.598,-3.814c0,0 -15.975,-292.353 -28.118,-359.908c0,0 -63.682,302.839 -81.326,357.558c0,0 -25.173,3.062 -33.29,-1.727c0,0 16.681,-392.564 37.642,-462.356l127.574,-58.691Z" style="fill:#473472;fill-rule:nonzero;"/><path d="M2004.71,1685.329c1.231,0 2.356,-0.827 2.681,-2.073l10.827,-41.531l23.066,-14.797c1.289,-0.827 1.664,-2.542 0.837,-3.831c-0.827,-1.289 -2.545,-1.668 -3.831,-0.834l-23.979,15.382c-0.587,0.376 -1.011,0.957 -1.186,1.632l-11.1,42.578c-0.386,1.484 0.502,2.997 1.984,3.384c0.235,0.061 0.471,0.09 0.702,0.09Z" style="fill:#7f64b3;fill-rule:nonzero;"/><path d="M1799.427,1218.743c106.689,28.287 126.138,59.374 126.138,59.374l-77.786,60.89c0,0 -101.106,-38.259 -154.048,-120.466c18.89,-9.844 34.158,-22.72 44.745,-33.209c16.031,14.515 36.064,26.813 60.951,33.411Z" style="fill:#87bac3;fill-rule:nonzero;"/><path d="M1691.3,1008.865c1.322,-3.271 6.144,-2.572 6.483,0.939l3.179,32.923c0.613,6.362 -0.74,12.758 -3.88,18.324l-10.484,14.772c-4.239,7.515 -5.068,16.466 -2.25,24.621c6.742,19.514 22.742,56.466 54.13,84.886c-10.587,10.489 -25.855,23.364 -44.745,33.209c-19.425,-30.162 -32.375,-66.236 -31.454,-108.516c-5.352,-3.985 -7.353,-11.071 -4.878,-17.267l33.9,-83.891Z" style="fill:url(#_Linear7);fill-rule:nonzero;"/><path d="M1760.49,1317.77c38.723,-41.726 112.481,-60.577 155.185,-68.321c18.709,-3.393 37.151,7.018 43.78,24.839c19.218,51.66 71.484,186.06 81.614,209.159c8.311,18.95 16.99,37.458 22.504,49.03c3.294,6.913 0.416,15.185 -6.483,18.51c-35.928,17.318 -100.578,36.911 -126.788,44.555c-5.765,1.682 -11.506,-2.647 -11.506,-8.652c0,-5.093 -1.384,-10.091 -4.005,-14.458l-99.263,-165.413c-61.869,68.6 -116.051,74.873 -157.673,59.858c6.999,-21.629 11.578,-43.298 13.775,-65.009c61.49,-10.534 88.86,-84.097 88.86,-84.097Z" style="fill:#87bac3;fill-rule:nonzero;"/><path d="M1569.998,1390.354l11.097,-14.796c35.925,24.672 65.954,30.52 90.537,26.309c-2.196,21.71 -6.776,43.379 -13.775,65.009c-54.833,-19.781 -87.859,-76.521 -87.859,-76.521Z" style="fill:url(#_Linear8);fill-rule:nonzero;"/><path d="M1577.823,1390.621l-62.517,2.437l-57.56,-32.148c8.262,-5.18 54.985,5.407 54.985,5.407c0,0 48.843,-7.387 62.062,-7.404c10.979,-0.014 9.411,15.774 8.564,21.124c-0.173,1.092 -0.316,1.749 -0.316,1.749l-5.219,8.835Z" style="fill:url(#_Linear9);fill-rule:nonzero;"/><path d="M1856.938,1172.818l32.985,80.491c0,0 -37.9,26.233 -68.392,23.736l-16.462,-72.376l51.868,-31.851Z" style="fill:url(#_Linear10);fill-rule:nonzero;"/><g><path d="M1801.219,1117.945c-0.755,1.07 -23.863,84.548 -23.863,84.548l47.945,12.181l33.656,-75.866c0,0 -45.091,-38.781 -57.738,-20.863Z" style="fill:url(#_Linear11);fill-rule:nonzero;"/><path d="M1840.902,1150.334l-14.59,41.324c-0.187,0.53 -0.438,1.02 -0.762,1.48c-1.98,2.813 -9.501,11.991 -18.422,3.724c-8.095,-7.502 -15.595,-14.228 -22.521,-15.449c-3.11,-0.548 -6.123,1.349 -6.964,4.393c-2.097,7.585 -6.508,24.764 -8.062,40.275c-0.315,3.148 1.858,5.992 4.965,6.582c9.365,1.779 29.219,4.976 45.795,3.808c2.246,-0.158 4.222,-1.506 5.159,-3.553c4.568,-9.981 18.564,-40.266 23.769,-48.103c4.886,-7.355 16.863,-7.149 21.886,-6.703c1.647,0.146 3.266,-0.384 4.509,-1.474c4.395,-3.852 12.758,-13.686 0.993,-25.459c-2.462,-2.464 -2.396,-6.438 0.142,-8.825c5.052,-4.75 10.456,-13.175 2.039,-23.624c-8.556,-10.621 -19.85,-8.93 -26.769,-6.406c-2.798,1.021 -5.85,-0.162 -7.371,-2.723c-0.866,-1.458 -2.376,-2.561 -4.995,-2.335c-3.529,0.304 -6.496,-2.641 -6.433,-6.183c0.122,-6.804 -2.313,-15.401 -14.117,-19.074c-20.944,-6.519 -34.005,13.715 -35.299,28.814c-1.294,15.098 21.816,20.875 35.404,19.857c10.332,-0.774 18.003,9.466 21.086,14.42c0.976,1.569 1.172,3.493 0.557,5.237Z" style="fill:#473472;fill-rule:nonzero;"/><path d="M1843.808,1199.808c0,0 3.382,-26.211 14.287,-27.496c10.904,-1.284 21.517,7.677 10.676,22.389c-13.485,18.301 -24.963,5.107 -24.963,5.107Z" style="fill:url(#_Linear12);fill-rule:nonzero;"/></g></g><path d="M803.338,2121.466l-786.898,0l0,-409.502c0,-20.404 16.54,-36.944 36.944,-36.944l713.009,0c20.404,0 36.944,16.54 36.944,36.944l0,409.502l0.001,0Z" style="fill:#e3b624;fill-rule:nonzero;"/><g><path d="M385.99,702.538c0,0 -22.319,10.856 -26.422,23.326c-3.293,10.006 -27.971,11.296 -30.408,30.975c-1.259,10.161 -8.778,18.297 -18.898,19.848c-25.205,3.864 -64.047,16.952 -70.262,60.713c-4.744,33.402 12.284,46.068 30.154,50.452c13.126,3.22 21.848,15.986 19.193,29.237c-2.546,12.71 1.251,27.403 23.27,39.022c49.343,26.036 98.62,-61.682 98.62,-61.682l10.099,-153.162l-35.346,-38.728Z" style="fill:#473472;fill-rule:nonzero;"/><path d="M183.17,1662.92l-3.193,26.249c-0.606,4.979 -4.527,8.917 -9.51,9.487c-8.415,0.961 -21.918,1.947 -35.13,0.55c-5.799,-0.613 -9.564,-6.485 -7.797,-12.043c3.221,-10.133 9.113,-25.344 17.608,-34.297l29.119,0c5.383,0 9.554,4.709 8.904,10.054Z" style="fill:#473472;fill-rule:nonzero;"/><path d="M411.236,1355.428l4.915,28.911c0,0 -16.458,166.711 -19.387,233.395c-0.459,10.455 2.246,20.787 7.733,29.697l28.618,46.474l-72.733,-42.919l-1.449,-8.876l11.907,-16.371l-15.596,-186.758c-0.916,-10.971 1.348,-21.974 6.521,-31.692l15.044,-28.263l34.425,-23.599Z" style="fill:url(#_Linear13);fill-rule:nonzero;"/><path d="M437.906,1700.638l-23.211,0c-4.344,0 -8.441,-1.995 -11.091,-5.438c-7.236,-9.402 -22.228,-27.746 -29.396,-28.225c-9.65,-0.645 -8.415,33.663 -8.415,33.663l-5.409,0l-6.852,-42.63c-1.724,-10.726 3.61,-21.351 13.242,-26.378c0,0 2.206,16.314 14.167,23.53c11.961,7.217 48.674,33.058 48.674,33.058c0,0 4.496,-0.641 9.433,0.251c7.323,1.323 6.301,12.168 -1.142,12.168Z" style="fill:#473472;fill-rule:nonzero;"/><path d="M311.615,1369.159c0,0 -96.419,182.897 -111.746,224.656c-15.327,41.758 -20.696,76.594 -20.902,79.893c-0.321,5.155 -6.732,10.099 -24.405,10.099c-9.12,0 -13.587,-3.657 -15.774,-7.195c-1.866,-3.019 -1.962,-6.797 -0.389,-9.979c5.577,-11.287 23.277,-47.359 29.832,-63.72c7.826,-19.534 24.662,-108.058 33.894,-138.836c9.233,-30.779 19.67,-64.165 59.877,-94.919c-0,0 27.602,-27.034 49.614,0Z" style="fill:url(#_Linear14);fill-rule:nonzero;"/><path d="M372.524,1069.473c24.871,-105.391 -38.136,-165 -38.136,-165c39.756,-38.162 112.193,-55.527 112.193,-55.527c0,0 69.119,50.533 60.92,90.086c-4.806,23.182 -48.585,138.857 -48.585,138.857c0,0 -40.481,19.157 -86.392,-8.416Z" style="fill:#87bac3;fill-rule:nonzero;"/><path d="M317.381,1121.649c10.121,-30.493 55.145,-52.176 55.145,-52.176c45.911,27.573 86.392,8.415 86.392,8.415c0,0 9.078,34.701 2.812,66.95c-6.266,32.249 -45.578,239.501 -45.578,239.501c-61.944,12.551 -157.211,-12.628 -157.211,-12.628c39.455,-70.051 48.318,-219.57 58.44,-250.063Z" style="fill:#473472;fill-rule:nonzero;"/><path d="M401.395,779.299l-20.222,90.83c-1.935,8 5.357,6.691 13.445,5.166c13.247,-2.497 30.32,-7.641 36.027,-17.949c0.581,-1.049 0.872,-2.234 1.035,-3.423l8.687,-62.983c0.689,-4.997 -2.012,-9.847 -6.624,-11.891l-16.764,-7.433c-6.454,-2.862 -13.925,0.82 -15.585,7.683Z" style="fill:url(#_Linear15);fill-rule:nonzero;"/><g><path d="M425.12,692.817c0,0 23.949,10.112 40.232,44.719c16.284,34.606 4.123,50.585 -11.151,52.779c-15.274,2.193 -38.118,1.859 -62.28,-20.496c-24.161,-22.356 2.066,-88.989 33.199,-77.003Z" style="fill:url(#_Linear16);fill-rule:nonzero;"/><path d="M408.164,751.343c0,0 -18.068,-50.631 26.82,-51.229l10.563,7.383c0,0 16.47,-28.072 -10.563,-41.471c-27.033,-13.4 -58.671,-2.332 -70.176,34.089c-11.504,36.42 -13.468,60.8 5.671,78.226c19.139,17.425 27.027,-2.333 27.027,-2.333c0,0 -10.423,-16.298 -6.179,-25.018c4.243,-8.719 14.029,1.804 14.029,1.804l2.808,-1.449Z" style="fill:#473472;fill-rule:nonzero;"/><path d="M403.13,756.983c0,0 -9.135,-26.082 -21.322,-15.695c-12.187,10.386 9.905,24.092 18.553,28.531l2.769,-12.836Z" style="fill:url(#_Linear17);fill-rule:nonzero;"/></g><path d="M345.743,952.853c46.943,21.931 226.023,88.01 282.12,-148.45c0,0 0.385,-7.076 -4.254,-15.522c-2.342,-4.265 -4.84,-21.373 -6.001,-30.154c-0.373,-2.823 -3.104,-4.678 -5.874,-4.02c-2.171,0.516 -3.929,2.102 -4.666,4.208l-13.49,38.579c0.277,6.631 5.341,12.073 11.935,12.827c4.206,0.481 6.919,4.688 5.578,8.704c-54.896,164.347 -270.119,78.145 -272.589,80.866c-4.068,4.48 -7.978,11.072 -9.732,18.664c-3.221,13.947 4.004,28.241 16.973,34.3Z" style="fill:url(#_Linear18);fill-rule:nonzero;"/></g></g></g><defs><linearGradient id="_Linear1" x1="0" y1="0" x2="1" y2="0" gradientUnits="userSpaceOnUse" gradientTransform="matrix(108.391281,144.239064,-144.239064,108.391281,547.417123,773.918108)"><stop offset="0" style="stop-color:#febbba;stop-opacity:1"/><stop offset="1" style="stop-color:#ff928e;stop-opacity:1"/></linearGradient><linearGradient id="_Linear2" x1="0" y1="0" x2="1" y2="0" gradientUnits="userSpaceOnUse" gradientTransform="matrix(8.297482,54.764492,-54.764492,8.297482,1881.783806,1094.98031)"><stop offset="0" style="stop-color:#4f52ff;stop-opacity:1"/><stop offset="1" style="stop-color:#4042e2;stop-opacity:1"/></linearGradient><linearGradient id="_Linear3" x1="0" y1="0" x2="1" y2="0" gradientUnits="userSpaceOnUse" gradientTransform="matrix(12.266293,23.50907,-23.50907,12.266293,303.734904,205.673863)"><stop offset="0" style="stop-color:#4f52ff;stop-opacity:1"/><stop offset="1" style="stop-color:#4042e2;stop-opacity:1"/></linearGradient><linearGradient id="_Linear4" x1="0" y1="0" x2="1" y2="0" gradientUnits="userSpaceOnUse" gradientTransform="matrix(18.765558,35.965292,-35.965292,18.765558,165.410935,453.80131)"><stop offset="0" style="stop-color:#4f52ff;stop-opacity:1"/><stop offset="1" style="stop-color:#4042e2;stop-opacity:1"/></linearGradient><linearGradient id="_Linear5" x1="0" y1="0" x2="1" y2="0" gradientUnits="userSpaceOnUse" gradientTransform="matrix(-29.068712,0,-0,-29.068712,2068.354531,2064.063262)"><stop offset="0" style="stop-color:#febbba;stop-opacity:1"/><stop offset="1" style="stop-color:#ff928e;stop-opacity:1"/></linearGradient><linearGradient id="_Linear6" x1="0" y1="0" x2="1" y2="0" gradientUnits="userSpaceOnUse" gradientTransform="matrix(-28.909119,0,-0,-28.909119,1921.49127,2051.155207)"><stop offset="0" style="stop-color:#febbba;stop-opacity:1"/><stop offset="1" style="stop-color:#ff928e;stop-opacity:1"/></linearGradient><linearGradient id="_Linear7" x1="0" y1="0" x2="1" y2="0" gradientUnits="userSpaceOnUse" gradientTransform="matrix(-101.217276,-36.034682,36.034682,-101.217276,1756.481407,1134.758867)"><stop offset="0" style="stop-color:#febbba;stop-opacity:1"/><stop offset="1" style="stop-color:#ff928e;stop-opacity:1"/></linearGradient><linearGradient id="_Linear8" x1="0" y1="0" x2="1" y2="0" gradientUnits="userSpaceOnUse" gradientTransform="matrix(232.14737,288.813455,-288.813455,232.14737,1484.793143,1228.09211)"><stop offset="0" style="stop-color:#febbba;stop-opacity:1"/><stop offset="1" style="stop-color:#ff928e;stop-opacity:1"/></linearGradient><linearGradient id="_Linear9" x1="0" y1="0" x2="1" y2="0" gradientUnits="userSpaceOnUse" gradientTransform="matrix(232.146915,288.813076,-288.813076,232.146915,1440.779476,1263.470365)"><stop offset="0" style="stop-color:#febbba;stop-opacity:1"/><stop offset="1" style="stop-color:#ff928e;stop-opacity:1"/></linearGradient><linearGradient id="_Linear10" x1="0" y1="0" x2="1" y2="0" gradientUnits="userSpaceOnUse" gradientTransform="matrix(224.835701,413.113205,-413.113205,224.835701,1745.959874,1053.548414)"><stop offset="0" style="stop-color:#febbba;stop-opacity:1"/><stop offset="1" style="stop-color:#ff928e;stop-opacity:1"/></linearGradient><linearGradient id="_Linear11" x1="0" y1="0" x2="1" y2="0" gradientUnits="userSpaceOnUse" gradientTransform="matrix(5.372846,164.699223,-164.699223,5.372846,1816.818948,1129.659231)"><stop offset="0" style="stop-color:#febbba;stop-opacity:1"/><stop offset="1" style="stop-color:#ff928e;stop-opacity:1"/></linearGradient><linearGradient id="_Linear12" x1="0" y1="0" x2="1" y2="0" gradientUnits="userSpaceOnUse" gradientTransform="matrix(-17.957685,-112.767396,112.767396,-17.957685,1875.683315,1298.635356)"><stop offset="0" style="stop-color:#febbba;stop-opacity:1"/><stop offset="1" style="stop-color:#ff928e;stop-opacity:1"/></linearGradient><linearGradient id="_Linear13" x1="0" y1="0" x2="1" y2="0" gradientUnits="userSpaceOnUse" gradientTransform="matrix(-80.785058,-944.174706,944.174706,-80.785058,420.444038,1897.756223)"><stop offset="0" style="stop-color:#febbba;stop-opacity:1"/><stop offset="1" style="stop-color:#ff928e;stop-opacity:1"/></linearGradient><linearGradient id="_Linear14" x1="0" y1="0" x2="1" y2="0" gradientUnits="userSpaceOnUse" gradientTransform="matrix(-80.806317,-944.423966,944.423966,-80.806317,257.940051,1911.805422)"><stop offset="0" style="stop-color:#febbba;stop-opacity:1"/><stop offset="1" style="stop-color:#ff928e;stop-opacity:1"/></linearGradient><linearGradient id="_Linear15" x1="0" y1="0" x2="1" y2="0" gradientUnits="userSpaceOnUse" gradientTransform="matrix(-15.175234,-111.017995,111.017995,-15.175234,429.303426,967.082694)"><stop offset="0" style="stop-color:#febbba;stop-opacity:1"/><stop offset="1" style="stop-color:#ff928e;stop-opacity:1"/></linearGradient><linearGradient id="_Linear16" x1="0" y1="0" x2="1" y2="0" gradientUnits="userSpaceOnUse" gradientTransform="matrix(-132.40445,-235.635412,235.635412,-132.40445,467.606137,823.946561)"><stop offset="0" style="stop-color:#febbba;stop-opacity:1"/><stop offset="1" style="stop-color:#ff928e;stop-opacity:1"/></linearGradient><linearGradient id="_Linear17" x1="0" y1="0" x2="1" y2="0" gradientUnits="userSpaceOnUse" gradientTransform="matrix(-132.405057,-235.636399,235.636399,-132.405057,439.422627,839.783855)"><stop offset="0" style="stop-color:#febbba;stop-opacity:1"/><stop offset="1" style="stop-color:#ff928e;stop-opacity:1"/></linearGradient><linearGradient id="_Linear18" x1="0" y1="0" x2="1" y2="0" gradientUnits="userSpaceOnUse" gradientTransform="matrix(-281.935592,194.224797,-194.224797,-281.935592,527.709471,865.518084)"><stop offset="0" style="stop-color:#febbba;stop-opacity:1"/><stop offset="1" style="stop-color:#ff928e;stop-opacity:1"/></linearGradient></defs></svg>